<svg xmlns="http://www.w3.org/2000/svg" width="100%" height="100%" viewBox="0 0 1749 2481" fill-rule="evenodd" stroke-linejoin="round" stroke-miterlimit="2" xmlns:v="https://vecta.io/nano"><path d="M0 0h1748.037v2480.32H0z" fill="#fff"/><g transform="scale(4.16667)" fill="#231f20" fill-rule="nonzero"><use href="#B"/><use href="#B" x="4.496"/><use href="#C"/><path d="M62.158 43.456h-2.952l-1.224 2.412-1.494 3.258h-.036l-1.494-3.258-1.224-2.412h-2.97l4.374 7.83v4.986h2.646v-4.986l4.374-7.83z"/><use href="#D"/><use href="#E"/><use href="#F"/><use href="#G"/><use href="#H"/><use href="#G" x="26.137"/><use href="#H" x="26.137"/><use href="#I"/><use href="#G" x="63.057"/><use href="#F" x="79.89"/><use href="#J"/><use href="#K"/><use href="#L"/><use href="#J" x="26.407"/><use href="#M"/><path d="M218.604 43.456h2.646v12.816h-2.646z"/><use href="#I" x="81.978"/><use href="#G" x="145.036"/><use href="#J" x="71.772"/><use href="#N"/><use href="#O"/><path d="M55.052 61.456h-2.644v5.022h-5.251v-5.022h-2.644v12.816h2.644v-5.526h5.251v5.526h2.644V61.456z"/><use href="#P"/><use href="#Q"/><use href="#Q" x="9.171"/><use href="#R"/><use href="#S"/><use href="#T"/><use href="#U"/><use href="#V"/><use href="#P" x="86.598"/><path d="M156.419 65.128V67h1.511v7.272h2.482V67h1.726v-1.872h-1.726v-.522c0-1.044.45-1.422 1.331-1.422.162 0 .342.018.45.054v-1.782c-.306-.072-.809-.144-1.241-.144-1.96 0-3.021.99-3.021 2.988v.828h-1.511zm7.175 9.144h2.518v-9.144h-2.518v9.144zm0-12.816v2.16h2.518v-2.16h-2.518z"/><use href="#V" x="34.748"/><use href="#S" x="79.092"/><path d="M188.427 61.456h2.518v12.816h-2.518zm7.877 0h2.518v12.816h-2.518z"/><use href="#U" x="77.815"/><use href="#U" x="88.354"/><path d="M226.783 69.34l3.471-4.212h-2.841l-2.949 3.69h-.036v-7.362h-2.518v12.816h2.518v-4.284h.036l3.057 4.284h3.111l-3.848-4.932z"/><use href="#S" x="134.832"/><path d="M248.085 72.382c-.863 0-1.187-.396-1.187-1.404V67h1.744v-1.872h-1.744v-2.376h-2.518v2.376h-1.475V67h1.475v4.428c0 2.124.917 2.97 3.021 2.97.432 0 .989-.072 1.331-.18v-1.926a2.25 2.25 0 0 1-.647.09zm11.256-11.214c-3.633 0-5.863 2.556-5.863 6.696 0 4.158 2.212 6.696 5.809 6.696 3.129 0 5.161-1.746 5.413-4.788h-2.715c-.198 1.566-1.187 2.448-2.697 2.448-1.906 0-3.075-1.638-3.075-4.356 0-2.7 1.187-4.356 3.129-4.356 1.493 0 2.482.9 2.644 2.394h2.662c-.126-2.79-2.14-4.734-5.305-4.734z"/><use href="#S" x="166.64"/><use href="#V" x="142.417"/><use href="#T" x="177.177"/><path d="M302.39 65.128l-.989 3.06-1.061 3.834h-.036l-1.007-3.834-.935-3.06h-2.697l2.59 7.434c.36 1.026.432 1.314.432 1.656 0 .9-.665 1.476-1.672 1.476-.378 0-.719-.054-.971-.144v2.016c.378.09.863.144 1.313.144 2.284 0 3.435-.81 4.352-3.384l3.273-9.198h-2.59zm2.373 6.138h2.769v3.006h-2.769zm17.562-9.81h-10.7v2.268h4.028v10.548h2.644V63.724h4.028v-2.268z"/><use href="#R" x="234.264"/><use href="#P" x="276.516"/><use href="#V" x="210.507"/><use href="#R" x="268.666"/><use href="#P" x="310.918"/><use href="#W"/><use href="#D" x="-20.722" y="36"/><use href="#X"/><path d="M64.282 92.488c1.17 0 2.088-.558 2.682-1.368H67v1.152h2.358v-9.144h-2.52v4.896c0 1.656-.756 2.484-1.8 2.484-.99 0-1.602-.63-1.602-2.016v-5.364h-2.52v5.616c0 2.484 1.314 3.744 3.366 3.744zm12.427-9.594c-1.062 0-2.07.504-2.628 1.44h-.036v-1.206h-2.448v12.474h2.52v-4.428h.036c.558.864 1.548 1.332 2.592 1.332 2.286 0 3.762-1.89 3.762-4.806s-1.494-4.806-3.798-4.806zm-.81 1.926c1.206 0 1.98 1.134 1.98 2.88s-.774 2.88-1.98 2.88c-1.134 0-1.908-1.062-1.908-2.88s.774-2.88 1.908-2.88z"/><use href="#X" x="35.225"/><path d="M96.134 82.84c-2.862 0-4.68 1.89-4.68 4.86s1.818 4.86 4.68 4.86 4.68-1.89 4.68-4.86-1.818-4.86-4.68-4.86zm0 1.944c1.242 0 2.034 1.134 2.034 2.916s-.792 2.916-2.034 2.916S94.1 89.482 94.1 87.7s.792-2.916 2.034-2.916zm14.54-3.6a1.62 1.62 0 0 1 .45.054v-1.782c-.306-.072-.81-.144-1.242-.144-1.962 0-3.024.99-3.024 2.988v.828h-1.512V85h1.512v7.272h2.484V85h1.728v-1.872h-1.728v-.522c0-1.044.45-1.422 1.332-1.422z"/><use href="#G" x="18.535" y="36"/><use href="#X" x="71.224"/><use href="#Y"/><use href="#K" x="-45.168" y="36"/><use href="#E" x="81.304" y="36"/><use href="#Z"/><use href="#L" x="-17.013" y="36"/><use href="#a"/><use href="#D" x="135.736" y="36"/><use href="#X" x="156.458"/><use href="#K" x="30.41" y="36"/><use href="#G" x="130.61" y="36"/><use href="#F" x="147.393" y="36"/><use href="#X" x="194.148"/><use href="#K" x="68.102" y="36"/><use href="#F" x="174.981" y="36"/><use href="#G" x="174.93" y="36"/><use href="#G" x="185.217" y="36"/><use href="#I" x="146.977" y="36"/><use href="#G" x="209.987" y="36"/><use href="#G" x="220.274" y="36"/><use href="#F" x="237.057" y="36"/><use href="#Z" x="167.002"/><use href="#N" x="84.564" y="36"/><path d="M59.828 97.456h-2.553l-.904 4.662-.922 5.544h-.035l-1.152-5.544-1.099-4.662h-3.297l-1.099 4.662-1.152 5.544h-.035l-.922-5.544-.904-4.662h-2.553l2.641 12.816h3.386l1.17-5.076 1.099-5.49h.035l1.099 5.49 1.17 5.076h3.386l2.641-12.816z"/><use href="#b"/><use href="#c"/><use href="#d"/><use href="#b" x="33.58"/><use href="#c" x="33.581"/><use href="#e"/><use href="#f"/><path d="M147.218 100.912c-1.383 0-2.198.594-2.872 1.566-.496-1.026-1.418-1.566-2.677-1.566-1.081 0-1.844.396-2.5 1.26h-.035v-1.044h-2.34v9.144h2.482v-4.698c0-1.71.567-2.682 1.649-2.682.922 0 1.418.684 1.418 1.854v5.526h2.482v-4.698c0-1.728.585-2.682 1.649-2.682.869 0 1.418.63 1.418 2.016v5.364h2.482v-5.616c0-2.484-1.223-3.744-3.156-3.744z"/><use href="#c" x="81.193"/><use href="#g"/><use href="#f" x="48.286"/><use href="#e" x="67.292"/><path d="M199.519 105.34l3.421-4.212h-2.801l-2.907 3.69h-.035v-7.362h-2.482v12.816h2.482v-4.284h.035l3.014 4.284h3.067l-3.794-4.932z"/><use href="#h"/><use href="#i"/><use href="#j"/><path d="M236.456 107.266h-2.73v3.006h.904l-.975 3.096h1.489l1.312-3.096v-3.006z"/><use href="#b" x="180.565"/><use href="#c" x="180.563"/><path d="M263.77 97.456h-2.322v2.556h.78l-.833 2.628h1.259l1.117-2.628v-2.556zm9.268 0h-2.482v4.77h-.035c-.55-.864-1.525-1.332-2.553-1.332-2.251 0-3.705 1.89-3.705 4.806s1.471 4.806 3.741 4.806c1.046 0 2.039-.504 2.588-1.44h.035v1.206h2.411V97.456zm-4.237 5.364c1.117 0 1.879 1.062 1.879 2.88s-.762 2.88-1.879 2.88c-1.188 0-1.95-1.134-1.95-2.88s.762-2.88 1.95-2.88z"/><use href="#h" x="70.889"/><use href="#d" x="207.218"/><path d="M298.536 97.456h2.482v12.816h-2.482zm9.866 3.672l-.975 3.06-1.046 3.834h-.035l-.993-3.834-.922-3.06h-2.659l2.553 7.434c.355 1.026.425 1.314.425 1.656 0 .9-.656 1.476-1.649 1.476-.372 0-.709-.054-.957-.144v2.016a5.82 5.82 0 0 0 1.294.144c2.251 0 3.386-.81 4.29-3.384l3.226-9.198h-2.553z"/><use href="#g" x="149.481"/><path d="M329.977 100.984c-1.064 0-1.861.45-2.464 1.44h-.035v-1.296h-2.287v9.144h2.482v-4.32c0-1.8.815-2.772 2.34-2.772.248 0 .496.036.78.09v-2.178c-.248-.072-.567-.108-.815-.108z"/><use href="#h" x="124.395"/><use href="#i" x="124.394"/><path d="M355.18 100.876c-2.269 0-3.723 1.8-3.723 4.644s1.436 4.644 3.687 4.644c1.081 0 1.844-.414 2.517-1.368h.035v.81c0 1.782-.691 2.358-1.808 2.358-.94 0-1.507-.414-1.56-1.116h-2.482c.142 1.8 1.507 2.916 3.989 2.916 2.588 0 4.272-1.296 4.272-4.068v-8.568h-2.34v1.224h-.035c-.691-1.044-1.454-1.476-2.553-1.476zm.674 2.07c1.17 0 1.915 1.026 1.915 2.574s-.745 2.574-1.915 2.574c-1.099 0-1.808-.99-1.808-2.574s.709-2.574 1.808-2.574z"/><use href="#b" x="301.325"/><use href="#j" x="144.747"/><path d="M34.178 126.382c-.861 0-1.184-.396-1.184-1.404V121h1.741v-1.872h-1.741v-2.376h-2.512v2.376H29.01V121h1.472v4.428c0 2.124.915 2.97 3.015 2.97.431 0 .987-.072 1.328-.18v-1.926c-.162.054-.413.09-.646.09z"/><use href="#k"/><use href="#l"/><path d="M68.877 118.84c-2.782 0-4.594 1.908-4.594 4.86s1.812 4.86 4.594 4.86c2.459 0 4.109-1.548 4.307-3.87h-2.638c-.072 1.188-.718 1.926-1.687 1.926-1.22 0-1.956-1.116-1.956-2.916s.736-2.916 1.956-2.916c.969 0 1.615.666 1.705 1.746h2.62c-.197-2.142-1.848-3.69-4.307-3.69z"/><use href="#m"/><use href="#n"/><use href="#o"/><use href="#m" x="32.184"/><use href="#n" x="32.185"/><use href="#p"/><use href="#q"/><use href="#r"/><use href="#k" x="128.099"/><use href="#m" x="103.931"/><use href="#o" x="93.398"/><use href="#m" x="126.572"/><path d="M210.879 115.456h2.512v12.816h-2.512zm9.564 3.528c-1.077 0-1.884.45-2.494 1.44h-.036v-1.296h-2.315v9.144h2.512v-4.32c0-1.8.825-2.772 2.369-2.772.251 0 .502.036.79.09v-2.178a3.25 3.25 0 0 0-.825-.108z"/><use href="#r" x="70.958"/><use href="#m" x="157.504"/><use href="#p" x="114.787"/><path d="M257.671 119.128l-.987 3.06-1.059 3.834h-.036l-1.005-3.834-.933-3.06h-2.692l2.584 7.434c.359 1.026.431 1.314.431 1.656 0 .9-.664 1.476-1.669 1.476-.377 0-.718-.054-.969-.144v2.016a5.96 5.96 0 0 0 1.31.144c2.279 0 3.428-.81 4.343-3.384l3.266-9.198h-2.584z"/><use href="#p" x="137.052"/><use href="#l" x="223.94"/><use href="#n" x="200.617"/><use href="#r" x="144.232"/><use href="#k" x="272.217"/><path d="M325.467 119.128h-2.512v9.144h2.512v-9.144zm0-3.672h-2.512v2.16h2.512v-2.16zm6.297 10.926c-.861 0-1.184-.396-1.184-1.404V121h1.741v-1.872h-1.741v-2.376h-2.512v2.376h-1.472V121h1.472v4.428c0 2.124.915 2.97 3.015 2.97.431 0 .987-.072 1.328-.18v-1.926c-.162.054-.413.09-.646.09z"/><use href="#q" x="193.152"/><use href="#l" x="297.037"/><use href="#n" x="273.714"/><use href="#r" x="217.329"/><use href="#s"/><path d="M44.236 135.184c.159 0 .335.018.441.054v-1.782a5.81 5.81 0 0 0-1.217-.144c-1.923 0-2.964.99-2.964 2.988v.828h-1.482V139h1.482v7.272h2.434V139h1.693v-1.872h-1.693v-.522c0-1.044.441-1.422 1.305-1.422z"/><use href="#t"/><use href="#u"/><use href="#v"/><path d="M84.572 136.912c-1.376 0-2.187.594-2.858 1.566-.494-1.026-1.411-1.566-2.664-1.566-1.076 0-1.835.396-2.487 1.26h-.035v-1.044H74.2v9.144h2.47v-4.698c0-1.71.564-2.682 1.641-2.682.917 0 1.411.684 1.411 1.854v5.526h2.47v-4.698c0-1.728.582-2.682 1.641-2.682.864 0 1.411.63 1.411 2.016v5.364h2.47v-5.616c0-2.484-1.217-3.744-3.14-3.744zm4.733 6.354h2.717v3.006h-2.717zm17.911-9.81h-2.593v5.022h-5.151v-5.022h-2.593v12.816h2.593v-5.526h5.151v5.526h2.593v-12.816z"/><use href="#v" x="44.899"/><use href="#w"/><use href="#x"/><use href="#y"/><use href="#u" x="100.958"/><use href="#v" x="100.959"/><use href="#z"/><use href="#t" x="139.642"/><use href="#u" x="139.641"/><use href="#v" x="139.642"/><use href="#x" x="79.399"/><path d="M225.928 133.456h2.47v12.816h-2.47z"/><use href="#AA"/><use href="#w" x="118.583"/><use href="#AB"/><use href="#AC"/><use href="#AA" x="39.939"/><use href="#w" x="158.521"/><use href="#AB" x="42.284"/><use href="#AC" x="42.281"/><use href="#u" x="261.121"/><use href="#AB" x="69.752"/><use href="#y" x="183.554"/><use href="#AD"/><use href="#AB" x="92.218"/><use href="#AE"/><use href="#u" x="308.157"/><use href="#t" x="324.06"/><use href="#AF"/><use href="#AG"/><use href="#AH"/><path d="M69.289 151.456H66.76v4.77h-.036c-.56-.864-1.553-1.332-2.601-1.332-2.294 0-3.775 1.89-3.775 4.806s1.499 4.806 3.811 4.806c1.066 0 2.077-.504 2.637-1.44h.036v1.206h2.457v-12.816zm-4.317 5.364c1.138 0 1.915 1.062 1.915 2.88s-.777 2.88-1.915 2.88c-1.21 0-1.987-1.134-1.987-2.88s.777-2.88 1.987-2.88z"/><use href="#AG" x="35.215"/><use href="#AI"/><use href="#AG" x="55.3"/><use href="#AJ"/><use href="#AH" x="60.049"/><use href="#AK"/><use href="#AL"/><use href="#AF" x="110.743"/><use href="#AJ" x="45.799"/><use href="#AK" x="35.196"/><path d="M170.349 151.456h2.529v12.816h-2.529z"/><use href="#AM"/><use href="#AI" x="99.837"/><use href="#AG" x="159.537"/><use href="#AH" x="159.537"/><use href="#AN"/><use href="#AL" x="105.226"/><path d="M245.511 154.84c-2.872 0-4.696 1.89-4.696 4.86s1.824 4.86 4.696 4.86 4.696-1.89 4.696-4.86-1.824-4.86-4.696-4.86zm0 1.944c1.246 0 2.041 1.134 2.041 2.916s-.795 2.916-2.041 2.916-2.041-1.134-2.041-2.916.795-2.916 2.041-2.916z"/><use href="#AK" x="130.909"/><use href="#AK" x="140.139"/><use href="#AM" x="95.338"/><use href="#AN" x="60.248"/><use href="#AL" x="165.476"/><use href="#AF" x="271.815"/><use href="#AM" x="137.415"/><path d="M331.805 154.84c-2.8 0-4.624 1.908-4.624 4.86s1.824 4.86 4.624 4.86c2.475 0 4.136-1.548 4.335-3.87h-2.655c-.072 1.188-.723 1.926-1.698 1.926-1.228 0-1.969-1.116-1.969-2.916s.741-2.916 1.969-2.916c.975 0 1.626.666 1.716 1.746h2.637c-.199-2.142-1.86-3.69-4.335-3.69z"/><use href="#AG" x="296.997"/><use href="#AH" x="296.997"/><use href="#AG" x="321.645"/><use href="#AL" x="241.584"/><path d="M34.181 180.382c-.862 0-1.185-.396-1.185-1.404V175h1.742v-1.872h-1.742v-2.376h-2.514v2.376H29.01V175h1.472v4.428c0 2.124.916 2.97 3.016 2.97.431 0 .988-.072 1.329-.18v-1.926a2.24 2.24 0 0 1-.646.09zm4.563-10.926H36.23v12.816h2.514v-4.896c0-1.674.754-2.484 1.796-2.484.988 0 1.598.63 1.598 2.016v5.364h2.514v-5.616c0-2.484-1.311-3.744-3.358-3.744-.97 0-1.867.396-2.514 1.224h-.036v-4.68zm11.942 11.322c-1.077 0-1.993-.666-2.065-2.556h6.554c0-1.008-.09-1.71-.287-2.34-.575-1.854-2.119-3.042-4.219-3.042-2.855 0-4.525 2.088-4.525 4.788 0 2.916 1.67 4.932 4.543 4.932 2.424 0 4.004-1.386 4.363-3.06h-2.568c-.126.738-.79 1.278-1.796 1.278zm-.018-6.156c1.005 0 1.831.63 1.993 2.016h-3.986c.198-1.386.97-2.016 1.993-2.016z"/><use href="#AO"/><use href="#AP"/><use href="#AQ"/><path d="M92.711 172.912a3.24 3.24 0 0 0-2.675 1.368H90v-1.152h-2.352v9.144h2.514v-4.896c0-1.656.754-2.484 1.796-2.484.988 0 1.598.63 1.598 2.016v5.364h2.514v-5.616c0-2.484-1.311-3.744-3.358-3.744zm9.393 7.866c-1.077 0-1.993-.666-2.065-2.556h6.554c0-1.008-.09-1.71-.287-2.34-.575-1.854-2.119-3.042-4.219-3.042-2.855 0-4.525 2.088-4.525 4.788 0 2.916 1.67 4.932 4.543 4.932 2.424 0 4.004-1.386 4.363-3.06H103.9c-.126.738-.79 1.278-1.796 1.278zm-.018-6.156c1.005 0 1.831.63 1.993 2.016h-3.986c.198-1.386.97-2.016 1.993-2.016z"/><use href="#AQ" x="27.298"/><use href="#AP" x="47.138"/><path d="M132.287 171.184c.162 0 .341.018.449.054v-1.782c-.305-.072-.808-.144-1.239-.144-1.957 0-3.016.99-3.016 2.988v.828h-1.508V175h1.508v7.272h2.478V175h1.724v-1.872h-1.724v-.522c0-1.044.449-1.422 1.329-1.422z"/><use href="#AR"/><use href="#AS"/><use href="#AT"/><path d="M169.961 172.894c-1.059 0-2.065.504-2.621 1.44h-.036v-1.206h-2.442v12.474h2.514v-4.428h.036c.557.864 1.544 1.332 2.586 1.332 2.28 0 3.753-1.89 3.753-4.806s-1.49-4.806-3.789-4.806zm-.808 1.926c1.203 0 1.975 1.134 1.975 2.88s-.772 2.88-1.975 2.88c-1.131 0-1.903-1.062-1.903-2.88s.772-2.88 1.903-2.88z"/><use href="#AP" x="104.961"/><use href="#AQ" x="104.961"/><use href="#AO" x="131.774"/><use href="#AR" x="64.483"/><use href="#AS" x="68.347"/><use href="#AU"/><path d="M238.273 172.84c-2.604 0-3.86 1.404-3.95 3.15h2.442c.036-.864.575-1.386 1.508-1.386.88 0 1.49.468 1.49 1.62v.324l-2.28.252c-2.639.414-3.537 1.422-3.537 2.916 0 1.584 1.167 2.772 3.106 2.772 1.257 0 2.28-.468 2.963-1.44h.036c0 .45.036.846.126 1.224h2.262c-.162-.612-.251-1.35-.251-2.502v-3.312c0-2.394-1.329-3.618-3.914-3.618zm1.49 5.58c0 .828-.09 1.314-.521 1.746-.359.36-.916.522-1.436.522-.88 0-1.347-.468-1.347-1.152 0-.738.431-1.08 1.472-1.26a21.08 21.08 0 0 1 1.831-.198v.342z"/><use href="#AT" x="95.192"/><path d="M267.815 172.912c-1.401 0-2.226.594-2.909 1.566-.503-1.026-1.436-1.566-2.711-1.566-1.095 0-1.867.396-2.532 1.26h-.036v-1.044h-2.37v9.144h2.514v-4.698c0-1.71.575-2.682 1.67-2.682.934 0 1.436.684 1.436 1.854v5.526h2.514v-4.698c0-1.728.593-2.682 1.67-2.682.88 0 1.436.63 1.436 2.016v5.364h2.514v-5.616c0-2.484-1.239-3.744-3.196-3.744z"/><use href="#AP" x="202.547"/><use href="#AP" x="213.052"/><path d="M297.951 180.382c-.862 0-1.185-.396-1.185-1.404V175h1.742v-1.872h-1.742v-2.376h-2.514v2.376h-1.472V175h1.472v4.428c0 2.124.916 2.97 3.016 2.97.431 0 .988-.072 1.329-.18v-1.926a2.24 2.24 0 0 1-.646.09z"/><use href="#AR" x="162.267"/><path d="M315.873 169.456h-2.514v12.816h2.442v-1.206h.036c.557.936 1.562 1.44 2.621 1.44 2.298 0 3.789-1.89 3.789-4.806s-1.472-4.806-3.753-4.806c-1.041 0-2.029.468-2.586 1.332h-.036v-4.77zm1.778 5.364c1.203 0 1.975 1.134 1.975 2.88s-.772 2.88-1.975 2.88c-1.131 0-1.903-1.062-1.903-2.88s.772-2.88 1.903-2.88z"/><use href="#AP" x="253.458"/><path d="M347.461 173.128h-2.496l-.682 3.528-.664 3.978h-.036l-.772-3.942-.808-3.564h-3.447l-.808 3.564-.772 3.942h-.036l-.664-3.978-.682-3.528h-2.496l2.011 9.144h3.591l.808-3.6.754-3.906h.036l.754 3.906.808 3.6h3.591l2.011-9.144zm1.042-3.672h2.514v12.816h-2.514z"/><use href="#AS" x="204.955"/><use href="#AU" x="136.605"/><path d="M371.565 172.876c-2.298 0-3.771 1.8-3.771 4.644s1.454 4.644 3.735 4.644c1.095 0 1.867-.414 2.55-1.368h.036v.81c0 1.782-.7 2.358-1.831 2.358-.952 0-1.526-.414-1.58-1.116h-2.514c.144 1.8 1.526 2.916 4.04 2.916 2.621 0 4.327-1.296 4.327-4.068v-8.568h-2.37v1.224h-.036c-.7-1.044-1.472-1.476-2.586-1.476zm.682 2.07c1.185 0 1.939 1.026 1.939 2.574s-.754 2.574-1.939 2.574c-1.113 0-1.831-.99-1.831-2.574s.718-2.574 1.831-2.574zM40.691 190.912c-1.406 0-2.235.594-2.92 1.566-.505-1.026-1.442-1.566-2.722-1.566-1.1 0-1.875.396-2.542 1.26h-.036v-1.044h-2.379v9.144h2.524v-4.698c0-1.71.577-2.682 1.676-2.682.937 0 1.442.684 1.442 1.854v5.526h2.524v-4.698c0-1.728.595-2.682 1.676-2.682.883 0 1.442.63 1.442 2.016v5.364H43.9v-5.616c0-2.484-1.244-3.744-3.208-3.744z"/><use href="#AV"/><use href="#AW"/><use href="#AX"/><use href="#AV" x="21.289"/><use href="#AY"/><path d="M88.027 197.266h2.776v3.006h-2.776zm9.336-9.81h2.65v12.816h-2.65z"/><use href="#AY" x="24.759"/><use href="#AZ"/><use href="#AX" x="65.46"/><use href="#Aa"/><path d="M146.904 187.456h2.524v12.816h-2.524zm8.712 11.322c-1.082 0-2.001-.666-2.073-2.556h6.579c0-1.008-.09-1.71-.288-2.34-.577-1.854-2.127-3.042-4.236-3.042-2.866 0-4.542 2.088-4.542 4.788 0 2.916 1.676 4.932 4.56 4.932 2.433 0 4.02-1.386 4.38-3.06h-2.578c-.126.738-.793 1.278-1.803 1.278zm-.018-6.156c1.009 0 1.839.63 2.001 2.016h-4.002c.198-1.386.973-2.016 2.001-2.016zm10.444-3.438c.162 0 .342.018.451.054v-1.782a6.06 6.06 0 0 0-1.244-.144c-1.965 0-3.028.99-3.028 2.988v.828h-1.514V193h1.514v7.272h2.487V193h1.73v-1.872h-1.73v-.522c0-1.044.451-1.422 1.334-1.422z"/><use href="#AW" x="111.483"/><path d="M191.714 191.128h-2.505l-.685 3.528-.667 3.978h-.036l-.775-3.942-.811-3.564h-3.461l-.811 3.564-.775 3.942h-.036l-.667-3.978-.685-3.528h-2.505l2.019 9.144h3.605l.811-3.6.757-3.906h.036l.757 3.906.811 3.6h3.605l2.019-9.144z"/><use href="#Ab"/><use href="#Aa" x="69.472"/><use href="#Ab" x="24.187"/><use href="#AY" x="148.712"/><use href="#AV" x="195.368"/><path d="M251.807 187.456h2.524v12.816h-2.524zm13.075 0h-2.524v4.77h-.036c-.559-.864-1.55-1.332-2.596-1.332-2.289 0-3.767 1.89-3.767 4.806s1.496 4.806 3.803 4.806c1.063 0 2.073-.504 2.632-1.44h.036v1.206h2.451v-12.816zm-4.308 5.364c1.136 0 1.911 1.062 1.911 2.88s-.775 2.88-1.911 2.88c-1.208 0-1.983-1.134-1.983-2.88s.775-2.88 1.983-2.88zm9.018 4.446h-2.776v3.006h.919l-.991 3.096h1.514l1.334-3.096v-3.006z"/><use href="#Aa" x="143.118"/><use href="#AY" x="207.388"/><use href="#AV" x="249.671"/><use href="#AV" x="260.259"/><use href="#AW" x="260.259"/><path d="M328.493 191.128l-.991 3.06-1.063 3.834h-.036l-1.009-3.834-.937-3.06h-2.704l2.596 7.434c.361 1.026.433 1.314.433 1.656 0 .9-.667 1.476-1.676 1.476-.379 0-.721-.054-.973-.144v2.016c.379.09.865.144 1.316.144 2.289 0 3.443-.81 4.362-3.384l3.281-9.198h-2.596z"/><use href="#Aa" x="204.277"/><use href="#AZ" x="228.831"/><use href="#AV" x="310.832"/><use href="#AW" x="310.832"/><path d="M372.723 194.026h4.687v1.98h-4.687zm-339.388 14.85c-2.335 0-3.831 1.8-3.831 4.644s1.478 4.644 3.794 4.644c1.113 0 1.897-.414 2.59-1.368h.036v.81c0 1.782-.711 2.358-1.861 2.358-.967 0-1.551-.414-1.605-1.116h-2.554c.146 1.8 1.551 2.916 4.104 2.916 2.663 0 4.396-1.296 4.396-4.068v-8.568h-2.408v1.224h-.036c-.711-1.044-1.496-1.476-2.627-1.476zm.693 2.07c1.204 0 1.97 1.026 1.97 2.574s-.766 2.574-1.97 2.574c-1.131 0-1.861-.99-1.861-2.574s.73-2.574 1.861-2.574z"/><use href="#Ac"/><path d="M56.64 208.912a3.31 3.31 0 0 0-2.718 1.368h-.036v-1.152h-2.39v9.144h2.554v-4.896c0-1.656.766-2.484 1.824-2.484 1.003 0 1.623.63 1.623 2.016v5.364h2.554v-5.616c0-2.484-1.332-3.744-3.411-3.744zm23.658.216h-2.536l-.693 3.528-.675 3.978h-.036l-.784-3.942-.821-3.564h-3.502l-.821 3.564-.784 3.942h-.036l-.675-3.978-.693-3.528h-2.536l2.043 9.144h3.648l.821-3.6.766-3.906h.036l.766 3.906.821 3.6h3.648l2.043-9.144z"/><use href="#Ad"/><use href="#Ae"/><use href="#Af"/><use href="#Ag"/><use href="#Af" x="29.751"/><use href="#Ac" x="92.301"/><path d="M154.522 208.912c-1.423 0-2.262.594-2.955 1.566-.511-1.026-1.459-1.566-2.754-1.566a3 3 0 0 0-2.572 1.26h-.036v-1.044h-2.408v9.144h2.554v-4.698c0-1.71.584-2.682 1.696-2.682.949 0 1.459.684 1.459 1.854v5.526h2.554v-4.698c0-1.728.602-2.682 1.696-2.682.894 0 1.459.63 1.459 2.016v5.364h2.554v-5.616c0-2.484-1.259-3.744-3.247-3.744z"/><use href="#Ad" x="78.528"/><use href="#Ah"/><use href="#Ad" x="94.135"/><path d="M179.407 209.128V211h1.532v7.272h2.517V211h1.751v-1.872h-1.751v-.522c0-1.044.456-1.422 1.35-1.422.164 0 .347.018.456.054v-1.782c-.31-.072-.821-.144-1.259-.144-1.988 0-3.065.99-3.065 2.988v.828h-1.532zm7.278 9.144h2.554v-9.144h-2.554v9.144zm0-12.816v2.16h2.554v-2.16h-2.554z"/><use href="#Ai"/><use href="#Ah" x="37.157"/><use href="#Ah" x="52.481"/><use href="#Aj"/><use href="#Ac" x="197.953"/><use href="#Ak"/><path d="M260.188 205.456h2.554v12.816h-2.554z"/><use href="#Ai" x="73.505"/><use href="#Ak" x="30.473"/><use href="#Ag" x="182.63"/><use href="#Al"/><use href="#Al" x="6.982"/><use href="#Ai" x="122.669"/><path d="M324.503 205.456h2.554v12.816h-2.554zm4.576 9.81h2.809v3.006h-2.809zm10.411 3.006h5.071c2.919 0 4.633-1.368 4.633-3.51 0-1.656-.803-2.61-2.572-2.988v-.036c1.514-.558 2.262-1.512 2.262-2.988 0-1.962-1.496-3.294-4.724-3.294h-4.67v12.816zm4.597-5.454c1.715 0 2.39.522 2.39 1.674 0 1.08-.657 1.602-2.317 1.602h-1.988v-3.276h1.915zm.109-5.202c1.478 0 2.116.468 2.116 1.53 0 1.098-.675 1.584-2.244 1.584h-1.897v-3.114h2.025z"/><use href="#Aj" x="122.844"/><use href="#Ae" x="275.116"/><use href="#Af" x="275.117"/><use href="#I" x="-115.699" y="180"/><use href="#L" x="-153.146" y="180"/><use href="#F" x="-36.613" y="180"/><use href="#F" x="-29.796" y="180"/><path d="M67.6 234.778c-1.08 0-1.998-.666-2.07-2.556h6.57c0-1.008-.09-1.71-.288-2.34-.576-1.854-2.124-3.042-4.23-3.042-2.862 0-4.536 2.088-4.536 4.788 0 2.916 1.674 4.932 4.554 4.932 2.43 0 4.014-1.386 4.374-3.06H69.4c-.126.738-.792 1.278-1.8 1.278zm-.018-6.156c1.008 0 1.836.63 1.998 2.016h-3.996c.198-1.386.972-2.016 1.998-2.016z"/><use href="#Am"/><use href="#Z" x="-85.148" y="144"/><use href="#An"/><use href="#G" x="12.258" y="180"/><use href="#F" x="29.012" y="180"/><use href="#G" x="28.934" y="180"/><use href="#Z" x="-26.543" y="144"/><use href="#Ao"/><use href="#E" x="80.731" y="180"/><path d="M172.873 225.184a1.62 1.62 0 0 1 .45.054v-1.782c-.306-.072-.81-.144-1.242-.144-1.962 0-3.024.99-3.024 2.988v.828h-3.114v-.522c0-1.044.45-1.422 1.332-1.422a1.62 1.62 0 0 1 .45.054v-1.782c-.306-.072-.81-.144-1.242-.144-1.962 0-3.024.99-3.024 2.988v.828h-1.512V229h1.512v7.272h2.484V229h3.114v7.272h2.484V229h1.728v-1.872h-1.728v-.522c0-1.044.45-1.422 1.332-1.422z"/><use href="#G" x="80.704" y="180"/><use href="#Ap"/><use href="#An" x="106.811"/><use href="#Aq"/><use href="#Ao" x="71.177"/><use href="#K" x="40.486" y="180"/><use href="#Z" x="74.477" y="144"/><use href="#K" x="64.14" y="180"/><use href="#D" x="196.583" y="180"/><use href="#Ao" x="121.889"/><use href="#N" x="19.426" y="180"/><path d="M44.178 246.64h2.405v-2.556h-.808l.863-2.628h-1.304l-1.157 2.628v2.556zm3.342 0h2.405v-2.556h-.808l.863-2.628h-1.304l-1.157 2.628v2.556zm15.154-5.184h-3.011l-1.248 2.412-1.524 3.258h-.037l-1.524-3.258-1.248-2.412h-3.029l4.461 7.83v4.986h2.699v-4.986l4.461-7.83z"/><use href="#Ar"/><path d="M76.061 254.488a3.34 3.34 0 0 0 2.736-1.368h.037v1.152h2.405v-9.144h-2.57v4.896c0 1.656-.771 2.484-1.836 2.484-1.01 0-1.634-.63-1.634-2.016v-5.364h-2.57v5.616c0 2.484 1.34 3.744 3.433 3.744zm15.726-13.032h-2.57v12.816h2.497v-1.206h.037c.569.936 1.597 1.44 2.681 1.44 2.35 0 3.874-1.89 3.874-4.806s-1.506-4.806-3.837-4.806c-1.065 0-2.075.468-2.644 1.332h-.037v-4.77zm1.818 5.364c1.23 0 2.02 1.134 2.02 2.88s-.789 2.88-2.02 2.88c-1.157 0-1.946-1.062-1.946-2.88s.789-2.88 1.946-2.88z"/><use href="#Ar" x="38.432"/><use href="#As"/><use href="#At"/><use href="#At" x="14.467"/><use href="#Au"/><use href="#Av"/><use href="#At" x="40.497"/><use href="#Av" x="20.992"/><use href="#Au" x="32.557"/><path d="M181.582 241.456h2.57v12.816h-2.57zm5.037 0h2.57v12.816h-2.57zm13.644 1.728c.165 0 .349.018.459.054v-1.782a6.28 6.28 0 0 0-1.267-.144c-2.001 0-3.084.99-3.084 2.988v.828h-1.542V247h1.542v7.272h2.534V247h1.763v-1.872h-1.763v-.522c0-1.044.459-1.422 1.359-1.422z"/><use href="#Ar" x="139.939"/><path d="M217.614 244.984c-1.102 0-1.928.45-2.552 1.44h-.037v-1.296h-2.368v9.144h2.57v-4.32c0-1.8.845-2.772 2.424-2.772.257 0 .514.036.808.09v-2.178c-.257-.072-.588-.108-.845-.108z"/><use href="#Aw"/><use href="#Ax"/><use href="#Ar" x="194.114"/><use href="#Ax" x="27.245"/><path d="M287.314 252.778c-1.102 0-2.038-.666-2.111-2.556h6.701c0-1.008-.092-1.71-.294-2.34-.588-1.854-2.166-3.042-4.315-3.042-2.919 0-4.627 2.088-4.627 4.788 0 2.916 1.707 4.932 4.645 4.932 2.479 0 4.094-1.386 4.461-3.06h-2.625c-.129.738-.808 1.278-1.836 1.278zm-.018-6.156c1.028 0 1.873.63 2.038 2.016h-4.076c.202-1.386.991-2.016 2.038-2.016zm11.646-1.71a3.34 3.34 0 0 0-2.736 1.368h-.037v-1.152h-2.405v9.144h2.57v-4.896c0-1.656.771-2.484 1.836-2.484 1.01 0 1.634.63 1.634 2.016v5.364h2.57v-5.616c0-2.484-1.34-3.744-3.433-3.744z"/><use href="#Av" x="155.62"/><path d="M314.066 251.266h-2.827v3.006h.936l-1.01 3.096h1.542l1.359-3.096v-3.006z"/><use href="#Ar" x="259.198"/><path d="M336.893 249.34l3.543-4.212h-2.901l-3.011 3.69h-.037v-7.362h-2.57v12.816h2.57v-4.284h.037l3.121 4.284h3.176l-3.929-4.932z"/><use href="#Aw" x="116.925"/><use href="#As" x="240.308"/><path d="M365.496 251.896h-2.827v2.376h2.827v-2.376zm-1.138-10.71c-2.827 0-4.461 1.35-4.535 3.996h2.681c.055-1.26.661-1.818 1.854-1.818 1.047 0 1.597.486 1.597 1.242 0 .702-.147 1.062-1.212 2.016-1.432 1.296-1.744 1.962-1.744 3.726l.018.576h2.185c0-1.62.275-2.16 1.597-3.258 1.469-1.242 1.836-1.89 1.836-3.132 0-2.07-1.616-3.348-4.278-3.348zm8.455.27h-2.405v2.556h.808l-.863 2.628h1.304l1.157-2.628v-2.556zm3.342 0h-2.405v2.556h.808l-.863 2.628h1.304l1.157-2.628v-2.556zm-335.265 18h-2.646v5.022h-5.256v-5.022h-2.646v12.816h2.646v-5.526h5.256v5.526h2.646v-12.816z"/><use href="#G" x="-50.169" y="216"/><use href="#Z" x="-110.108" y="180"/><use href="#Z" x="-100.921" y="180"/><use href="#Ap" x="-108.72" y="36"/><use href="#F" x="-0.563" y="216"/><path d="M96.826 270.778c-1.08 0-1.998-.666-2.07-2.556h6.57c0-1.008-.09-1.71-.288-2.34-.576-1.854-2.124-3.042-4.23-3.042-2.862 0-4.536 2.088-4.536 4.788 0 2.916 1.674 4.932 4.554 4.932 2.43 0 4.014-1.386 4.374-3.06h-2.574c-.126.738-.792 1.278-1.8 1.278zm-.018-6.156c1.008 0 1.836.63 1.998 2.016H94.81c.198-1.386.972-2.016 1.998-2.016z"/><use href="#An" x="11.288" y="36"/><path d="M125.16 270.382c-.864 0-1.188-.396-1.188-1.404V265h1.746v-1.872h-1.746v-2.376h-2.52v2.376h-1.476V265h1.476v4.428c0 2.124.918 2.97 3.024 2.97.432 0 .99-.072 1.332-.18v-1.926a2.25 2.25 0 0 1-.648.09z"/><use href="#K" x="-55.885" y="216"/><use href="#G" x="44.277" y="216"/><use href="#Z" x="-11.839" y="180"/><use href="#G" x="67.499" y="216"/><use href="#Y" x="43.213" y="180"/><use href="#D" x="119.999" y="216"/><use href="#a" x="5.23" y="180"/><use href="#Ap" x="17.695" y="36"/><use href="#Y" x="87.99" y="180"/><use href="#L" x="32.146" y="216"/><use href="#a" x="49.123" y="180"/><use href="#D" x="188.716" y="216"/><use href="#Ay"/><use href="#I" x="124.331" y="216"/><use href="#G" x="187.305" y="216"/><use href="#G" x="197.553" y="216"/><use href="#F" x="214.3" y="216"/><use href="#Ay" x="51.509"/><use href="#F" x="230.898" y="216"/><use href="#D" x="263.087" y="216"/><use href="#H" x="231.034" y="216"/><use href="#K" x="171.374" y="216"/><use href="#Aq" x="152.362" y="36"/><use href="#Z" x="206.182" y="180"/><use href="#x" x="-107.25" y="144.001"/><use href="#AD" x="-302.287" y="144.001"/><use href="#w" x="-76.032" y="144.001"/><path d="M66.361 280.895c-1.041 0-2.029.504-2.575 1.44h-.035v-1.206h-2.399v12.474h2.47v-4.428h.035c.547.864 1.517 1.332 2.54 1.332 2.24 0 3.687-1.89 3.687-4.806s-1.464-4.806-3.722-4.806zm-.794 1.926c1.182 0 1.94 1.134 1.94 2.88s-.759 2.88-1.94 2.88c-1.111 0-1.87-1.062-1.87-2.88s.759-2.88 1.87-2.88z"/><use href="#AB" x="-184.363" y="144.001"/><use href="#Az"/><use href="#BA"/><use href="#BB"/><path d="M103.603 280.985c-1.058 0-1.852.45-2.452 1.44h-.035v-1.296H98.84v9.144h2.47v-4.32c0-1.8.811-2.772 2.328-2.772.247 0 .494.036.776.09v-2.178c-.247-.072-.564-.108-.811-.108z"/><use href="#x" x="-32.251" y="144.001"/><use href="#BB" x="25.053"/><path d="M128.673 285.341l3.405-4.212h-2.787l-2.893 3.69h-.035v-7.362h-2.47v12.816h2.47v-4.284h.035l2.999 4.284h3.052l-3.775-4.932z"/><use href="#v" x="68.109" y="144.001"/><use href="#z" x="-32.781" y="144.001"/><use href="#AB" x="-99.467" y="144.001"/><use href="#Az" x="84.896"/><use href="#s" x="139.419" y="144.001"/><use href="#AC" x="-80.805" y="144.001"/><use href="#v" x="125.216" y="144.001"/><path d="M199.174 284.027h4.586v1.98h-4.586z"/><use href="#u" x="150.743" y="144.001"/><use href="#x" x="78.023" y="144.001"/><use href="#AC" x="-35.712" y="144.001"/><use href="#z" x="59.498" y="144.001"/><use href="#v" x="180.493" y="144.001"/><use href="#z" x="79.601" y="144.001"/><use href="#x" x="130.487" y="144.001"/><use href="#AC" x="16.755" y="144.001"/><use href="#z" x="111.965" y="144.001"/><use href="#y" x="153.902" y="144.001"/><use href="#x" x="172.262" y="144.001"/><use href="#Az" x="242.643"/><path d="M324.686 287.267h2.717v3.006h-2.717zm7.773-9.81h2.593v12.816h-2.593z"/><use href="#Az" x="261.296"/><use href="#BC"/><use href="#x" x="222.679" y="144.001"/><use href="#y" x="222.746" y="144.001"/><path d="M35.165 298.913c-1.17 0-2.088.558-2.682 1.368h-.036v-1.152H30.09v9.144h2.52v-4.896c0-1.656.756-2.484 1.8-2.484.99 0 1.602.63 1.602 2.016v5.364h2.52v-5.616c0-2.484-1.314-3.744-3.365-3.744z"/><use href="#BD"/><path d="M64.212 299.129H61.71l-.684 3.528-.666 3.978h-.036l-.774-3.942-.81-3.564h-3.455l-.81 3.564-.774 3.942h-.036L53 302.657l-.684-3.528h-2.502l2.016 9.144h3.599l.81-3.6.756-3.906h.036l.756 3.906.81 3.6h3.599l2.016-9.144z"/><use href="#BE"/><use href="#BF"/><use href="#BG"/><use href="#BF" x="16.701"/><use href="#BH"/><use href="#BF" x="41.275"/><use href="#BI"/><use href="#BG" x="50.894"/><use href="#BH" x="39.907"/><use href="#Aq" x="-55.634" y="72.001"/><path d="M164.983 298.877c-2.304 0-3.779 1.8-3.779 4.644s1.458 4.644 3.743 4.644c1.098 0 1.872-.414 2.556-1.368h.036v.81c0 1.782-.702 2.358-1.836 2.358-.954 0-1.53-.414-1.584-1.116h-2.52c.144 1.8 1.53 2.916 4.049 2.916 2.628 0 4.337-1.296 4.337-4.068v-8.568h-2.376v1.224h-.036c-.702-1.044-1.476-1.476-2.592-1.476zm.684 2.07c1.188 0 1.944 1.026 1.944 2.574s-.756 2.574-1.944 2.574c-1.116 0-1.836-.99-1.836-2.574s.72-2.574 1.836-2.574z"/><use href="#BE" x="106.909"/><use href="#BJ"/><path d="M193.158 297.185a1.62 1.62 0 0 1 .45.054v-1.782a6.04 6.04 0 0 0-1.242-.144c-1.962 0-3.023.99-3.023 2.988v.828h-1.512v1.872h1.512v7.272h2.484v-7.272h1.728v-1.872h-1.728v-.522c0-1.044.45-1.422 1.332-1.422z"/><use href="#BI" x="67.298"/><use href="#Am" x="130.437" y="72.001"/><use href="#Am" x="135.179" y="72.001"/><use href="#M" x="3.748" y="252.001"/><use href="#BF" x="145.567"/><path d="M239.176 299.129h-2.898l-1.566 2.682h-.036l-1.566-2.682h-2.898l2.933 4.446-3.131 4.698h2.933l1.728-3.096h.036l1.728 3.096h2.933l-3.131-4.698 2.933-4.446zm4.921-.288c-2.79 0-4.607 1.908-4.607 4.86s1.818 4.86 4.607 4.86c2.466 0 4.121-1.548 4.319-3.87h-2.646c-.072 1.188-.72 1.926-1.692 1.926-1.224 0-1.962-1.116-1.962-2.916s.738-2.916 1.962-2.916c.972 0 1.62.666 1.71 1.746h2.628c-.198-2.142-1.854-3.69-4.319-3.69z"/><use href="#BF" x="174.208"/><path d="M265.28 298.895c-1.062 0-2.07.504-2.628 1.44h-.036v-1.206h-2.448v12.474h2.52v-4.428h.036c.558.864 1.548 1.332 2.592 1.332 2.286 0 3.761-1.89 3.761-4.806s-1.494-4.806-3.797-4.806zm-.81 1.926c1.206 0 1.98 1.134 1.98 2.88s-.774 2.88-1.98 2.88c-1.134 0-1.908-1.062-1.908-2.88s.774-2.88 1.908-2.88z"/><use href="#BJ" x="88.029"/><use href="#BD" x="239.417"/><path d="M293.747 308.489c1.17 0 2.088-.558 2.682-1.368h.036v1.152h2.358v-9.144h-2.52v4.896c0 1.656-.756 2.484-1.8 2.484-.99 0-1.602-.63-1.602-2.016v-5.364h-2.52v5.616c0 2.484 1.314 3.744 3.365 3.744z"/><use href="#BJ" x="118.37"/><use href="#BJ" x="127.836"/><use href="#BE" x="251.413"/><use href="#BF" x="251.411"/><use href="#BG" x="251.411"/><use href="#BF" x="268.113"/><use href="#BD" x="317.325"/><use href="#BH" x="261.804"/><use href="#BK"/><use href="#BL"/><path d="M51.078 324.779c-1.087 0-2.011-.666-2.083-2.556h6.612c0-1.008-.091-1.71-.29-2.34-.58-1.854-2.137-3.042-4.257-3.042-2.88 0-4.565 2.088-4.565 4.788 0 2.916 1.685 4.932 4.583 4.932 2.445 0 4.039-1.386 4.402-3.06h-2.59c-.127.738-.797 1.278-1.811 1.278zm-.018-6.156c1.014 0 1.848.63 2.011 2.016H49.05c.199-1.386.978-2.016 2.011-2.016zm15.841-1.728c-1.069 0-2.083.504-2.645 1.44h-.036v-1.206h-2.463v12.474h2.536v-4.428h.036c.562.864 1.558 1.332 2.608 1.332 2.3 0 3.786-1.89 3.786-4.806s-1.503-4.806-3.822-4.806zm-.815 1.926c1.214 0 1.993 1.134 1.993 2.88s-.779 2.88-1.993 2.88c-1.141 0-1.92-1.062-1.92-2.88s.779-2.88 1.92-2.88z"/><use href="#BM"/><path d="M88.007 316.985c-1.087 0-1.902.45-2.518 1.44h-.036v-1.296h-2.337v9.144h2.536v-4.32c0-1.8.833-2.772 2.391-2.772.254 0 .507.036.797.09v-2.178a3.31 3.31 0 0 0-.833-.108zm5.864-.144c-2.808 0-4.637 1.908-4.637 4.86s1.829 4.86 4.637 4.86c2.482 0 4.148-1.548 4.347-3.87h-2.663c-.072 1.188-.725 1.926-1.703 1.926-1.232 0-1.974-1.116-1.974-2.916s.743-2.916 1.974-2.916c.978 0 1.63.666 1.721 1.746h2.645c-.199-2.142-1.866-3.69-4.347-3.69z"/><use href="#BL" x="63.446"/><path d="M120.409 317.129l-.996 3.06-1.069 3.834h-.036l-1.014-3.834-.942-3.06h-2.717l2.608 7.434c.362 1.026.435 1.314.435 1.656 0 .9-.67 1.476-1.685 1.476-.38 0-.725-.054-.978-.144v2.016a6.07 6.07 0 0 0 1.322.144c2.3 0 3.46-.81 4.384-3.384l3.297-9.198h-2.608z"/><use href="#BM" x="51.246"/><use href="#BN"/><use href="#BO"/><use href="#BM" x="91.309"/><use href="#BN" x="40.065"/><path d="M185.124 313.457h2.536v12.816h-2.536zm13.2 0h-2.536v4.77h-.036c-.562-.864-1.558-1.332-2.608-1.332-2.3 0-3.786 1.89-3.786 4.806s1.503 4.806 3.822 4.806c1.069 0 2.083-.504 2.645-1.44h.036v1.206h2.463v-12.816zm-4.329 5.364c1.141 0 1.92 1.062 1.92 2.88s-.779 2.88-1.92 2.88c-1.214 0-1.993-1.134-1.993-2.88s.779-2.88 1.993-2.88z"/><use href="#BP"/><path d="M213.021 313.457h-2.373v2.556h.797l-.851 2.628h1.286l1.141-2.628v-2.556z"/><use href="#BK" x="185.108"/><use href="#BL" x="189.563"/><path d="M240.262 316.841c-2.626 0-3.894 1.404-3.985 3.15h2.463c.036-.864.58-1.386 1.522-1.386.888 0 1.503.468 1.503 1.62v.324l-2.3.252c-2.663.414-3.568 1.422-3.568 2.916 0 1.584 1.177 2.772 3.134 2.772 1.268 0 2.3-.468 2.989-1.44h.036c0 .45.036.846.127 1.224h2.282c-.163-.612-.254-1.35-.254-2.502v-3.312c0-2.394-1.34-3.618-3.949-3.618zm1.503 5.58c0 .828-.091 1.314-.525 1.746-.362.36-.924.522-1.449.522-.888 0-1.359-.468-1.359-1.152 0-.738.435-1.08 1.485-1.26.543-.09 1.304-.162 1.848-.198v.342zm12.438-5.292h-2.645l-1.069 3.6-1.014 3.96h-.036l-1.014-3.96-1.069-3.6h-2.645l3.097 9.144h3.297l3.097-9.144z"/><use href="#BQ"/><path d="M275.12 321.341l3.496-4.212h-2.862l-2.971 3.69h-.036v-7.362h-2.536v12.816h2.536v-4.284h.036l3.079 4.284h3.134l-3.876-4.932z"/><use href="#BP" x="79.083"/><use href="#BM" x="217.796"/><use href="#BO" x="151.292"/><use href="#BP" x="114.691"/><path d="M332.997 317.129h-2.536v9.144h2.536v-9.144zm0-3.672h-2.536v2.16h2.536v-2.16z"/><use href="#BK" x="305.192"/><path d="M341.658 323.267h2.79v3.006h-2.79zm25.746-9.81h-2.608l-.924 4.662-.942 5.544h-.036l-1.177-5.544-1.123-4.662h-3.369l-1.123 4.662-1.177 5.544h-.036l-.942-5.544-.924-4.662h-2.608l2.699 12.816h3.46l1.196-5.076 1.123-5.49h.036l1.123 5.49 1.196 5.076h3.46l2.699-12.816z"/><use href="#BQ" x="113.057"/><use href="#Z" x="-133.503" y="252.001"/><use href="#L" x="-154.205" y="288.001"/><use href="#BR"/><use href="#BR" x="10.093"/><use href="#K" x="-117.854" y="288.001"/><use href="#G" x="-17.682" y="288.001"/><path d="M90.77 334.985c-1.08 0-1.89.45-2.502 1.44h-.036v-1.296H85.91v9.144h2.52v-4.32c0-1.8.828-2.772 2.376-2.772.252 0 .504.036.792.09v-2.178a3.27 3.27 0 0 0-.828-.108z"/><use href="#G" x="-1.001" y="288.001"/><use href="#E" x="34.795" y="288.001"/><use href="#a" x="-69.328" y="252.001"/><use href="#BR" x="78.529"/><use href="#Aq" x="-78.987" y="108.001"/><use href="#Am" x="64.719" y="108.001"/><use href="#Aq" x="-65.62" y="108.001"/><use href="#BR" x="102.817"/><use href="#L" x="-31.867" y="288.001"/><use href="#Y" x="43.456" y="252.001"/><path d="M185.488 342.383c-.864 0-1.188-.396-1.188-1.404v-3.978h1.746v-1.872H184.3v-2.376h-2.52v2.376h-1.476v1.872h1.476v4.428c0 2.124.918 2.97 3.024 2.97.432 0 .99-.072 1.332-.18v-1.926a2.25 2.25 0 0 1-.648.09z"/><use href="#E" x="115.875" y="288.001"/><use href="#L" x="4.375" y="288.001"/><use href="#Am" x="134.03" y="108.001"/><use href="#Am" x="138.763" y="108.001"/><path d="M222.591 335.129l-.99 3.06-1.062 3.834h-.036l-1.008-3.834-.936-3.06h-2.7l2.592 7.434c.36 1.026.432 1.314.432 1.656 0 .9-.666 1.476-1.674 1.476-.378 0-.72-.054-.972-.144v2.016c.378.09.864.144 1.314.144 2.286 0 3.438-.81 4.356-3.384l3.276-9.198h-2.592z"/><use href="#I" x="84.159" y="288.001"/><use href="#G" x="147.143" y="288.001"/><use href="#W" x="220.825" y="252.001"/><use href="#L" x="67.555" y="288.001"/><use href="#a" x="84.54" y="252.001"/><use href="#BR" x="236.408"/><use href="#D" x="230.09" y="288.001"/><use href="#W" x="275.528" y="252.001"/><use href="#G" x="222.506" y="288.001"/><use href="#BR" x="277.04"/><use href="#Ap" x="151.644" y="108.001"/><use href="#L" x="152.885" y="288.001"/><use href="#F" x="269.421" y="288.001"/><path d="M367.954 339.341l3.474-4.212h-2.844l-2.952 3.69h-.036v-7.362h-2.52v12.816h2.52v-4.284h.036l3.06 4.284h3.114l-3.852-4.932z"/><use href="#N" x="117.504" y="288.001"/><path d="M44.133 354.641h2.311v-2.556h-.776l.829-2.628h-1.252l-1.111 2.628v2.556zm3.21 0h2.311v-2.556h-.776l.829-2.628h-1.252l-1.111 2.628v2.556zm19.821-5.184h-2.54l-.9 4.662-.917 5.544h-.035l-1.147-5.544-1.094-4.662H57.25l-1.094 4.662-1.147 5.544h-.035l-.917-5.544-.9-4.662h-2.54l2.628 12.816h3.369l1.164-5.076 1.094-5.49h.035l1.094 5.49 1.164 5.076h3.369l2.628-12.816z"/><use href="#v" x="3.185" y="216.001"/><path d="M77.548 349.457h2.47v12.816h-2.47zm4.598 0h2.47v12.816h-2.47z"/><use href="#BA" x="4.419" y="72"/><use href="#BC" x="-252.253" y="72"/><use href="#u" x="53.637" y="216.001"/><use href="#x" x="-18.986" y="216.001"/><use href="#Az" x="51.493" y="72"/><use href="#x" x="-0.807" y="216.001"/><use href="#AD" x="-195.748" y="216.001"/><use href="#v" x="87.787" y="216.001"/><use href="#BC" x="-181.04" y="72"/><use href="#v" x="114.596" y="216.001"/><use href="#AE" x="-160.507" y="216.001"/><use href="#s" x="172.129" y="216.001"/><use href="#AB" x="-43.567" y="216.001"/><use href="#AC" x="-43.404" y="216.001"/><use href="#AE" x="-125.306" y="216.001"/><use href="#Az" x="163.839" y="72"/><use href="#s" x="215.583" y="216.001"/><use href="#z" x="83.578" y="216.001"/><use href="#s" x="239.129" y="216.001"/><use href="#AC" x="21.946" y="216.001"/><use href="#s" x="262.525" y="216.001"/><use href="#BC" x="-43.635" y="72"/><use href="#BA" x="233.591" y="72"/><path d="M329.398 349.169c-3.669 0-5.962 2.556-5.962 6.75 0 4.104 2.046 6.606 5.257 6.606 1.676 0 2.964-.63 3.669-1.638h.035v1.386h2.187v-7.038h-5.398v2.16h2.981c-.035 1.98-1.023 3.042-2.822 3.042-1.993 0-3.228-1.71-3.228-4.518 0-2.754 1.27-4.41 3.281-4.41 1.394 0 2.223.684 2.452 1.944h2.787c-.265-2.628-2.152-4.284-5.239-4.284z"/><use href="#x" x="199.519" y="216.001"/><use href="#AD" x="4.579" y="216.001"/><path d="M358.131 353.129l-.97 3.06-1.041 3.834h-.035l-.988-3.834-.917-3.06h-2.646l2.54 7.434c.353 1.026.423 1.314.423 1.656 0 .9-.653 1.476-1.641 1.476-.37 0-.706-.054-.953-.144v2.016c.37.09.847.144 1.288.144 2.24 0 3.369-.81 4.269-3.384l3.21-9.198h-2.54z"/><path d="M366.258 359.897h-2.717v2.376h2.717v-2.376zm-1.094-10.71c-2.717 0-4.287 1.35-4.357 3.996h2.575c.053-1.26.635-1.818 1.782-1.818 1.005 0 1.535.486 1.535 1.242 0 .702-.141 1.062-1.164 2.016-1.376 1.296-1.676 1.962-1.676 3.726l.018.576h2.099c0-1.62.265-2.16 1.535-3.258 1.411-1.242 1.764-1.89 1.764-3.132 0-2.07-1.552-3.348-4.11-3.348zm7.878.27h-2.311v2.556h.776l-.829 2.628h1.252l1.111-2.628v-2.556zm3.21 0h-2.311v2.556h.776l-.829 2.628h1.252l1.111-2.628v-2.556zm-321.257 18h-2.631v5.022h-5.226v-5.022h-2.631v12.816h2.631v-5.526h5.226v5.526h2.631v-12.816z"/><use href="#BS"/><use href="#BT"/><use href="#BT" x="9.098"/><use href="#BU"/><use href="#BS" x="36.106"/><path d="M111.408 371.129h-2.613l-1.056 3.6-1.002 3.96h-.036l-1.002-3.96-1.056-3.6h-2.613l3.061 9.144h3.257l3.061-9.144z"/><use href="#BS" x="54.712"/><use href="#BU" x="33.24"/><use href="#BS" x="69.346"/><use href="#BV"/><use href="#BW"/><use href="#BX"/><use href="#BS" x="109.499"/><use href="#BT" x="112.748"/><use href="#BX" x="32.851"/><use href="#BY"/><use href="#BW" x="59.627"/><path d="M219.055 370.877c-2.291 0-3.759 1.8-3.759 4.644s1.45 4.644 3.723 4.644c1.092 0 1.861-.414 2.542-1.368h.036v.81c0 1.782-.698 2.358-1.826 2.358-.949 0-1.521-.414-1.575-1.116h-2.506c.143 1.8 1.521 2.916 4.027 2.916 2.613 0 4.313-1.296 4.313-4.068v-8.568h-2.363v1.224h-.036c-.698-1.044-1.468-1.476-2.577-1.476zm.68 2.07c1.181 0 1.933 1.026 1.933 2.574s-.752 2.574-1.933 2.574c-1.11 0-1.826-.99-1.826-2.574s.716-2.574 1.826-2.574zm9.705 7.542a3.23 3.23 0 0 0 2.667-1.368h.036v1.152h2.345v-9.144h-2.506v4.896c0 1.656-.752 2.484-1.79 2.484-.984 0-1.593-.63-1.593-2.016v-5.364h-2.506v5.616c0 2.484 1.307 3.744 3.347 3.744z"/><use href="#BZ"/><use href="#Ba"/><use href="#BW" x="109.302"/><path d="M274.86 367.169c-3.615 0-5.835 2.556-5.835 6.696 0 4.158 2.201 6.696 5.781 6.696 3.114 0 5.137-1.746 5.387-4.788h-2.703c-.197 1.566-1.181 2.448-2.685 2.448-1.897 0-3.061-1.638-3.061-4.356 0-2.7 1.181-4.356 3.114-4.356 1.486 0 2.47.9 2.631 2.394h2.649c-.125-2.79-2.13-4.734-5.28-4.734z"/><use href="#Ba" x="31.541"/><use href="#BZ" x="54.713"/><use href="#BV" x="164.912"/><path d="M317.587 371.129l-.984 3.06-1.056 3.834h-.036l-1.002-3.834-.931-3.06h-2.685l2.577 7.434c.358 1.026.43 1.314.43 1.656 0 .9-.662 1.476-1.665 1.476-.376 0-.716-.054-.966-.144v2.016a5.93 5.93 0 0 0 1.307.144c2.273 0 3.418-.81 4.331-3.384l3.257-9.198h-2.577zm6.04-3.672h-2.345v2.556h.788l-.841 2.628h1.271l1.128-2.628v-2.556z"/><use href="#BT" x="257.506"/><path d="M340.908 370.841c-2.774 0-4.582 1.908-4.582 4.86s1.808 4.86 4.582 4.86c2.452 0 4.099-1.548 4.295-3.87h-2.631c-.072 1.188-.716 1.926-1.682 1.926-1.217 0-1.951-1.116-1.951-2.916s.734-2.916 1.951-2.916c.966 0 1.611.666 1.7 1.746h2.613c-.197-2.142-1.843-3.69-4.295-3.69z"/><use href="#BY" x="147.05"/><path d="M367.605 370.913c-1.396 0-2.219.594-2.899 1.566-.501-1.026-1.432-1.566-2.703-1.566-1.092 0-1.861.396-2.524 1.26h-.036v-1.044h-2.363v9.144h2.506v-4.698c0-1.71.573-2.682 1.665-2.682.931 0 1.432.684 1.432 1.854v5.526h2.506v-4.698c0-1.728.591-2.682 1.665-2.682.877 0 1.432.63 1.432 2.016v5.364h2.506v-5.616c0-2.484-1.235-3.744-3.186-3.744zm4.569 3.114h4.653v1.98h-4.653zm-331.5 14.886c-1.404 0-2.232.594-2.916 1.566-.504-1.026-1.44-1.566-2.718-1.566-1.098 0-1.872.396-2.538 1.26h-.036v-1.044H30.09v9.144h2.52v-4.698c0-1.71.576-2.682 1.674-2.682.936 0 1.44.684 1.44 1.854v5.526h2.52v-4.698c0-1.728.594-2.682 1.674-2.682.882 0 1.44.63 1.44 2.016v5.364h2.52v-5.616c0-2.484-1.242-3.744-3.204-3.744z"/><use href="#G" x="-47.47" y="342.001"/><use href="#H" x="-47.501" y="342.001"/><use href="#D" x="10.879" y="342.001"/><use href="#F" x="-4.287" y="342.001"/><use href="#L" x="-104.673" y="342.001"/><use href="#BR" x="49.577" y="54"/><use href="#Aq" x="-107.894" y="162.001"/><path d="M117.654 389.129h-2.628l-1.062 3.6-1.008 3.96h-.036l-1.008-3.96-1.062-3.6h-2.628l3.078 9.144h3.276l3.078-9.144z"/><use href="#G" x="24.938" y="342.001"/><use href="#Z" x="-31.071" y="306.001"/><use href="#G" x="48.32" y="342.001"/><path d="M155.988 396.383c-.864 0-1.188-.396-1.188-1.404v-3.978h1.746v-1.872H154.8v-2.376h-2.52v2.376h-1.476v1.872h1.476v4.428c0 2.124.918 2.97 3.024 2.97.432 0 .99-.072 1.332-.18v-1.926a2.25 2.25 0 0 1-.648.09z"/><use href="#N" x="-96.776" y="342.001"/><use href="#C" x="-0.009" y="360.001"/><path d="M67.714 403.457h-2.592l-.918 4.662-.936 5.544h-.036l-1.17-5.544-1.116-4.662h-3.348l-1.116 4.662-1.17 5.544h-.036l-.936-5.544-.918-4.662H50.83l2.682 12.816h3.438l1.188-5.076 1.116-5.49h.036l1.116 5.49 1.188 5.076h3.438l2.682-12.816z"/><use href="#G" x="-25.166" y="360.001"/><path d="M80.682 403.457h-2.358v2.556h.792l-.846 2.628h1.278l1.134-2.628v-2.556zm6.628 3.528c-1.08 0-1.89.45-2.502 1.44h-.036v-1.296H82.45v9.144h2.52v-4.32c0-1.8.828-2.772 2.376-2.772.252 0 .504.036.792.09v-2.178a3.27 3.27 0 0 0-.828-.108z"/><use href="#G" x="-4.436" y="360.001"/><use href="#W" x="73.019" y="324.001"/><use href="#D" x="52.294" y="360.001"/><use href="#Aq" x="-88.747" y="180.001"/><use href="#a" x="-57.687" y="324.001"/><use href="#W" x="109.197" y="324.001"/><use href="#BR" x="103.534" y="72"/><use href="#D" x="97.24" y="360.001"/><use href="#Z" x="9.223" y="324.001"/><use href="#Aq" x="-30.653" y="180.001"/><use href="#BR" x="137.809" y="72"/><use href="#L" x="2.29" y="360.001"/><use href="#a" x="19.301" y="324.001"/><use href="#Ap" x="31.8" y="180.001"/><use href="#An" x="138.611" y="180.001"/><use href="#L" x="50.578" y="360.001"/><use href="#Aq" x="41.282" y="180.001"/><use href="#BR" x="209.744" y="72"/><path d="M273.156 405.185a1.62 1.62 0 0 1 .45.054v-1.782c-.306-.072-.81-.144-1.242-.144-1.962 0-3.024.99-3.024 2.988v.828h-1.512v1.872h1.512v7.272h2.484v-7.272h1.728v-1.872h-1.728v-.522c0-1.044.45-1.422 1.332-1.422z"/><use href="#D" x="213.287" y="360.001"/><use href="#F" x="198.1" y="360.001"/><path d="M295.3 416.273h5.004c2.88 0 4.572-1.368 4.572-3.51 0-1.656-.792-2.61-2.538-2.988v-.036c1.494-.558 2.232-1.512 2.232-2.988 0-1.962-1.476-3.294-4.662-3.294H295.3v12.816zm4.536-5.454c1.692 0 2.358.522 2.358 1.674 0 1.08-.648 1.602-2.286 1.602h-1.962v-3.276h1.89zm.108-5.202c1.458 0 2.088.468 2.088 1.53 0 1.098-.666 1.584-2.214 1.584h-1.872v-3.114h1.998z"/><use href="#Aq" x="93.847" y="180.001"/><use href="#W" x="281.202" y="324.001"/><path d="M321.036 410.027h4.68v1.98h-4.68zm14.384 6.246h2.772l-4.446-12.816h-3.564l-4.446 12.816h2.772l1.008-3.132h4.914l.99 3.132zm-5.184-5.4l.27-.846 1.44-5.004h.036l1.458 5.004.27.846h-3.474z"/><use href="#Z" x="175.503" y="324.001"/><use href="#Z" x="184.723" y="324.001"/><use href="#G" x="264.095" y="360.001"/><use href="#Ap" x="183.418" y="180.001"/><path d="M30.342 434.273h5.004c2.88 0 4.572-1.368 4.572-3.51 0-1.656-.792-2.61-2.538-2.988v-.036c1.494-.558 2.232-1.512 2.232-2.988 0-1.962-1.476-3.294-4.662-3.294h-4.608v12.816zm4.536-5.454c1.692 0 2.358.522 2.358 1.674 0 1.08-.648 1.602-2.286 1.602h-1.962v-3.276h1.89zm.108-5.202c1.458 0 2.088.468 2.088 1.53 0 1.098-.666 1.584-2.214 1.584h-1.872v-3.114h1.998z"/><use href="#F" x="-45.134" y="378.001"/><use href="#G" x="-45.062" y="378.001"/><use href="#a" x="-127.709" y="342.001"/><use href="#Ap" x="-115.085" y="198.001"/><use href="#L" x="-113.698" y="378.001"/><use href="#N" x="-165.434" y="378.001"/><use href="#O" x="-165.362" y="378.001"/><use href="#Bb"/><path d="M57.896 456.727H55.88l-1.584 2.952h-.024l-1.584-2.952h-2.016l2.544 4.2-2.676 4.344h2.052l1.68-3.024h.024l1.68 3.024h2.052l-2.676-4.344 2.544-4.2zm3.877-.192c-2.424 0-3.912 1.704-3.912 4.464 0 2.772 1.476 4.464 3.876 4.464 2.088 0 3.444-1.164 3.612-3.192h-1.812c-.132 1.044-.792 1.632-1.8 1.632-1.272 0-2.052-1.092-2.052-2.904 0-1.8.792-2.904 2.088-2.904.996 0 1.656.6 1.764 1.596h1.776c-.084-1.86-1.428-3.156-3.54-3.156z"/><use href="#Bb" x="22.657"/><path d="M74.146 465.271h1.764v-3.264h.972c.84 0 1.188.324 1.5 1.236l.684 2.028h1.92l-.852-2.364c-.396-1.08-.684-1.44-1.284-1.656v-.024c.96-.264 1.56-1.044 1.56-2.088 0-1.524-.972-2.412-3.12-2.412h-3.144v8.544zm2.916-7.116c1.008 0 1.572.36 1.572 1.188 0 .78-.408 1.26-1.476 1.26H75.91v-2.448h1.152z"/><use href="#Bc"/><path d="M95.783 456.727h-7.14v1.512h2.688v7.032h1.764v-7.032h2.688v-1.512zm9.302 0h-5.7v8.544h1.764v-3.192h3.636v-1.512h-3.636v-2.328h3.936v-1.512z"/><use href="#Bd"/><use href="#Be"/><use href="#Bf"/><use href="#Bg"/><path d="M145.804 456.727h1.764v8.544h-1.764z"/><use href="#Bh"/><use href="#Bh" x="6.769"/><use href="#Be" x="48.629"/><use href="#Bg" x="-93.104" y="13.001"/><path d="M55.214 477.276c-.72 0-1.332-.444-1.38-1.704h4.38c0-.672-.06-1.14-.192-1.56-.384-1.236-1.416-2.028-2.82-2.028-1.908 0-3.024 1.392-3.024 3.192 0 1.944 1.116 3.288 3.036 3.288 1.62 0 2.676-.924 2.916-2.04h-1.716c-.084.492-.528.852-1.2.852zm-.012-4.104c.672 0 1.224.42 1.332 1.344H53.87c.132-.924.648-1.344 1.332-1.344z"/><use href="#Bi"/><use href="#Bj"/><use href="#Bk"/><use href="#Bl"/><use href="#Bm"/><use href="#Bn"/><use href="#Bc" x="6.035" y="13.001"/><use href="#Bo"/><use href="#Bp"/><use href="#Bl" x="36.481"/><use href="#Bk" x="42.783"/><use href="#Bm" x="39.632"/><use href="#Bq"/><use href="#Br"/><use href="#Bs"/><use href="#Bn" x="57.785"/><use href="#Bt"/><use href="#Bq" x="31.229"/><use href="#Bu"/><use href="#Bi" x="107.727"/><use href="#Bv"/><use href="#Bo" x="82.557"/><use href="#Bw"/><path d="M201.777 469.728h-1.764v3.348h-3.504v-3.348h-1.764v8.544h1.764v-3.684h3.504v3.684h1.764v-8.544z"/><use href="#Bu" x="43.32"/><use href="#Bw" x="25.395"/><use href="#Br" x="88.508"/><path d="M227.57 472.176l-.66 2.04-.708 2.556h-.024l-.672-2.556-.624-2.04h-1.8l1.728 4.956c.24.684.288.876.288 1.104 0 .6-.444.984-1.116.984-.252 0-.48-.036-.648-.096v1.344c.252.06.576.096.876.096 1.524 0 2.292-.54 2.904-2.256l2.184-6.132h-1.728z"/><use href="#Bd" x="-62.237" y="26.002"/><use href="#Br" x="-77.342" y="13.001"/><use href="#Bl" x="-14.72" y="13.001"/><use href="#Br" x="-67.559" y="13.001"/><use href="#Bj" x="4.617" y="13.001"/><use href="#Bm" x="-1.726" y="13.001"/><use href="#Br" x="-48.391" y="13.001"/><use href="#Bx"/><use href="#Bj" x="33.316" y="13.001"/><use href="#Bi" x="43.681" y="13.001"/><use href="#Br" x="-22.032" y="13.001"/><use href="#Bn" x="31.169" y="13.001"/><use href="#Bg" x="-16.969" y="26.002"/><use href="#Br" x="-0.199" y="13.001"/><use href="#By"/><use href="#Br" x="13.208" y="13.001"/><path d="M155.804 485.033c-.936 0-1.488.396-1.944 1.044-.336-.684-.96-1.044-1.812-1.044-.732 0-1.248.264-1.692.84h-.024v-.696h-1.584v6.096h1.68v-3.132c0-1.14.384-1.788 1.116-1.788.624 0 .96.456.96 1.236v3.684h1.68v-3.132c0-1.152.396-1.788 1.116-1.788.588 0 .96.42.96 1.344v3.576h1.68v-3.744c0-1.656-.828-2.496-2.136-2.496z"/><use href="#Bp" x="56.925" y="13.001"/><path d="M169.044 490.277c-.72 0-1.332-.444-1.38-1.704h4.38c0-.672-.06-1.14-.192-1.56-.384-1.236-1.416-2.028-2.82-2.028-1.908 0-3.024 1.392-3.024 3.192 0 1.944 1.116 3.288 3.036 3.288 1.62 0 2.676-.924 2.916-2.04h-1.716c-.084.492-.528.852-1.2.852zm-.012-4.104c.672 0 1.224.42 1.332 1.344H167.7c.132-.924.648-1.344 1.332-1.344z"/><use href="#Bs" x="37.494" y="13.001"/><path d="M182.92 482.993c-1.704 0-2.916.876-2.916 2.232 0 .888.564 1.572 1.464 1.836v.024c-1.008.264-1.632 1.008-1.632 2.016 0 1.476 1.224 2.364 3.084 2.364s3.084-.888 3.084-2.364c0-1.008-.624-1.752-1.632-2.016v-.024c.9-.264 1.464-.948 1.464-1.836 0-1.356-1.212-2.232-2.916-2.232zm0 4.812c.816 0 1.344.444 1.344 1.116 0 .684-.516 1.116-1.344 1.116s-1.344-.432-1.344-1.116c0-.672.528-1.116 1.344-1.116zm0-3.408c.756 0 1.248.372 1.248.972 0 .66-.48 1.056-1.248 1.056s-1.248-.396-1.248-1.056c0-.6.492-.972 1.248-.972zm5.868 4.872h-1.848v2.004h.612l-.66 2.064h1.008l.888-2.064v-2.004z"/><use href="#Bz"/><use href="#CA"/><path d="M211.144 483.185h-1.572c-.144.972-.756 1.38-2.112 1.38v1.224h1.956v5.484h1.728v-8.088zm2.679 0v1.464h4.368c-1.032 1.296-2.208 3.708-2.808 6.624h1.884c.432-2.52 1.404-4.908 2.592-6.6v-1.488h-6.036zm-166.427 12.35c-2.424 0-3.912 1.704-3.912 4.464 0 2.772 1.476 4.464 3.876 4.464 2.088 0 3.444-1.164 3.612-3.192H49.16c-.132 1.044-.792 1.632-1.8 1.632-1.272 0-2.052-1.092-2.052-2.904 0-1.8.792-2.904 2.088-2.904.996 0 1.656.6 1.764 1.596h1.776c-.084-1.86-1.428-3.156-3.54-3.156z"/><use href="#Bu" x="-107.975" y="25.999"/><path d="M64.37 498.175h-1.752l-.708 2.4-.672 2.64h-.024l-.672-2.64-.708-2.4h-1.752l2.052 6.096h2.184l2.052-6.096zm3.154 5.1c-.72 0-1.332-.444-1.38-1.704h4.38c0-.672-.06-1.14-.192-1.56-.384-1.236-1.416-2.028-2.82-2.028-1.908 0-3.024 1.392-3.024 3.192 0 1.944 1.116 3.288 3.036 3.288 1.62 0 2.676-.924 2.916-2.04h-1.716c-.084.492-.528.852-1.2.852zm-.012-4.104c.672 0 1.224.42 1.332 1.344H66.18c.132-.924.648-1.344 1.332-1.344z"/><use href="#Bs" x="-63.969" y="25.999"/><use href="#Bj" x="15.42" y="25.999"/><use href="#Bs" x="-50.38" y="25.999"/><use href="#Bi" x="30.662" y="25.999"/><use href="#Bn" x="11.845" y="25.999"/><use href="#Bd" x="-6.345" y="39"/><use href="#Bu" x="-52.623" y="25.999"/><use href="#By" x="-20.936" y="12.998"/><path d="M124.376 500.983l2.316-2.808h-1.896l-1.968 2.46h-.024v-4.908h-1.68v8.544h1.68v-2.856h.024l2.04 2.856h2.076l-2.568-3.288z"/><use href="#Bi" x="70.866" y="25.999"/><use href="#Bq" x="12.416" y="25.999"/><use href="#Br" x="12.431" y="25.999"/><use href="#Bg" x="13.681" y="39"/><use href="#Bu" x="-0.722" y="25.999"/><use href="#Bv" x="-4.543" y="25.999"/><path d="M49.532 517.272h1.848l-2.964-8.544H46.04l-2.964 8.544h1.848l.672-2.088h3.276l.66 2.088zm-3.456-3.6l.18-.564.96-3.336h.024l.972 3.336.18.564h-2.316zm7.968 3.744c.78 0 1.392-.372 1.788-.912h.024v.768h1.572v-6.096h-1.68v3.264c0 1.104-.504 1.656-1.2 1.656-.66 0-1.068-.42-1.068-1.344v-3.576H51.8v3.744c0 1.656.876 2.496 2.244 2.496z"/><use href="#Bi" x="-0.301" y="39"/><use href="#Bq" x="-58.724" y="39"/><use href="#Bu" x="-89.911" y="39"/><use href="#Bs" x="-58.437" y="39"/><use href="#Bn" x="-0.611" y="39"/><use href="#Bf" x="-35.308" y="52.001"/><use href="#Bj" x="35.671" y="39"/><path d="M110.579 511.176h-1.932l-1.044 1.788h-.024l-1.044-1.788h-1.932l1.956 2.964-2.088 3.132h1.956l1.152-2.064h.024l1.152 2.064h1.956l-2.088-3.132 1.956-2.964z"/><use href="#Bt" x="-31.682" y="39"/><use href="#Bq" x="-0.412" y="39"/><use href="#Br" x="-0.371" y="39"/><use href="#Bs" x="-0.329" y="39"/><use href="#Bk" x="70.07" y="39"/><use href="#Bx" x="53.323" y="25.999"/><use href="#Bj" x="86.722" y="39"/><use href="#Bw" x="-28.411" y="39"/><use href="#Bc" x="-37.983" y="65.002"/><use href="#Bj" x="-12.14" y="52.001"/><use href="#Bv" x="-113.375" y="52.001"/><use href="#Br" x="-64.371" y="52.001"/><use href="#Bm" x="-4.841" y="52.001"/><use href="#Bn" x="-4.872" y="52.001"/><use href="#Bz" x="-110.19" y="39"/><use href="#Bz" x="-103.181" y="39"/><use href="#CA" x="-103.169" y="39"/></g><defs ><path id="B" d="M32.091 18.924h-1.048c-.096.648-.504.92-1.408.92v.816h1.304v3.656h1.152v-5.392z"/><path id="C" d="M44.157 48.64h2.358v-2.556h-.792l.846-2.628h-1.278l-1.134 2.628v2.556zm3.276 0h2.358v-2.556h-.792l.846-2.628h-1.278l-1.134 2.628v2.556z"/><path id="D" d="M65.327 46.84c-2.862 0-4.68 1.89-4.68 4.86s1.818 4.86 4.68 4.86 4.68-1.89 4.68-4.86-1.818-4.86-4.68-4.86zm0 1.944c1.242 0 2.034 1.134 2.034 2.916s-.792 2.916-2.034 2.916-2.034-1.134-2.034-2.916.792-2.916 2.034-2.916z"/><path id="E" d="M74.975 56.488c1.17 0 2.088-.558 2.682-1.368h.036v1.152h2.358v-9.144h-2.52v4.896c0 1.656-.756 2.484-1.8 2.484-.99 0-1.602-.63-1.602-2.016v-5.364h-2.52v5.616c0 2.484 1.314 3.744 3.366 3.744z"/><path id="F" d="M91.695 46.984c-1.08 0-1.89.45-2.502 1.44h-.036v-1.296h-2.322v9.144h2.52v-4.32c0-1.8.828-2.772 2.376-2.772.252 0 .504.036.792.09v-2.178a3.27 3.27 0 0 0-.828-.108z"/><path id="G" d="M97.474 54.778c-1.08 0-1.998-.666-2.07-2.556h6.57c0-1.008-.09-1.71-.288-2.34-.576-1.854-2.124-3.042-4.23-3.042-2.862 0-4.536 2.088-4.536 4.788 0 2.916 1.674 4.932 4.554 4.932 2.43 0 4.014-1.386 4.374-3.06h-2.574c-.126.738-.792 1.278-1.8 1.278zm-.018-6.156c1.008 0 1.836.63 1.998 2.016h-3.996c.198-1.386.972-2.016 1.998-2.016z"/><path id="H" d="M114.251 46.912c-1.404 0-2.232.594-2.916 1.566-.504-1.026-1.44-1.566-2.718-1.566-1.098 0-1.872.396-2.538 1.26h-.036v-1.044h-2.376v9.144h2.52v-4.698c0-1.71.576-2.682 1.674-2.682.936 0 1.44.684 1.44 1.854v5.526h2.52v-4.698c0-1.728.594-2.682 1.674-2.682.882 0 1.44.63 1.44 2.016v5.364h2.52v-5.616c0-2.484-1.242-3.744-3.204-3.744z"/><path id="I" d="M148.309 43.456h-2.52v12.816h2.448v-1.206h.036c.558.936 1.566 1.44 2.628 1.44 2.304 0 3.798-1.89 3.798-4.806s-1.476-4.806-3.762-4.806c-1.044 0-2.034.468-2.592 1.332h-.036v-4.77zm1.782 5.364c1.206 0 1.98 1.134 1.98 2.88s-.774 2.88-1.98 2.88c-1.134 0-1.908-1.062-1.908-2.88s.774-2.88 1.908-2.88z"/><path id="J" d="M180.962 54.382c-.864 0-1.188-.396-1.188-1.404V49h1.746v-1.872h-1.746v-2.376h-2.52v2.376h-1.476V49h1.476v4.428c0 2.124.918 2.97 3.024 2.97.432 0 .99-.072 1.332-.18v-1.926a2.25 2.25 0 0 1-.648.09z"/><path id="K" d="M185.642 43.456h-2.52v12.816h2.52v-4.896c0-1.674.756-2.484 1.8-2.484.99 0 1.602.63 1.602 2.016v5.364h2.52v-5.616c0-2.484-1.314-3.744-3.366-3.744-.972 0-1.872.396-2.52 1.224h-.036v-4.68z"/><path id="L" d="M197.343 46.84c-2.61 0-3.87 1.404-3.96 3.15h2.448c.036-.864.576-1.386 1.512-1.386.882 0 1.494.468 1.494 1.62v.324l-2.286.252c-2.646.414-3.546 1.422-3.546 2.916 0 1.584 1.17 2.772 3.114 2.772 1.26 0 2.286-.468 2.97-1.44h.036c0 .45.036.846.126 1.224h2.268c-.162-.612-.252-1.35-.252-2.502v-3.312c0-2.394-1.332-3.618-3.924-3.618zm1.494 5.58c0 .828-.09 1.314-.522 1.746-.36.36-.918.522-1.44.522-.882 0-1.35-.468-1.35-1.152 0-.738.432-1.08 1.476-1.26.54-.09 1.296-.162 1.836-.198v.342z"/><path id="M" d="M212.373 53.266h-2.772v3.006h.918l-.99 3.096h1.512l1.332-3.096v-3.006z"/><path id="N" d="M254.966 53.266h2.772v3.006h-2.772z"/><path id="O" d="M260.673 43.456h-2.358v2.556h.792l-.846 2.628h1.278l1.134-2.628v-2.556zm3.276 0h-2.358v2.556h.792l-.846 2.628h1.278l1.134-2.628v-2.556z"/><path id="P" d="M61.454 72.778c-1.079 0-1.996-.666-2.068-2.556h6.564c0-1.008-.09-1.71-.288-2.34-.575-1.854-2.122-3.042-4.226-3.042-2.859 0-4.532 2.088-4.532 4.788 0 2.916 1.672 4.932 4.55 4.932 2.428 0 4.01-1.386 4.37-3.06h-2.572c-.126.738-.791 1.278-1.798 1.278zm-.018-6.156c1.007 0 1.834.63 1.996 2.016h-3.992c.198-1.386.971-2.016 1.996-2.016z"/><path id="Q" d="M71.02 64.84c-2.266 0-3.776 1.17-3.776 2.808 0 2.124 1.636 2.484 3.165 2.88 1.421.378 2.104.54 2.104 1.332 0 .54-.45.882-1.331.882-1.043 0-1.601-.522-1.601-1.44h-2.554c0 2.214 1.565 3.258 4.1 3.258 2.482 0 4.028-1.152 4.028-2.862 0-2.232-1.798-2.646-3.435-3.078-1.385-.36-1.96-.522-1.96-1.17 0-.522.432-.846 1.241-.846.899 0 1.439.396 1.439 1.332h2.41c0-2.034-1.439-3.096-3.83-3.096z"/><path id="R" d="M91.729 61.456h-2.518v12.816h2.518v-4.896c0-1.674.755-2.484 1.798-2.484.989 0 1.601.63 1.601 2.016v5.364h2.518v-5.616c0-2.484-1.313-3.744-3.363-3.744a3.11 3.11 0 0 0-2.518 1.224h-.036v-4.68z"/><path id="S" d="M103.328 64.84c-2.608 0-3.866 1.404-3.956 3.15h2.446c.036-.864.575-1.386 1.511-1.386.881 0 1.493.468 1.493 1.62v.324l-2.284.252c-2.644.414-3.543 1.422-3.543 2.916 0 1.584 1.169 2.772 3.111 2.772 1.259 0 2.284-.468 2.967-1.44h.036c0 .45.036.846.126 1.224h2.266c-.162-.612-.252-1.35-.252-2.502v-3.312c0-2.394-1.331-3.618-3.92-3.618zm1.493 5.58c0 .828-.09 1.314-.522 1.746-.36.36-.917.522-1.439.522-.881 0-1.349-.468-1.349-1.152 0-.738.432-1.08 1.475-1.26.539-.09 1.295-.162 1.834-.198v.342z"/><path id="T" d="M117.642 61.456h-2.518v4.77h-.036c-.557-.864-1.547-1.332-2.59-1.332-2.284 0-3.759 1.89-3.759 4.806s1.493 4.806 3.794 4.806c1.061 0 2.068-.504 2.626-1.44h.036v1.206h2.446V61.456zm-4.298 5.364c1.133 0 1.906 1.062 1.906 2.88s-.773 2.88-1.906 2.88c-1.205 0-1.978-1.134-1.978-2.88s.773-2.88 1.978-2.88z"/><path id="U" d="M127.282 64.84c-2.859 0-4.676 1.89-4.676 4.86s1.816 4.86 4.676 4.86 4.676-1.89 4.676-4.86-1.816-4.86-4.676-4.86zm0 1.944c1.241 0 2.032 1.134 2.032 2.916s-.791 2.916-2.032 2.916-2.032-1.134-2.032-2.916.791-2.916 2.032-2.916z"/><path id="V" d="M138.629 64.912c-1.169 0-2.086.558-2.68 1.368h-.036v-1.152h-2.356v9.144h2.518v-4.896c0-1.656.755-2.484 1.798-2.484.989 0 1.601.63 1.601 2.016v5.364h2.518v-5.616c0-2.484-1.313-3.744-3.363-3.744z"/><path id="W" d="M33.276 82.876c-2.304 0-3.78 1.8-3.78 4.644s1.458 4.644 3.744 4.644c1.098 0 1.872-.414 2.556-1.368h.036v.81c0 1.782-.702 2.358-1.836 2.358-.954 0-1.53-.414-1.584-1.116h-2.52c.144 1.8 1.53 2.916 4.05 2.916 2.628 0 4.338-1.296 4.338-4.068v-8.568h-2.376v1.224h-.036c-.702-1.044-1.476-1.476-2.592-1.476zm.684 2.07c1.188 0 1.944 1.026 1.944 2.574s-.756 2.574-1.944 2.574c-1.116 0-1.836-.99-1.836-2.574s.72-2.574 1.836-2.574z"/><path id="X" d="M54.962 90.382c-.864 0-1.188-.396-1.188-1.404V85h1.746v-1.872h-1.746v-2.376h-2.52v2.376h-1.476V85h1.476v4.428c0 2.124.918 2.97 3.024 2.97.432 0 .99-.072 1.332-.18v-1.926a2.25 2.25 0 0 1-.648.09z"/><path id="Y" d="M132.062 82.84c-2.79 0-4.608 1.908-4.608 4.86s1.818 4.86 4.608 4.86c2.466 0 4.122-1.548 4.32-3.87h-2.646c-.072 1.188-.72 1.926-1.692 1.926-1.224 0-1.962-1.116-1.962-2.916s.738-2.916 1.962-2.916c.972 0 1.62.666 1.71 1.746h2.628c-.198-2.142-1.854-3.69-4.32-3.69z"/><path id="Z" d="M166.995 82.84c-2.268 0-3.78 1.17-3.78 2.808 0 2.124 1.638 2.484 3.168 2.88 1.422.378 2.106.54 2.106 1.332 0 .54-.45.882-1.332.882-1.044 0-1.602-.522-1.602-1.44h-2.556c0 2.214 1.566 3.258 4.104 3.258 2.484 0 4.032-1.152 4.032-2.862 0-2.232-1.8-2.646-3.438-3.078-1.386-.36-1.962-.522-1.962-1.17 0-.522.432-.846 1.242-.846.9 0 1.44.396 1.44 1.332h2.412c0-2.034-1.44-3.096-3.834-3.096z"/><path id="a" d="M191.462 82.912c-1.17 0-2.088.558-2.682 1.368h-.036v-1.152h-2.358v9.144h2.52v-4.896c0-1.656.756-2.484 1.8-2.484.99 0 1.602.63 1.602 2.016v5.364h2.52v-5.616c0-2.484-1.314-3.744-3.366-3.744z"/><path id="b" d="M63.348 97.456h-2.482v12.816h2.482v-4.896c0-1.674.745-2.484 1.773-2.484.975 0 1.578.63 1.578 2.016v5.364h2.482v-5.616c0-2.484-1.294-3.744-3.315-3.744a3.05 3.05 0 0 0-2.482 1.224h-.035v-4.68z"/><path id="c" d="M75.076 108.778c-1.064 0-1.968-.666-2.039-2.556h6.471c0-1.008-.089-1.71-.284-2.34-.567-1.854-2.092-3.042-4.166-3.042-2.819 0-4.467 2.088-4.467 4.788 0 2.916 1.649 4.932 4.485 4.932 2.393 0 3.953-1.386 4.308-3.06h-2.535c-.124.738-.78 1.278-1.773 1.278zm-.018-6.156c.993 0 1.808.63 1.968 2.016h-3.936c.195-1.386.957-2.016 1.968-2.016z"/><path id="d" d="M86.007 100.912c-1.152 0-2.056.558-2.641 1.368h-.035v-1.152h-2.322v9.144h2.482v-4.896c0-1.656.745-2.484 1.773-2.484.975 0 1.578.63 1.578 2.016v5.364h2.482v-5.616c0-2.484-1.294-3.744-3.315-3.744z"/><path id="e" d="M121.74 100.84c-2.748 0-4.538 1.908-4.538 4.86s1.791 4.86 4.538 4.86c2.429 0 4.06-1.548 4.255-3.87h-2.606c-.071 1.188-.709 1.926-1.666 1.926-1.205 0-1.932-1.116-1.932-2.916s.727-2.916 1.932-2.916c.957 0 1.596.666 1.684 1.746h2.588c-.195-2.142-1.826-3.69-4.255-3.69z"/><path id="f" d="M130.951 100.84c-2.571 0-3.811 1.404-3.9 3.15h2.411c.035-.864.567-1.386 1.489-1.386.869 0 1.471.468 1.471 1.62v.324l-2.251.252c-2.606.414-3.492 1.422-3.492 2.916 0 1.584 1.152 2.772 3.067 2.772 1.241 0 2.251-.468 2.925-1.44h.035c0 .45.035.846.124 1.224h2.234c-.16-.612-.248-1.35-.248-2.502v-3.312c0-2.394-1.312-3.618-3.865-3.618zm1.471 5.58c0 .828-.089 1.314-.514 1.746-.355.36-.904.522-1.418.522-.869 0-1.33-.468-1.33-1.152 0-.738.425-1.08 1.454-1.26.532-.09 1.276-.162 1.808-.198v.342z"/><path id="g" d="M167.917 97.456h-2.482v12.816h2.411v-1.206h.035c.55.936 1.542 1.44 2.588 1.44 2.269 0 3.741-1.89 3.741-4.806s-1.454-4.806-3.705-4.806c-1.028 0-2.003.468-2.553 1.332h-.035v-4.77zm1.755 5.364c1.188 0 1.95 1.134 1.95 2.88s-.762 2.88-1.95 2.88c-1.117 0-1.879-1.062-1.879-2.88s.762-2.88 1.879-2.88z"/><path id="h" d="M211.228 100.84c-2.819 0-4.609 1.89-4.609 4.86s1.791 4.86 4.609 4.86 4.609-1.89 4.609-4.86-1.791-4.86-4.609-4.86zm0 1.944c1.223 0 2.003 1.134 2.003 2.916s-.78 2.916-2.003 2.916-2.003-1.134-2.003-2.916.78-2.916 2.003-2.916z"/><path id="i" d="M220.564 110.488c1.152 0 2.056-.558 2.641-1.368h.035v1.152h2.322v-9.144h-2.482v4.896c0 1.656-.745 2.484-1.773 2.484-.975 0-1.578-.63-1.578-2.016v-5.364h-2.482v5.616c0 2.484 1.294 3.744 3.315 3.744z"/><path id="j" d="M231.689 108.382c-.851 0-1.17-.396-1.17-1.404V103h1.72v-1.872h-1.72v-2.376h-2.482v2.376h-1.454V103h1.454v4.428c0 2.124.904 2.97 2.978 2.97.425 0 .975-.072 1.312-.18v-1.926c-.16.054-.408.09-.638.09z"/><path id="k" d="M49.664 119.128h-2.494l-.682 3.528-.664 3.978h-.036l-.772-3.942-.808-3.564h-3.445l-.808 3.564-.772 3.942h-.036l-.664-3.978-.682-3.528h-2.494l2.01 9.144h3.589l.808-3.6.754-3.906h.036l.754 3.906.808 3.6h3.589l2.01-9.144z"/><path id="l" d="M54.704 118.84c-2.853 0-4.666 1.89-4.666 4.86s1.812 4.86 4.666 4.86 4.666-1.89 4.666-4.86-1.812-4.86-4.666-4.86zm0 1.944c1.238 0 2.028 1.134 2.028 2.916s-.79 2.916-2.028 2.916-2.028-1.134-2.028-2.916.79-2.916 2.028-2.916z"/><path id="m" d="M78.297 118.84c-2.602 0-3.858 1.404-3.948 3.15h2.441c.036-.864.574-1.386 1.507-1.386.879 0 1.489.468 1.489 1.62v.324l-2.279.252c-2.638.414-3.535 1.422-3.535 2.916 0 1.584 1.166 2.772 3.105 2.772 1.256 0 2.279-.468 2.961-1.44h.036c0 .45.036.846.126 1.224h2.261c-.162-.612-.251-1.35-.251-2.502v-3.312c0-2.394-1.328-3.618-3.912-3.618zm1.489 5.58c0 .828-.09 1.314-.52 1.746-.359.36-.915.522-1.436.522-.879 0-1.346-.468-1.346-1.152 0-.738.431-1.08 1.472-1.26.538-.09 1.292-.162 1.83-.198v.342z"/><path id="n" d="M89.367 118.912a3.24 3.24 0 0 0-2.674 1.368h-.036v-1.152h-2.351v9.144h2.512v-4.896c0-1.656.754-2.484 1.795-2.484.987 0 1.597.63 1.597 2.016v5.364h2.512v-5.616c0-2.484-1.31-3.744-3.356-3.744z"/><path id="o" d="M98.231 118.84c-2.261 0-3.769 1.17-3.769 2.808 0 2.124 1.633 2.484 3.158 2.88 1.418.378 2.1.54 2.1 1.332 0 .54-.449.882-1.328.882-1.041 0-1.597-.522-1.597-1.44h-2.548c0 2.214 1.561 3.258 4.092 3.258 2.476 0 4.02-1.152 4.02-2.862 0-2.232-1.795-2.646-3.428-3.078-1.382-.36-1.956-.522-1.956-1.17 0-.522.431-.846 1.238-.846.897 0 1.436.396 1.436 1.332h2.405c0-2.034-1.436-3.096-3.822-3.096z"/><path id="p" d="M135.314 115.456h-2.512v4.77h-.036c-.556-.864-1.543-1.332-2.584-1.332-2.279 0-3.751 1.89-3.751 4.806s1.489 4.806 3.786 4.806c1.059 0 2.064-.504 2.62-1.44h.036v1.206h2.441v-12.816zm-4.289 5.364c1.131 0 1.902 1.062 1.902 2.88s-.772 2.88-1.902 2.88c-1.202 0-1.974-1.134-1.974-2.88s.772-2.88 1.974-2.88z"/><path id="q" d="M143.203 115.456h-2.512v12.816h2.512v-4.896c0-1.674.754-2.484 1.795-2.484.987 0 1.597.63 1.597 2.016v5.364h2.512v-5.616c0-2.484-1.31-3.744-3.356-3.744-.969 0-1.866.396-2.512 1.224h-.036v-4.68z"/><path id="r" d="M155.171 126.778c-1.077 0-1.992-.666-2.064-2.556h6.55c0-1.008-.09-1.71-.287-2.34-.574-1.854-2.118-3.042-4.217-3.042-2.853 0-4.522 2.088-4.522 4.788 0 2.916 1.669 4.932 4.54 4.932 2.423 0 4.002-1.386 4.361-3.06h-2.566c-.126.738-.79 1.278-1.795 1.278zm-.018-6.156c1.005 0 1.83.63 1.992 2.016h-3.984c.197-1.386.969-2.016 1.992-2.016z"/><path id="s" d="M34.07 136.84c-2.805 0-4.586 1.89-4.586 4.86s1.782 4.86 4.586 4.86 4.586-1.89 4.586-4.86-1.782-4.86-4.586-4.86zm0 1.944c1.217 0 1.993 1.134 1.993 2.916s-.776 2.916-1.993 2.916-1.993-1.134-1.993-2.916.776-2.916 1.993-2.916z"/><path id="t" d="M52.539 144.382c-.847 0-1.164-.396-1.164-1.404V139h1.711v-1.872h-1.711v-2.376h-2.47v2.376h-1.446V139h1.446v4.428c0 2.124.9 2.97 2.964 2.97.423 0 .97-.072 1.305-.18v-1.926c-.159.054-.406.09-.635.09z"/><path id="u" d="M56.849 133.456h-2.47v12.816h2.47v-4.896c0-1.674.741-2.484 1.764-2.484.97 0 1.57.63 1.57 2.016v5.364h2.47v-5.616c0-2.484-1.288-3.744-3.299-3.744a3.03 3.03 0 0 0-2.47 1.224h-.035v-4.68z"/><path id="v" d="M68.408 144.778c-1.058 0-1.958-.666-2.029-2.556h6.439c0-1.008-.088-1.71-.282-2.34-.564-1.854-2.082-3.042-4.145-3.042-2.805 0-4.445 2.088-4.445 4.788 0 2.916 1.641 4.932 4.463 4.932 2.381 0 3.934-1.386 4.287-3.06h-2.523c-.123.738-.776 1.278-1.764 1.278zm-.018-6.156c.988 0 1.799.63 1.958 2.016h-3.916c.194-1.386.953-2.016 1.958-2.016z"/><path id="w" d="M132.3 136.912c-1.376 0-2.187.594-2.858 1.566-.494-1.026-1.411-1.566-2.664-1.566-1.076 0-1.835.396-2.487 1.26h-.035v-1.044h-2.328v9.144h2.47v-4.698c0-1.71.564-2.682 1.641-2.682.917 0 1.411.684 1.411 1.854v5.526h2.47v-4.698c0-1.728.582-2.682 1.641-2.682.864 0 1.411.63 1.411 2.016v5.364h2.47v-5.616c0-2.484-1.217-3.744-3.14-3.744z"/><path id="x" d="M140.826 136.84c-2.558 0-3.793 1.404-3.881 3.15h2.399c.035-.864.564-1.386 1.482-1.386.864 0 1.464.468 1.464 1.62v.324l-2.24.252c-2.593.414-3.475 1.422-3.475 2.916 0 1.584 1.147 2.772 3.052 2.772 1.235 0 2.24-.468 2.911-1.44h.035c0 .45.035.846.123 1.224h2.223c-.159-.612-.247-1.35-.247-2.502v-3.312c0-2.394-1.305-3.618-3.846-3.618zm1.464 5.58c0 .828-.088 1.314-.512 1.746-.353.36-.9.522-1.411.522-.864 0-1.323-.468-1.323-1.152 0-.738.423-1.08 1.446-1.26.529-.09 1.27-.162 1.799-.198v.342z"/><path id="y" d="M149.863 136.84c-2.223 0-3.704 1.17-3.704 2.808 0 2.124 1.605 2.484 3.105 2.88 1.394.378 2.064.54 2.064 1.332 0 .54-.441.882-1.305.882-1.023 0-1.57-.522-1.57-1.44h-2.505c0 2.214 1.535 3.258 4.022 3.258 2.434 0 3.951-1.152 3.951-2.862 0-2.232-1.764-2.646-3.369-3.078-1.358-.36-1.923-.522-1.923-1.17 0-.522.423-.846 1.217-.846.882 0 1.411.396 1.411 1.332h2.364c0-2.034-1.411-3.096-3.757-3.096z"/><path id="z" d="M183.488 133.456h-2.47v4.77h-.035c-.547-.864-1.517-1.332-2.54-1.332-2.24 0-3.687 1.89-3.687 4.806s1.464 4.806 3.722 4.806c1.041 0 2.029-.504 2.575-1.44h.035v1.206h2.399v-12.816zm-4.216 5.364c1.111 0 1.87 1.062 1.87 2.88s-.759 2.88-1.87 2.88c-1.182 0-1.94-1.134-1.94-2.88s.759-2.88 1.94-2.88z"/><path id="AA" d="M233.571 146.488c1.147 0 2.046-.558 2.628-1.368h.035v1.152h2.311v-9.144h-2.47v4.896c0 1.656-.741 2.484-1.764 2.484-.97 0-1.57-.63-1.57-2.016v-5.364h-2.47v5.616c0 2.484 1.288 3.744 3.299 3.744z"/><path id="AB" d="M258.366 137.128h-2.47v9.144h2.47v-9.144zm0-3.672h-2.47v2.16h2.47v-2.16z"/><path id="AC" d="M265.306 136.912c-1.147 0-2.046.558-2.628 1.368h-.035v-1.152h-2.311v9.144h2.47v-4.896c0-1.656.741-2.484 1.764-2.484.97 0 1.57.63 1.57 2.016v5.364h2.47v-5.616c0-2.484-1.288-3.744-3.299-3.744z"/><path id="AD" d="M346.397 136.984c-1.058 0-1.852.45-2.452 1.44h-.035v-1.296h-2.276v9.144h2.47v-4.32c0-1.8.811-2.772 2.328-2.772.247 0 .494.036.776.09v-2.178c-.247-.072-.564-.108-.811-.108z"/><path id="AE" d="M355.669 136.876c-2.258 0-3.704 1.8-3.704 4.644s1.429 4.644 3.669 4.644c1.076 0 1.835-.414 2.505-1.368h.035v.81c0 1.782-.688 2.358-1.799 2.358-.935 0-1.499-.414-1.552-1.116h-2.47c.141 1.8 1.499 2.916 3.969 2.916 2.575 0 4.251-1.296 4.251-4.068v-8.568h-2.328v1.224h-.035c-.688-1.044-1.446-1.476-2.54-1.476zm.67 2.07c1.164 0 1.905 1.026 1.905 2.574s-.741 2.574-1.905 2.574c-1.094 0-1.799-.99-1.799-2.574s.706-2.574 1.799-2.574z"/><path id="AF" d="M32.623 151.456h-2.529v12.816h2.529v-4.896c0-1.674.759-2.484 1.806-2.484.993 0 1.608.63 1.608 2.016v5.364h2.529v-5.616c0-2.484-1.319-3.744-3.378-3.744a3.13 3.13 0 0 0-2.529 1.224h-.036v-4.68z"/><path id="AG" d="M44.291 154.84c-2.619 0-3.884 1.404-3.974 3.15h2.457c.036-.864.578-1.386 1.517-1.386.885 0 1.499.468 1.499 1.62v.324l-2.294.252c-2.655.414-3.558 1.422-3.558 2.916 0 1.584 1.174 2.772 3.125 2.772 1.264 0 2.294-.468 2.98-1.44h.036c0 .45.036.846.126 1.224h2.276c-.163-.612-.253-1.35-.253-2.502v-3.312c0-2.394-1.337-3.618-3.938-3.618zm1.499 5.58c0 .828-.09 1.314-.524 1.746-.361.36-.921.522-1.445.522-.885 0-1.355-.468-1.355-1.152 0-.738.434-1.08 1.481-1.26.542-.09 1.301-.162 1.842-.198v.342z"/><path id="AH" d="M55.436 154.912c-1.174 0-2.095.558-2.691 1.368h-.036v-1.152h-2.366v9.144h2.529v-4.896c0-1.656.759-2.484 1.806-2.484.993 0 1.608.63 1.608 2.016v5.364h2.529v-5.616c0-2.484-1.319-3.744-3.378-3.744z"/><path id="AI" d="M88.754 154.876c-2.312 0-3.793 1.8-3.793 4.644s1.463 4.644 3.757 4.644c1.102 0 1.879-.414 2.565-1.368h.036v.81c0 1.782-.704 2.358-1.842 2.358-.957 0-1.535-.414-1.59-1.116h-2.529c.145 1.8 1.535 2.916 4.064 2.916 2.637 0 4.353-1.296 4.353-4.068v-8.568h-2.384v1.224h-.036c-.704-1.044-1.481-1.476-2.601-1.476zm.686 2.07c1.192 0 1.951 1.026 1.951 2.574s-.759 2.574-1.951 2.574c-1.12 0-1.842-.99-1.842-2.574s.723-2.574 1.842-2.574z"/><path id="AJ" d="M108.17 155.128h-2.529v9.144h2.529v-9.144zm0-3.672h-2.529v2.16h2.529v-2.16z"/><path id="AK" d="M124.408 154.84c-2.276 0-3.793 1.17-3.793 2.808 0 2.124 1.644 2.484 3.179 2.88 1.427.378 2.113.54 2.113 1.332 0 .54-.452.882-1.337.882-1.048 0-1.608-.522-1.608-1.44h-2.565c0 2.214 1.571 3.258 4.118 3.258 2.493 0 4.046-1.152 4.046-2.862 0-2.232-1.806-2.646-3.45-3.078-1.391-.36-1.969-.522-1.969-1.17 0-.522.434-.846 1.246-.846.903 0 1.445.396 1.445 1.332h2.42c0-2.034-1.445-3.096-3.847-3.096z"/><path id="AL" d="M134.341 162.382c-.867 0-1.192-.396-1.192-1.404V157h1.752v-1.872h-1.752v-2.376h-2.529v2.376h-1.481V157h1.481v4.428c0 2.124.921 2.97 3.035 2.97.434 0 .993-.072 1.337-.18v-1.926c-.163.054-.415.09-.65.09z"/><path id="AM" d="M179.072 162.778c-1.084 0-2.005-.666-2.077-2.556h6.593c0-1.008-.09-1.71-.289-2.34-.578-1.854-2.131-3.042-4.245-3.042-2.872 0-4.552 2.088-4.552 4.788 0 2.916 1.68 4.932 4.57 4.932 2.439 0 4.028-1.386 4.389-3.06h-2.583c-.126.738-.795 1.278-1.806 1.278zm-.018-6.156c1.012 0 1.842.63 2.005 2.016h-4.01c.199-1.386.975-2.016 2.005-2.016z"/><path id="AN" d="M228.827 151.456h-2.529v4.77h-.036c-.56-.864-1.553-1.332-2.601-1.332-2.294 0-3.775 1.89-3.775 4.806s1.499 4.806 3.811 4.806c1.066 0 2.077-.504 2.637-1.44h.036v1.206h2.457v-12.816zm-4.317 5.364c1.138 0 1.915 1.062 1.915 2.88s-.777 2.88-1.915 2.88c-1.21 0-1.987-1.134-1.987-2.88s.777-2.88 1.987-2.88z"/><path id="AO" d="M64.623 172.84c-2.783 0-4.597 1.908-4.597 4.86s1.813 4.86 4.597 4.86c2.46 0 4.112-1.548 4.309-3.87h-2.639c-.072 1.188-.718 1.926-1.688 1.926-1.221 0-1.957-1.116-1.957-2.916s.736-2.916 1.957-2.916c.97 0 1.616.666 1.706 1.746h2.621c-.198-2.142-1.849-3.69-4.309-3.69z"/><path id="AP" d="M74.626 172.84c-2.855 0-4.668 1.89-4.668 4.86s1.813 4.86 4.668 4.86 4.668-1.89 4.668-4.86-1.813-4.86-4.668-4.86zm0 1.944c1.239 0 2.029 1.134 2.029 2.916s-.79 2.916-2.029 2.916-2.029-1.134-2.029-2.916.79-2.916 2.029-2.916z"/><path id="AQ" d="M85.725 172.984c-1.077 0-1.885.45-2.496 1.44h-.036v-1.296h-2.316v9.144h2.514v-4.32c0-1.8.826-2.772 2.37-2.772.251 0 .503.036.79.09v-2.178c-.251-.072-.575-.108-.826-.108z"/><path id="AR" d="M140.246 169.456h-2.514v12.816h2.514v-4.896c0-1.674.754-2.484 1.796-2.484.988 0 1.598.63 1.598 2.016v5.364h2.514v-5.616c0-2.484-1.311-3.744-3.358-3.744-.97 0-1.867.396-2.514 1.224h-.036v-4.68z"/><path id="AS" d="M150.751 173.128h-2.514v9.144h2.514v-9.144zm0-3.672h-2.514v2.16h2.514v-2.16z"/><path id="AT" d="M156.32 172.84c-2.262 0-3.771 1.17-3.771 2.808 0 2.124 1.634 2.484 3.16 2.88 1.418.378 2.101.54 2.101 1.332 0 .54-.449.882-1.329.882-1.041 0-1.598-.522-1.598-1.44h-2.55c0 2.214 1.562 3.258 4.094 3.258 2.478 0 4.022-1.152 4.022-2.862 0-2.232-1.796-2.646-3.429-3.078-1.383-.36-1.957-.522-1.957-1.17 0-.522.431-.846 1.239-.846.898 0 1.436.396 1.436 1.332h2.406c0-2.034-1.436-3.096-3.824-3.096z"/><path id="AU" d="M226.338 172.912c-1.167 0-2.083.558-2.675 1.368h-.036v-1.152h-2.352v9.144h2.514v-4.896c0-1.656.754-2.484 1.796-2.484.988 0 1.598.63 1.598 2.016v5.364h2.514v-5.616c0-2.484-1.311-3.744-3.358-3.744z"/><path id="AV" d="M50.124 190.84c-2.866 0-4.687 1.89-4.687 4.86s1.821 4.86 4.687 4.86 4.687-1.89 4.687-4.86-1.821-4.86-4.687-4.86zm0 1.944c1.244 0 2.037 1.134 2.037 2.916s-.793 2.916-2.037 2.916-2.037-1.134-2.037-2.916.793-2.916 2.037-2.916z"/><path id="AW" d="M60.477 198.382c-.865 0-1.19-.396-1.19-1.404V193h1.748v-1.872h-1.748v-2.376h-2.524v2.376h-1.478V193h1.478v4.428c0 2.124.919 2.97 3.028 2.97.433 0 .991-.072 1.334-.18v-1.926c-.162.054-.415.09-.649.09z"/><path id="AX" d="M65.098 191.128h-2.524v9.144h2.524v-9.144zm0-3.672h-2.524v2.16h2.524v-2.16z"/><path id="AY" d="M82.812 190.912c-1.172 0-2.091.558-2.686 1.368h-.036v-1.152h-2.361v9.144h2.524v-4.896c0-1.656.757-2.484 1.803-2.484.991 0 1.604.63 1.604 2.016v5.364h2.524v-5.616c0-2.484-1.316-3.744-3.371-3.744z"/><path id="AZ" d="M119.971 187.456h-2.524v12.816h2.524v-4.896c0-1.674.757-2.484 1.803-2.484.991 0 1.604.63 1.604 2.016v5.364h2.524v-5.616c0-2.484-1.316-3.744-3.371-3.744a3.12 3.12 0 0 0-2.524 1.224h-.036v-4.68z"/><path id="Aa" d="M136.189 190.84c-2.271 0-3.785 1.17-3.785 2.808 0 2.124 1.64 2.484 3.172 2.88 1.424.378 2.109.54 2.109 1.332 0 .54-.451.882-1.334.882-1.045 0-1.604-.522-1.604-1.44h-2.56c0 2.214 1.568 3.258 4.11 3.258 2.487 0 4.038-1.152 4.038-2.862 0-2.232-1.803-2.646-3.443-3.078-1.388-.36-1.965-.522-1.965-1.17 0-.522.433-.846 1.244-.846.901 0 1.442.396 1.442 1.332h2.415c0-2.034-1.442-3.096-3.839-3.096z"/><path id="Ab" d="M196.208 190.84c-2.614 0-3.875 1.404-3.966 3.15h2.451c.036-.864.577-1.386 1.514-1.386.883 0 1.496.468 1.496 1.62v.324l-2.289.252c-2.65.414-3.551 1.422-3.551 2.916 0 1.584 1.172 2.772 3.118 2.772 1.262 0 2.289-.468 2.974-1.44h.036c0 .45.036.846.126 1.224h2.271c-.162-.612-.252-1.35-.252-2.502v-3.312c0-2.394-1.334-3.618-3.929-3.618zm1.496 5.58c0 .828-.09 1.314-.523 1.746-.361.36-.919.522-1.442.522-.883 0-1.352-.468-1.352-1.152 0-.738.433-1.08 1.478-1.26a21.24 21.24 0 0 1 1.839-.198v.342z"/><path id="Ac" d="M44.039 218.488a3.31 3.31 0 0 0 2.718-1.368h.036v1.152h2.39v-9.144h-2.554v4.896c0 1.656-.766 2.484-1.824 2.484-1.003 0-1.623-.63-1.623-2.016v-5.364h-2.554v5.616c0 2.484 1.332 3.744 3.411 3.744z"/><path id="Ad" d="M84.016 209.128h-2.554v9.144h2.554v-9.144zm0-3.672h-2.554v2.16h2.554v-2.16z"/><path id="Ae" d="M90.487 216.382c-.876 0-1.204-.396-1.204-1.404V211h1.769v-1.872h-1.769v-2.376h-2.554v2.376h-1.496V211h1.496v4.428c0 2.124.93 2.97 3.065 2.97.438 0 1.003-.072 1.35-.18v-1.926a2.31 2.31 0 0 1-.657.09z"/><path id="Af" d="M95.226 205.456h-2.554v12.816h2.554v-4.896c0-1.674.766-2.484 1.824-2.484 1.003 0 1.623.63 1.623 2.016v5.364h2.554v-5.616c0-2.484-1.332-3.744-3.411-3.744-.985 0-1.897.396-2.554 1.224h-.036v-4.68z"/><path id="Ag" d="M111.661 208.84c-2.645 0-3.922 1.404-4.013 3.15h2.481c.036-.864.584-1.386 1.532-1.386.894 0 1.514.468 1.514 1.62v.324l-2.317.252c-2.681.414-3.594 1.422-3.594 2.916 0 1.584 1.186 2.772 3.156 2.772 1.277 0 2.317-.468 3.01-1.44h.036c0 .45.036.846.128 1.224h2.298c-.164-.612-.255-1.35-.255-2.502v-3.312c0-2.394-1.35-3.618-3.977-3.618zm1.514 5.58c0 .828-.091 1.314-.529 1.746-.365.36-.93.522-1.459.522-.894 0-1.368-.468-1.368-1.152 0-.738.438-1.08 1.496-1.26.547-.09 1.313-.162 1.861-.198v.342z"/><path id="Ah" d="M173.285 205.456h-2.554v4.77h-.036c-.565-.864-1.569-1.332-2.627-1.332-2.317 0-3.812 1.89-3.812 4.806s1.514 4.806 3.849 4.806c1.076 0 2.098-.504 2.663-1.44h.036v1.206h2.481v-12.816zm-4.36 5.364c1.149 0 1.934 1.062 1.934 2.88s-.784 2.88-1.934 2.88c-1.222 0-2.007-1.134-2.007-2.88s.784-2.88 2.007-2.88z"/><path id="Ai" d="M195.563 216.778c-1.094 0-2.025-.666-2.098-2.556h6.658c0-1.008-.091-1.71-.292-2.34-.584-1.854-2.152-3.042-4.287-3.042-2.9 0-4.597 2.088-4.597 4.788 0 2.916 1.696 4.932 4.615 4.932 2.463 0 4.068-1.386 4.433-3.06h-2.608c-.128.738-.803 1.278-1.824 1.278zm-.018-6.156c1.022 0 1.861.63 2.025 2.016h-4.05c.201-1.386.985-2.016 2.025-2.016z"/><path id="Aj" d="M232.219 208.84c-2.9 0-4.743 1.89-4.743 4.86s1.842 4.86 4.743 4.86 4.743-1.89 4.743-4.86-1.842-4.86-4.743-4.86zm0 1.944c1.259 0 2.061 1.134 2.061 2.916s-.803 2.916-2.061 2.916-2.061-1.134-2.061-2.916.803-2.916 2.061-2.916z"/><path id="Ak" d="M252.002 205.456h-2.554v12.816h2.481v-1.206h.036c.565.936 1.587 1.44 2.663 1.44 2.335 0 3.849-1.89 3.849-4.806s-1.496-4.806-3.812-4.806c-1.058 0-2.061.468-2.627 1.332h-.036v-4.77zm1.806 5.364c1.222 0 2.007 1.134 2.007 2.88s-.784 2.88-2.007 2.88c-1.149 0-1.934-1.062-1.934-2.88s.784-2.88 1.934-2.88z"/><path id="Al" d="M305.397 208.984c-1.094 0-1.915.45-2.536 1.44h-.036v-1.296h-2.353v9.144h2.554v-4.32c0-1.8.839-2.772 2.408-2.772.255 0 .511.036.803.09v-2.178c-.255-.072-.584-.108-.839-.108z"/><path id="Am" d="M73.716 223.456h2.52v12.816h-2.52z"/><path id="An" d="M104.805 227.128h-2.502l-.684 3.528-.666 3.978h-.036l-.774-3.942-.81-3.564h-3.456l-.81 3.564-.774 3.942h-.036l-.666-3.978-.684-3.528h-2.502l2.016 9.144h3.6l.81-3.6.756-3.906h.036l.756 3.906.81 3.6h3.6l2.016-9.144z"/><path id="Ao" d="M150.347 234.382c-.864 0-1.188-.396-1.188-1.404V229h1.746v-1.872h-1.746v-2.376h-2.52v2.376h-1.476V229h1.476v4.428c0 2.124.918 2.97 3.024 2.97.432 0 .99-.072 1.332-.18v-1.926a2.25 2.25 0 0 1-.648.09z"/><path id="Ap" d="M192.789 223.456h-2.52v4.77h-.036c-.558-.864-1.548-1.332-2.592-1.332-2.286 0-3.762 1.89-3.762 4.806s1.494 4.806 3.798 4.806c1.062 0 2.07-.504 2.628-1.44h.036v1.206h2.448v-12.816zm-4.302 5.364c1.134 0 1.908 1.062 1.908 2.88s-.774 2.88-1.908 2.88c-1.206 0-1.98-1.134-1.98-2.88s.774-2.88 1.98-2.88z"/><path id="Aq" d="M215.21 227.128h-2.52v9.144h2.52v-9.144zm0-3.672h-2.52v2.16h2.52v-2.16z"/><path id="Ar" d="M66.083 244.84c-2.919 0-4.774 1.89-4.774 4.86s1.854 4.86 4.774 4.86 4.774-1.89 4.774-4.86-1.854-4.86-4.774-4.86zm0 1.944c1.267 0 2.075 1.134 2.075 2.916s-.808 2.916-2.075 2.916-2.075-1.134-2.075-2.916.808-2.916 2.075-2.916z"/><path id="As" d="M116.479 245.128l-1.01 3.06-1.083 3.834h-.037l-1.028-3.834-.955-3.06h-2.754l2.644 7.434c.367 1.026.441 1.314.441 1.656 0 .9-.679 1.476-1.707 1.476-.386 0-.734-.054-.991-.144v2.016c.386.09.881.144 1.34.144 2.332 0 3.507-.81 4.443-3.384l3.342-9.198h-2.644z"/><path id="At" d="M123.396 244.84c-2.313 0-3.856 1.17-3.856 2.808 0 2.124 1.671 2.484 3.231 2.88 1.45.378 2.148.54 2.148 1.332 0 .54-.459.882-1.359.882-1.065 0-1.634-.522-1.634-1.44h-2.607c0 2.214 1.597 3.258 4.186 3.258 2.534 0 4.113-1.152 4.113-2.862 0-2.232-1.836-2.646-3.507-3.078-1.414-.36-2.001-.522-2.001-1.17 0-.522.441-.846 1.267-.846.918 0 1.469.396 1.469 1.332h2.46c0-2.034-1.469-3.096-3.911-3.096z"/><path id="Au" d="M146.555 245.128h-2.57v9.144h2.57v-9.144zm0-3.672h-2.57v2.16h2.57v-2.16z"/><path id="Av" d="M153.21 252.382c-.881 0-1.212-.396-1.212-1.404V247h1.781v-1.872h-1.781v-2.376h-2.57v2.376h-1.506V247h1.506v4.428c0 2.124.936 2.97 3.084 2.97a5.27 5.27 0 0 0 1.359-.18v-1.926c-.165.054-.422.09-.661.09z"/><path id="Aw" d="M228.354 244.84c-2.662 0-3.947 1.404-4.039 3.15h2.497c.037-.864.588-1.386 1.542-1.386.9 0 1.524.468 1.524 1.62v.324l-2.332.252c-2.699.414-3.617 1.422-3.617 2.916 0 1.584 1.193 2.772 3.176 2.772 1.285 0 2.332-.468 3.029-1.44h.037a5.12 5.12 0 0 0 .129 1.224h2.313c-.165-.612-.257-1.35-.257-2.502v-3.312c0-2.394-1.359-3.618-4.002-3.618zm1.524 5.58c0 .828-.092 1.314-.532 1.746-.367.36-.936.522-1.469.522-.9 0-1.377-.468-1.377-1.152 0-.738.441-1.08 1.506-1.26.551-.09 1.322-.162 1.873-.198v.342z"/><path id="Ax" d="M250.385 244.912c-1.432 0-2.277.594-2.974 1.566-.514-1.026-1.469-1.566-2.772-1.566-1.12 0-1.909.396-2.589 1.26h-.037v-1.044h-2.424v9.144h2.57v-4.698c0-1.71.588-2.682 1.707-2.682.955 0 1.469.684 1.469 1.854v5.526h2.57v-4.698c0-1.728.606-2.682 1.707-2.682.9 0 1.469.63 1.469 2.016v5.364h2.57v-5.616c0-2.484-1.267-3.744-3.268-3.744z"/><path id="Ay" d="M264.616 261.184a1.62 1.62 0 0 1 .45.054v-1.782c-.306-.072-.81-.144-1.242-.144-1.962 0-3.024.99-3.024 2.988v.828h-1.512V265h1.512v7.272h2.484V265h1.728v-1.872h-1.728v-.522c0-1.044.45-1.422 1.332-1.422z"/><path id="Az" d="M80.057 288.383c-.847 0-1.164-.396-1.164-1.404v-3.978h1.711v-1.872h-1.711v-2.376h-2.47v2.376h-1.446v1.872h1.446v4.428c0 2.124.9 2.97 2.964 2.97.423 0 .97-.072 1.305-.18v-1.926c-.159.054-.406.09-.635.09z"/><path id="BA" d="M84.759 287.267h-2.717v3.006h.9l-.97 3.096h1.482l1.305-3.096v-3.006z"/><path id="BB" d="M93.227 280.841c-2.734 0-4.516 1.908-4.516 4.86s1.782 4.86 4.516 4.86c2.417 0 4.04-1.548 4.234-3.87h-2.593c-.071 1.188-.706 1.926-1.658 1.926-1.2 0-1.923-1.116-1.923-2.916s.723-2.916 1.923-2.916c.953 0 1.588.666 1.676 1.746h2.575c-.194-2.142-1.817-3.69-4.234-3.69z"/><path id="BC" d="M359.253 281.129h-2.452l-.67 3.528-.653 3.978h-.035l-.759-3.942-.794-3.564h-3.387l-.794 3.564-.759 3.942h-.035l-.653-3.978-.67-3.528h-2.452l1.976 9.144h3.528l.794-3.6.741-3.906h.035l.741 3.906.794 3.6h3.528l1.976-9.144z"/><path id="BD" d="M44.748 298.841c-2.862 0-4.679 1.89-4.679 4.86s1.818 4.86 4.679 4.86 4.679-1.89 4.679-4.86-1.818-4.86-4.679-4.86zm0 1.944c1.242 0 2.034 1.134 2.034 2.916s-.792 2.916-2.034 2.916-2.034-1.134-2.034-2.916.792-2.916 2.034-2.916z"/><path id="BE" d="M67.82 295.457h-2.52v12.816h2.52v-4.896c0-1.674.756-2.484 1.8-2.484.99 0 1.602.63 1.602 2.016v5.364h2.52v-5.616c0-2.484-1.314-3.744-3.365-3.744-.972 0-1.872.396-2.52 1.224h-.036v-4.68z"/><path id="BF" d="M79.833 306.779c-1.08 0-1.998-.666-2.07-2.556h6.569c0-1.008-.09-1.71-.288-2.34-.576-1.854-2.124-3.042-4.229-3.042-2.862 0-4.535 2.088-4.535 4.788 0 2.916 1.674 4.932 4.553 4.932 2.43 0 4.013-1.386 4.373-3.06h-2.574c-.126.738-.792 1.278-1.8 1.278zm-.018-6.156c1.008 0 1.836.63 1.998 2.016h-3.995c.198-1.386.972-2.016 1.998-2.016z"/><path id="BG" d="M90.82 298.985c-1.08 0-1.89.45-2.502 1.44h-.036v-1.296h-2.322v9.144h2.52v-4.32c0-1.8.828-2.772 2.376-2.772.252 0 .504.036.792.09v-2.178c-.252-.072-.576-.108-.828-.108z"/><path id="BH" d="M111.651 298.913c-1.17 0-2.088.558-2.682 1.368h-.036v-1.152h-2.358v9.144h2.52v-4.896c0-1.656.756-2.484 1.8-2.484.99 0 1.602.63 1.602 2.016v5.364h2.52v-5.616c0-2.484-1.314-3.744-3.365-3.744z"/><path id="BI" d="M130.817 298.841c-2.61 0-3.869 1.404-3.959 3.15h2.448c.036-.864.576-1.386 1.512-1.386.882 0 1.494.468 1.494 1.62v.324l-2.286.252c-2.646.414-3.545 1.422-3.545 2.916 0 1.584 1.17 2.772 3.113 2.772 1.26 0 2.286-.468 2.969-1.44h.036a5.22 5.22 0 0 0 .126 1.224h2.268c-.162-.612-.252-1.35-.252-2.502v-3.312c0-2.394-1.332-3.618-3.923-3.618zm1.494 5.58c0 .828-.09 1.314-.522 1.746-.36.36-.918.522-1.44.522-.882 0-1.35-.468-1.35-1.152 0-.738.432-1.08 1.476-1.26.54-.09 1.296-.162 1.836-.198v.342z"/><path id="BJ" d="M186.779 306.383c-.864 0-1.188-.396-1.188-1.404v-3.978h1.746v-1.872h-1.746v-2.376h-2.52v2.376h-1.476v1.872h1.476v4.428c0 2.124.918 2.97 3.023 2.97a5.07 5.07 0 0 0 1.332-.18v-1.926a2.25 2.25 0 0 1-.648.09z"/><path id="BK" d="M34.228 324.383c-.869 0-1.196-.396-1.196-1.404v-3.978h1.757v-1.872h-1.757v-2.376h-2.536v2.376h-1.485v1.872h1.485v4.428c0 2.124.924 2.97 3.043 2.97.435 0 .996-.072 1.34-.18v-1.926c-.163.054-.417.09-.652.09z"/><path id="BL" d="M38.931 313.457h-2.536v12.816h2.536v-4.896c0-1.674.761-2.484 1.811-2.484.996 0 1.612.63 1.612 2.016v5.364h2.536v-5.616c0-2.484-1.322-3.744-3.387-3.744-.978 0-1.884.396-2.536 1.224h-.036v-4.68z"/><path id="BM" d="M76.711 316.841c-2.88 0-4.71 1.89-4.71 4.86s1.829 4.86 4.71 4.86 4.71-1.89 4.71-4.86-1.829-4.86-4.71-4.86zm0 1.944c1.25 0 2.047 1.134 2.047 2.916s-.797 2.916-2.047 2.916-2.047-1.134-2.047-2.916.797-2.916 2.047-2.916z"/><path id="BN" d="M137.659 326.489a3.28 3.28 0 0 0 2.699-1.368h.036v1.152h2.373v-9.144h-2.536v4.896c0 1.656-.761 2.484-1.811 2.484-.996 0-1.612-.63-1.612-2.016v-5.364h-2.536v5.616c0 2.484 1.322 3.744 3.387 3.744z"/><path id="BO" d="M162.864 317.129h-2.518l-.688 3.528-.67 3.978h-.036l-.779-3.942-.815-3.564h-3.478l-.815 3.564-.779 3.942h-.036l-.67-3.978-.688-3.528h-2.518l2.029 9.144h3.623l.815-3.6.761-3.906h.036l.761 3.906.815 3.6h3.623l2.029-9.144z"/><path id="BP" d="M205.724 316.913a3.28 3.28 0 0 0-2.699 1.368h-.036v-1.152h-2.373v9.144h2.536v-4.896c0-1.656.761-2.484 1.811-2.484.996 0 1.612.63 1.612 2.016v5.364h2.536v-5.616c0-2.484-1.322-3.744-3.387-3.744z"/><path id="BQ" d="M259.016 324.779c-1.087 0-2.011-.666-2.083-2.556h6.612c0-1.008-.091-1.71-.29-2.34-.58-1.854-2.137-3.042-4.257-3.042-2.88 0-4.565 2.088-4.565 4.788 0 2.916 1.685 4.932 4.583 4.932 2.445 0 4.039-1.386 4.402-3.06h-2.59c-.127.738-.797 1.278-1.811 1.278zm-.018-6.156c1.014 0 1.848.63 2.011 2.016h-4.021c.199-1.386.978-2.016 2.011-2.016z"/><path id="BR" d="M53.089 342.383c-.864 0-1.188-.396-1.188-1.404v-3.978h1.746v-1.872h-1.746v-2.376h-2.52v2.376h-1.476v1.872h1.476v4.428c0 2.124.918 2.97 3.024 2.97.432 0 .99-.072 1.332-.18v-1.926a2.25 2.25 0 0 1-.648.09z"/><path id="BS" d="M61.337 378.779c-1.074 0-1.987-.666-2.058-2.556h6.533c0-1.008-.089-1.71-.286-2.34-.573-1.854-2.112-3.042-4.206-3.042-2.846 0-4.51 2.088-4.51 4.788 0 2.916 1.665 4.932 4.528 4.932 2.416 0 3.991-1.386 4.349-3.06h-2.559c-.125.738-.788 1.278-1.79 1.278zm-.018-6.156c1.002 0 1.826.63 1.987 2.016h-3.973c.197-1.386.966-2.016 1.987-2.016z"/><path id="BT" d="M70.829 370.841c-2.255 0-3.759 1.17-3.759 2.808 0 2.124 1.629 2.484 3.15 2.88 1.414.378 2.094.54 2.094 1.332 0 .54-.447.882-1.324.882-1.038 0-1.593-.522-1.593-1.44h-2.542c0 2.214 1.557 3.258 4.081 3.258 2.47 0 4.009-1.152 4.009-2.862 0-2.232-1.79-2.646-3.418-3.078-1.378-.36-1.951-.522-1.951-1.17 0-.522.43-.846 1.235-.846.895 0 1.432.396 1.432 1.332h2.398c0-2.034-1.432-3.096-3.812-3.096z"/><path id="BU" d="M88.846 367.457h2.506v12.816h-2.506z"/><path id="BV" d="M145.169 367.457h-2.506v4.77h-.036c-.555-.864-1.539-1.332-2.577-1.332-2.273 0-3.741 1.89-3.741 4.806s1.486 4.806 3.776 4.806c1.056 0 2.058-.504 2.613-1.44h.036v1.206h2.434v-12.816zm-4.278 5.364c1.128 0 1.897 1.062 1.897 2.88s-.77 2.88-1.897 2.88c-1.199 0-1.969-1.134-1.969-2.88s.77-2.88 1.969-2.88z"/><path id="BW" d="M154.413 378.383c-.859 0-1.181-.396-1.181-1.404v-3.978h1.736v-1.872h-1.736v-2.376h-2.506v2.376h-1.468v1.872h1.468v4.428c0 2.124.913 2.97 3.007 2.97.43 0 .984-.072 1.324-.18v-1.926c-.161.054-.412.09-.644.09z"/><path id="BX" d="M158.947 367.457h-2.506v12.816h2.506v-4.896c0-1.674.752-2.484 1.79-2.484.984 0 1.593.63 1.593 2.016v5.364h2.506v-5.616c0-2.484-1.307-3.744-3.347-3.744a3.09 3.09 0 0 0-2.506 1.224h-.036v-4.68z"/><path id="BY" d="M203.815 370.841c-2.846 0-4.653 1.89-4.653 4.86s1.808 4.86 4.653 4.86 4.653-1.89 4.653-4.86-1.808-4.86-4.653-4.86zm0 1.944c1.235 0 2.022 1.134 2.022 2.916s-.788 2.916-2.022 2.916-2.022-1.134-2.022-2.916.788-2.916 2.022-2.916z"/><path id="BZ" d="M241.689 370.913c-1.163 0-2.076.558-2.667 1.368h-.036v-1.152h-2.345v9.144h2.506v-4.896c0-1.656.752-2.484 1.79-2.484.984 0 1.593.63 1.593 2.016v5.364h2.506v-5.616c0-2.484-1.307-3.744-3.347-3.744z"/><path id="Ba" d="M253.867 370.841c-2.595 0-3.848 1.404-3.938 3.15h2.434c.036-.864.573-1.386 1.503-1.386.877 0 1.486.468 1.486 1.62v.324l-2.273.252c-2.631.414-3.526 1.422-3.526 2.916 0 1.584 1.163 2.772 3.096 2.772 1.253 0 2.273-.468 2.953-1.44h.036c0 .45.036.846.125 1.224h2.255c-.161-.612-.251-1.35-.251-2.502v-3.312c0-2.394-1.324-3.618-3.902-3.618zm1.486 5.58c0 .828-.089 1.314-.519 1.746-.358.36-.913.522-1.432.522-.877 0-1.342-.468-1.342-1.152 0-.738.43-1.08 1.468-1.26.537-.09 1.289-.162 1.826-.198v.342z"/><path id="Bb" d="M49.928 456.727h-5.904v8.544h6.012v-1.512h-4.248v-2.088h3.864v-1.5h-3.864v-1.932h4.14v-1.512z"/><path id="Bc" d="M82.007 465.271h1.764v-3.024h1.464c2.076 0 3.132-1.104 3.132-2.76s-1.056-2.76-3.132-2.76h-3.228v8.544zm2.988-7.08c1.116 0 1.572.492 1.572 1.296s-.456 1.296-1.572 1.296h-1.224v-2.592h1.224z"/><path id="Bd" d="M106.261 465.271h1.764v-3.264h.972c.84 0 1.188.324 1.5 1.236l.684 2.028h1.92l-.852-2.364c-.396-1.08-.684-1.44-1.284-1.656v-.024c.96-.264 1.56-1.044 1.56-2.088 0-1.524-.972-2.412-3.12-2.412h-3.144v8.544zm2.916-7.116c1.008 0 1.572.36 1.572 1.188 0 .78-.408 1.26-1.476 1.26h-1.248v-2.448h1.152z"/><path id="Be" d="M117.482 456.535c-2.508 0-4.044 1.692-4.044 4.464s1.536 4.464 4.044 4.464 4.044-1.692 4.044-4.464-1.536-4.464-4.044-4.464zm0 1.56c1.38 0 2.22 1.104 2.22 2.904s-.84 2.904-2.22 2.904-2.22-1.104-2.22-2.904.84-2.904 2.22-2.904z"/><path id="Bf" d="M132.662 456.727h-2.832l-1.236 3.924-.84 3.144h-.024l-.84-3.144-1.236-3.924h-2.832v8.544h1.692v-4.248l-.072-3.204h.024l.912 3.144 1.356 4.308h2.016l1.356-4.308.912-3.144h.024l-.072 3.204v4.248h1.692v-8.544z"/><path id="Bg" d="M137.128 465.271h2.844c2.904 0 4.536-1.536 4.536-4.272s-1.632-4.272-4.536-4.272h-2.844v8.544zm2.82-7.032c1.836 0 2.736.912 2.736 2.76s-.9 2.76-2.736 2.76h-1.068v-5.52h1.068z"/><path id="Bh" d="M151.169 456.727h-1.764v8.544h5.796v-1.512h-4.032v-7.032z"/><path id="Bi" d="M61.977 477.012c-.576 0-.792-.264-.792-.936v-2.652h1.164v-1.248h-1.164v-1.584h-1.68v1.584h-.984v1.248h.984v2.952c0 1.416.612 1.98 2.016 1.98.288 0 .66-.048.888-.12v-1.284a1.5 1.5 0 0 1-.432.06z"/><path id="Bj" d="M65.752 471.984c-1.74 0-2.58.936-2.64 2.1h1.632c.024-.576.384-.924 1.008-.924.588 0 .996.312.996 1.08v.216l-1.524.168c-1.764.276-2.364.948-2.364 1.944 0 1.056.78 1.848 2.076 1.848.84 0 1.524-.312 1.98-.96h.024a3.48 3.48 0 0 0 .084.816h1.512c-.108-.408-.168-.9-.168-1.668v-2.208c0-1.596-.888-2.412-2.616-2.412zm.996 3.72c0 .552-.06.876-.348 1.164-.24.24-.612.348-.96.348-.588 0-.9-.312-.9-.768 0-.492.288-.72.984-.84a14.12 14.12 0 0 1 1.224-.132v.228z"/><path id="Bk" d="M71.447 472.176h-1.68v6.096h1.68v-6.096zm0-2.448h-1.68v1.44h1.68v-1.44z"/><path id="Bl" d="M72.918 469.728h1.68v8.544h-1.68z"/><path id="Bm" d="M78.337 471.984c-1.512 0-2.52.78-2.52 1.872 0 1.416 1.092 1.656 2.112 1.92.948.252 1.404.36 1.404.888 0 .36-.3.588-.888.588-.696 0-1.068-.348-1.068-.96h-1.704c0 1.476 1.044 2.172 2.736 2.172 1.656 0 2.688-.768 2.688-1.908 0-1.488-1.2-1.764-2.292-2.052-.924-.24-1.308-.348-1.308-.78 0-.348.288-.564.828-.564.6 0 .96.264.96.888h1.608c0-1.356-.96-2.064-2.556-2.064z"/><path id="Bn" d="M83.996 476.268h-1.848v2.004h1.848v-2.004zm0-4.092h-1.848v2.004h1.848v-2.004z"/><path id="Bo" d="M97.529 478.416c.78 0 1.392-.372 1.788-.912h.024v.768h1.572v-6.096h-1.68v3.264c0 1.104-.504 1.656-1.2 1.656-.66 0-1.068-.42-1.068-1.344v-3.576h-1.68v3.744c0 1.656.876 2.496 2.244 2.496z"/><path id="Bp" d="M104.064 469.728h-1.68v8.544h1.632v-.804h.024c.372.624 1.044.96 1.752.96 1.536 0 2.532-1.26 2.532-3.204s-.984-3.204-2.508-3.204c-.696 0-1.356.312-1.728.888h-.024v-3.18zm1.188 3.576c.804 0 1.32.756 1.32 1.92s-.516 1.92-1.32 1.92c-.756 0-1.272-.708-1.272-1.92s.516-1.92 1.272-1.92z"/><path id="Bq" d="M123.508 469.728h-1.68v8.544h1.68v-3.264c0-1.116.504-1.656 1.2-1.656.66 0 1.068.42 1.068 1.344v3.576h1.68v-3.744c0-1.656-.876-2.496-2.244-2.496-.648 0-1.248.264-1.68.816h-.024v-3.12z"/><path id="Br" d="M131.507 477.276c-.72 0-1.332-.444-1.38-1.704h4.38c0-.672-.06-1.14-.192-1.56-.384-1.236-1.416-2.028-2.82-2.028-1.908 0-3.024 1.392-3.024 3.192 0 1.944 1.116 3.288 3.036 3.288 1.62 0 2.676-.924 2.916-2.04h-1.716c-.084.492-.528.852-1.2.852zm-.012-4.104c.672 0 1.224.42 1.332 1.344h-2.664c.132-.924.648-1.344 1.332-1.344z"/><path id="Bs" d="M138.822 472.08c-.72 0-1.26.3-1.668.96h-.024v-.864h-1.548v6.096h1.68v-2.88c0-1.2.552-1.848 1.584-1.848a2.85 2.85 0 0 1 .528.06v-1.452a2.18 2.18 0 0 0-.552-.072z"/><path id="Bt" d="M148.454 469.536c-1.872 0-3.156 1.032-3.156 2.532 0 1.872 1.464 2.256 3.072 2.664 1.212.312 1.764.456 1.764 1.212 0 .672-.576 1.092-1.476 1.092-1.092 0-1.656-.54-1.656-1.572h-1.824c0 1.944 1.332 3 3.456 3 1.992 0 3.336-1.08 3.336-2.7 0-1.86-1.392-2.28-3-2.676-1.344-.336-1.86-.552-1.86-1.212 0-.552.528-.936 1.308-.936.972 0 1.488.516 1.488 1.404h1.788c0-1.836-1.104-2.808-3.24-2.808z"/><path id="Bu" d="M162.82 471.984c-1.908 0-3.12 1.26-3.12 3.24s1.212 3.24 3.12 3.24 3.12-1.26 3.12-3.24-1.212-3.24-3.12-3.24zm0 1.296c.828 0 1.356.756 1.356 1.944s-.528 1.944-1.356 1.944-1.356-.756-1.356-1.944.528-1.944 1.356-1.944z"/><path id="Bv" d="M173.095 472.008c-1.536 0-2.52 1.2-2.52 3.096s.972 3.096 2.496 3.096c.732 0 1.248-.276 1.704-.912h.024v.54c0 1.188-.468 1.572-1.224 1.572-.636 0-1.02-.276-1.056-.744h-1.68c.096 1.2 1.02 1.944 2.7 1.944 1.752 0 2.892-.864 2.892-2.712v-5.712h-1.584v.816h-.024c-.468-.696-.984-.984-1.728-.984zm.456 1.38c.792 0 1.296.684 1.296 1.716s-.504 1.716-1.296 1.716c-.744 0-1.224-.66-1.224-1.716s.48-1.716 1.224-1.716z"/><path id="Bw" d="M188.325 472.032c-.78 0-1.392.372-1.788.912h-.024v-.768h-1.572v6.096h1.68v-3.264c0-1.104.504-1.656 1.2-1.656.66 0 1.068.42 1.068 1.344v3.576h1.68v-3.744c0-1.656-.876-2.496-2.244-2.496z"/><path id="Bx" d="M95.251 482.729h-1.68v3.18h-.024c-.372-.576-1.032-.888-1.728-.888-1.524 0-2.508 1.26-2.508 3.204s.996 3.204 2.532 3.204c.708 0 1.38-.336 1.752-.96h.024v.804h1.632v-8.544zm-2.868 3.576c.756 0 1.272.708 1.272 1.92s-.516 1.92-1.272 1.92c-.804 0-1.32-.756-1.32-1.92s.516-1.92 1.32-1.92z"/><path id="By" d="M138.138 484.985c-1.86 0-3.072 1.272-3.072 3.24s1.212 3.24 3.072 3.24c1.644 0 2.748-1.032 2.88-2.58h-1.764c-.048.792-.48 1.284-1.128 1.284-.816 0-1.308-.744-1.308-1.944s.492-1.944 1.308-1.944c.648 0 1.08.444 1.14 1.164h1.752c-.132-1.428-1.236-2.46-2.88-2.46z"/><path id="Bz" d="M195.902 482.993c-1.812 0-2.916.948-2.964 2.724h1.74c.012-.84.396-1.296 1.224-1.296.66 0 1.044.384 1.044.96 0 .852-.612 1.296-1.788 1.98-1.896 1.104-2.328 2.064-2.328 3.648l.012.264h6.108v-1.416h-4.044c.024-.516.312-.864 1.8-1.74 1.188-.696 2.04-1.356 2.04-2.808 0-1.428-1.116-2.316-2.844-2.316z"/><path id="CA" d="M202.91 482.993c-2.076 0-3.228 1.536-3.228 4.236 0 2.712 1.152 4.236 3.228 4.236s3.228-1.524 3.228-4.236c0-2.7-1.152-4.236-3.228-4.236zm0 1.452c.924 0 1.428 1.008 1.428 2.784 0 1.8-.504 2.808-1.428 2.808s-1.428-1.008-1.428-2.808c0-1.776.504-2.784 1.428-2.784z"/></defs></svg>