<svg xmlns="http://www.w3.org/2000/svg" viewBox="0 0 1749 2481" fill-rule="evenodd" stroke-linejoin="round" stroke-miterlimit="2" xmlns:v="https://vecta.io/nano"><path d="M0 0h1748.037v2480.32H0z" fill="#fff"/><g fill="#231f20" fill-rule="nonzero"><path d="M1546.833 78.851h-4.367c-.4 2.7-2.1 3.833-5.867 3.833v3.4h5.433v15.233h4.8V78.851zm15.301-.533c-5.767 0-8.967 4.267-8.967 11.767 0 7.533 3.2 11.767 8.967 11.767s8.967-4.233 8.967-11.767c0-7.5-3.2-11.767-8.967-11.767zm0 4.033c2.567 0 3.967 2.8 3.967 7.733 0 5-1.4 7.8-3.967 7.8s-3.967-2.8-3.967-7.8c0-4.933 1.4-7.733 3.967-7.733zM181.831 202.667h9.858v-10.65h-3.311l3.537-10.95h-5.343l-4.741 10.95v10.65zm13.696 0h9.858v-10.65h-3.311l3.537-10.95h-5.343l-4.741 10.95v10.65zm84.895-21.6h-10.836l-3.838 19.425c-1.505 7.65-2.86 15.525-3.913 23.1h-.151a383.86 383.86 0 0 0-4.891-23.1l-4.666-19.425H238.13l-4.666 19.425a383.86 383.86 0 0 0-4.891 23.1h-.151c-1.091-7.734-2.396-15.437-3.913-23.1l-3.838-19.425h-10.836l11.212 53.4h14.373l4.967-21.15c1.806-7.575 3.386-15.225 4.666-22.875h.151c1.279 7.65 2.86 15.3 4.666 22.875l4.967 21.15h14.373l11.212-53.4zm19.286 47.175c-4.515 0-8.353-2.775-8.654-10.65h27.466c.111-3.293-.295-6.583-1.204-9.75-2.251-7.788-9.56-13.026-17.684-12.675-11.965 0-18.963 8.7-18.963 19.95 0 12.15 6.998 20.55 19.038 20.55 10.159 0 16.781-5.775 18.286-12.75h-10.761c-.527 3.075-3.311 5.325-7.525 5.325zm-.075-25.65c4.214 0 7.676 2.625 8.353 8.4H291.28c.828-5.775 4.064-8.4 8.353-8.4z"/><use href="#B"/><use href="#B" x="19.956"/><path d="M375.753 221.942h-11.589v12.525h3.838l-4.139 12.9h6.321l5.569-12.9v-12.525zm84.149-25.575h-10.46l-2.86 14.7c-1.074 5.5-2.003 11.027-2.784 16.575h-.151a262.8 262.8 0 0 0-3.236-16.425l-3.386-14.85h-14.448l-3.386 14.85c-1.252 5.44-2.331 10.917-3.236 16.425h-.151c-.782-5.548-1.71-11.075-2.784-16.575l-2.86-14.7H399.7l8.428 38.1h15.05l3.386-15c1.204-5.325 2.258-10.8 3.161-16.275h.151c.903 5.475 1.957 10.95 3.161 16.275l3.386 15h15.05l8.428-38.1zm20.785 31.875c-4.515 0-8.353-2.775-8.654-10.65H499.5c.111-3.293-.295-6.583-1.204-9.75-2.251-7.788-9.56-13.026-17.684-12.675-11.965 0-18.963 8.7-18.963 19.95 0 12.15 6.998 20.55 19.038 20.55 10.159 0 16.781-5.775 18.286-12.75h-10.761c-.527 3.075-3.311 5.325-7.525 5.325zm-.075-25.65c4.214 0 7.676 2.625 8.353 8.4h-16.706c.828-5.775 4.064-8.4 8.353-8.4zm78.961-21.525h-10.535v19.875h-.151c-2.44-3.556-6.515-5.643-10.836-5.55-9.557 0-15.727 7.875-15.727 20.025s6.246 20.025 15.878 20.025c4.469.076 8.646-2.205 10.987-6h.151v5.025h10.234v-53.4zm-17.985 22.35c4.741 0 7.977 4.425 7.977 12s-3.236 12-7.977 12c-5.042 0-8.278-4.725-8.278-12s3.236-12 8.278-12z"/><use href="#C"/><path d="M633.798 195.467a13.56 13.56 0 0 0-11.212 5.7h-.151v-4.8h-9.858v38.1h10.535v-20.4c0-6.9 3.161-10.35 7.525-10.35 4.139 0 6.697 2.625 6.697 8.4v22.35h10.535v-23.4c0-10.35-5.493-15.6-14.072-15.6zm30.195-14.4h-9.858v10.65h3.311l-3.537 10.95h5.343l4.741-10.95v-10.65z"/><use href="#D"/><use href="#E"/><path d="M779.166 195.167c-10.911 0-16.179 5.85-16.555 13.125h10.234c.151-3.6 2.408-5.775 6.321-5.775 3.687 0 6.246 1.95 6.246 6.75v1.35c-3.198.226-6.386.576-9.557 1.05-11.062 1.725-14.824 5.925-14.824 12.15 0 6.6 4.891 11.55 13.018 11.55 4.897.255 9.584-2.01 12.416-6h.151a21.68 21.68 0 0 0 .527 5.1h9.482a39.84 39.84 0 0 1-1.054-10.425v-13.8c0-9.975-5.569-15.075-16.405-15.075zm6.246 23.25c0 3.45-.376 5.475-2.182 7.275-1.65 1.472-3.807 2.252-6.02 2.175-3.687 0-5.644-1.95-5.644-4.8 0-3.075 1.806-4.5 6.171-5.25 2.258-.375 5.418-.675 7.676-.825v1.425zm51.564-22.05H825.99l-4.44 15a240.89 240.89 0 0 0-4.214 16.5h-.151a240.77 240.77 0 0 0-4.214-16.5l-4.44-15h-10.987l12.868 38.1h13.696l12.868-38.1zm19.882 31.875c-4.515 0-8.353-2.775-8.654-10.65h27.466c.111-3.293-.295-6.583-1.204-9.75-2.251-7.788-9.56-13.026-17.684-12.675-11.965 0-18.963 8.7-18.963 19.95 0 12.15 6.998 20.55 19.038 20.55 10.159 0 16.781-5.775 18.286-12.75h-10.761c-.527 3.075-3.311 5.325-7.525 5.325zm-.075-25.65c4.214 0 7.676 2.625 8.353 8.4H848.43c.828-5.775 4.064-8.4 8.353-8.4z"/><use href="#D" x="228.016"/><use href="#E" x="207.173"/><use href="#C" x="402.373"/><use href="#F"/><use href="#G"/><path d="M1136.213 195.392c-4.469-.076-8.646 2.205-10.987 6h-.151v-5.025h-10.234v51.975h10.535v-18.45h.151c2.44 3.556 6.515 5.643 10.836 5.55 9.557 0 15.727-7.875 15.727-20.025s-6.246-20.025-15.878-20.025zm-3.386 8.025c5.042 0 8.278 4.725 8.278 12s-3.236 12-8.278 12c-4.741 0-7.977-4.425-7.977-12s3.236-12 7.977-12zm46.513-7.65a11.52 11.52 0 0 0-10.46 6h-.151v-5.4h-9.707v38.1h10.535v-18c0-7.5 3.462-11.55 9.933-11.55 1.054 0 2.107.15 3.311.375v-9.075a13.74 13.74 0 0 0-3.462-.45z"/><use href="#C" x="617.82"/><path d="M1240.927 181.067h-10.535v53.4h10.234v-5.025h.151c2.333 3.9 6.547 6 10.987 6 9.632 0 15.878-7.875 15.878-20.025s-6.171-20.025-15.727-20.025c-4.321-.093-8.397 1.994-10.836 5.55h-.151v-19.875zm7.45 22.35c5.042 0 8.278 4.725 8.278 12s-3.236 12-8.278 12c-4.741 0-7.977-4.425-7.977-12s3.236-12 7.977-12z"/><use href="#B" x="949.125"/><use href="#G" x="240.366"/><path d="M1381.089 195.467c-4.948-.181-9.609 2.314-12.191 6.525-2.107-4.275-6.02-6.525-11.363-6.525-4.203-.167-8.202 1.812-10.61 5.25h-.151v-4.35h-9.933v38.1h10.535v-19.575c0-7.125 2.408-11.175 6.998-11.175 3.913 0 6.02 2.85 6.02 7.725v23.025h10.535v-19.575c0-7.2 2.483-11.175 6.998-11.175 3.687 0 6.02 2.625 6.02 8.4v22.35h10.535v-23.4c0-10.35-5.192-15.6-13.395-15.6z"/><use href="#F" x="388.273"/><use href="#C" x="891.52"/><path d="M1517.788 235.367a13.56 13.56 0 0 0 11.212-5.7h.151v4.8h9.858v-38.1h-10.535v20.4c0 6.9-3.161 10.35-7.525 10.35-4.139 0-6.697-2.625-6.697-8.4v-22.35h-10.535v23.4c0 10.35 5.493 15.6 14.072 15.6z"/><use href="#D" x="875.47"/><path d="M178.485 271.367H168.06l-2.85 14.7c-1.071 5.5-1.996 11.027-2.775 16.575h-.15c-.901-5.508-1.977-10.985-3.225-16.425l-3.375-14.85h-14.4l-3.375 14.85c-1.248 5.44-2.324 10.917-3.225 16.425h-.15c-.779-5.548-1.704-11.075-2.775-16.575l-2.85-14.7h-10.425l8.4 38.1h15l3.375-15c1.2-5.325 2.25-10.8 3.15-16.275h.15c.9 5.475 1.95 10.95 3.15 16.275l3.375 15h15l8.4-38.1z"/><use href="#H"/><use href="#I"/><use href="#J"/><use href="#I" x="69.824"/><use href="#K"/><use href="#I" x="187.873"/><use href="#L"/><use href="#J" x="244.496"/><path d="M558.13 303.242c-4.5 0-8.325-2.775-8.625-10.65h27.375c.111-3.293-.294-6.583-1.2-9.75a17.55 17.55 0 0 0-17.625-12.675c-11.925 0-18.9 8.7-18.9 19.95 0 12.15 6.975 20.55 18.975 20.55 10.125 0 16.725-5.775 18.225-12.75H565.63c-.525 3.075-3.3 5.325-7.5 5.325zm-.075-25.65c4.2 0 7.65 2.625 8.325 8.4h-16.65c.825-5.775 4.05-8.4 8.325-8.4z"/><use href="#M"/><use href="#N"/><use href="#O"/><use href="#L" x="226.661"/><use href="#P"/><use href="#Q"/><use href="#R"/><use href="#S"/><use href="#L" x="448.058"/><use href="#T"/><use href="#Q" x="197.098"/><use href="#L" x="566.45"/><use href="#U"/><use href="#V"/><use href="#I" x="914.596"/><use href="#P" x="443.438"/><use href="#W"/><use href="#U" x="192.069"/><use href="#H" x="1114.54"/><use href="#X"/><use href="#Y"/><use href="#I" x="9.998" y="75"/><use href="#S" x="-602.811" y="75"/><use href="#S" x="-564.689" y="75"/><use href="#P" x="-368.898" y="75"/><use href="#Z"/><use href="#Q" x="-325.428" y="75"/><use href="#Q" x="-281.757" y="75"/><use href="#I" x="319.397" y="75"/><use href="#Q" x="-195.538" y="75"/><use href="#X" x="-708.93" y="75"/><use href="#a"/><use href="#O" x="-434.894" y="150"/><use href="#Z" x="-150.354" y="75"/><use href="#J" x="38.817" y="150"/><use href="#b"/><use href="#c"/><use href="#S" x="-458.174" y="150"/><use href="#d"/><use href="#N" x="-96.211" y="150"/><use href="#a" y="75"/><use href="#e"/><use href="#L" x="-191.283" y="225"/><use href="#S" x="-559.448" y="225"/><use href="#X" x="-980.519" y="225"/><path d="M431.949 534.467h11.55l-18.525-53.4h-14.85l-18.525 53.4h11.55l4.2-13.05h20.475l4.125 13.05zm-21.6-22.5l1.125-3.525c2.175-6.9 4.2-13.95 6-20.85h.15c1.8 6.9 3.9 13.95 6.075 20.85l1.125 3.525h-14.475z"/><use href="#f"/><use href="#X" x="-827.219" y="225"/><use href="#e" x="335.57"/><use href="#I" x="391.184" y="225"/><use href="#V" x="-461.288" y="225"/><use href="#V" x="-441.319" y="225"/><use href="#M" x="116.894" y="225"/><use href="#U" x="-346.696" y="225"/><use href="#H" x="575.869" y="225"/><use href="#I" x="575.964" y="225"/><use href="#U" x="-219.758" y="225"/><use href="#J" x="616.483" y="225"/><use href="#c" x="534.408" y="75"/><use href="#U" x="-120.776" y="225"/><use href="#H" x="801.789" y="225"/><use href="#T" x="81.221" y="225"/><use href="#S" x="180.99" y="225"/><use href="#M" x="517.995" y="225"/><use href="#g"/><use href="#L" x="718.229" y="225"/><use href="#J" x="962.816" y="225"/><use href="#R" x="432.129" y="225"/><use href="#M" x="711.005" y="225"/><path d="M1330.975 481.067H1342v53.4h-11.025z"/><use href="#h"/><use href="#i"/><use href="#I" x="1180.596" y="225"/><use href="#W" x="234.58" y="225"/><use href="#Z" x="1090.864" y="150"/><use href="#U" x="469.969" y="225"/><use href="#j"/><use href="#k"/><use href="#l"/><use href="#m"/><use href="#n"/><use href="#j" x="180.022"/><path d="M361.565 570.317c-9.72 0-15.947 7.5-15.947 19.35s6.151 19.35 15.796 19.35c4.371.156 8.49-2.022 10.783-5.7h.152v3.375c0 7.425-2.962 9.825-7.746 9.825-4.025 0-6.455-1.725-6.683-4.65h-10.632c.608 7.5 6.455 12.15 17.087 12.15 11.087 0 18.302-5.4 18.302-16.95v-35.7h-10.024v5.1h-.152c-2.962-4.35-6.227-6.15-10.935-6.15zm2.886 8.625c5.012 0 8.202 4.275 8.202 10.725s-3.189 10.725-8.202 10.725c-4.708 0-7.746-4.125-7.746-10.725s3.038-10.725 7.746-10.725zm69.466-7.575l-4.177 12.75c-1.747 5.25-3.189 10.65-4.48 15.975h-.152a235.85 235.85 0 0 0-4.253-15.975l-3.949-12.75h-11.391l10.935 30.975c1.519 4.275 1.823 5.475 1.823 6.9 0 3.75-2.81 6.15-7.062 6.15a12.75 12.75 0 0 1-4.101-.6v8.4a25.59 25.59 0 0 0 5.544.6c9.644 0 14.505-3.375 18.377-14.1l13.821-38.325h-10.935z"/><use href="#k" x="280.196"/><path d="M506.188 610.367c4.491.051 8.721-2.08 11.315-5.7h.152v4.8h9.948v-38.1h-10.632v20.4c0 6.9-3.189 10.35-7.594 10.35-4.177 0-6.759-2.625-6.759-8.4v-22.35h-10.632v23.4c0 10.35 5.544 15.6 14.201 15.6zm40.422-54.3h-9.948v10.65h3.341l-3.569 10.95h5.392l4.784-10.95v-10.65zm40.471 0H576.45v19.875h-.152c-2.462-3.556-6.575-5.643-10.935-5.55-9.644 0-15.871 7.875-15.871 20.025s6.303 20.025 16.023 20.025c4.51.076 8.725-2.205 11.087-6h.152v5.025h10.328v-53.4zm-18.15 22.35c4.784 0 8.05 4.425 8.05 12s-3.265 12-8.05 12c-5.088 0-8.353-4.725-8.353-12s3.265-12 8.353-12z"/><use href="#o"/><use href="#p"/><path d="M698.36 556.067h10.632v53.4H698.36z"/><use href="#q"/><use href="#p" x="100.192"/><path d="M834.175 570.167c-9.568 0-15.947 4.875-15.947 11.7 0 8.85 6.911 10.35 13.365 12 5.999 1.575 8.885 2.25 8.885 5.55 0 2.25-1.899 3.675-5.62 3.675-4.405 0-6.759-2.175-6.759-6h-10.783c0 9.225 6.607 13.575 17.314 13.575 10.48 0 17.011-4.8 17.011-11.925 0-9.3-7.594-11.025-14.505-12.825-5.847-1.5-8.277-2.175-8.277-4.875 0-2.175 1.823-3.525 5.24-3.525 3.797 0 6.075 1.65 6.075 5.55h10.176c0-8.475-6.075-12.9-16.175-12.9zm42.018 31.425c-3.645 0-5.012-1.65-5.012-5.85v-16.575h7.366v-7.8h-7.366v-9.9H860.55v9.9h-6.227v7.8h6.227v18.45c0 8.85 3.873 12.375 12.758 12.375 1.899-.003 3.788-.255 5.62-.75v-8.025a9.61 9.61 0 0 1-2.734.375z"/><use href="#p" x="227.697"/><path d="M936.688 556.067h-10.632v53.4h10.328v-5.025h.152c2.354 3.9 6.607 6 11.087 6 9.72 0 16.023-7.875 16.023-20.025s-6.227-20.025-15.871-20.025c-4.36-.093-8.473 1.994-10.935 5.55h-.152v-19.875zm7.518 22.35c5.088 0 8.353 4.725 8.353 12s-3.265 12-8.353 12c-4.784 0-8.05-4.425-8.05-12s3.265-12 8.05-12z"/><use href="#q" x="252.149"/><use href="#r"/><path d="M1087.76 556.067h-10.632v19.875h-.152c-2.462-3.556-6.575-5.643-10.935-5.55-9.644 0-15.871 7.875-15.871 20.025s6.303 20.025 16.023 20.025c4.51.076 8.725-2.205 11.087-6h.152v5.025h10.328v-53.4zm-18.15 22.35c4.784 0 8.05 4.425 8.05 12s-3.265 12-8.05 12c-5.088 0-8.353-4.725-8.353-12s3.265-12 8.353-12z"/><use href="#k" x="929.247"/><path d="M1186.072 570.467c-4.994-.181-9.697 2.314-12.302 6.525-2.126-4.275-6.075-6.525-11.467-6.525-4.242-.167-8.278 1.812-10.708 5.25h-.152v-4.35h-10.024v38.1h10.632v-19.575c0-7.125 2.43-11.175 7.062-11.175 3.949 0 6.075 2.85 6.075 7.725v23.025h10.632v-19.575c0-7.2 2.506-11.175 7.062-11.175 3.721 0 6.075 2.625 6.075 8.4v22.35h10.632v-23.4c0-10.35-5.24-15.6-13.517-15.6z"/><use href="#n" x="925.726"/><use href="#o" x="613.414"/><use href="#n" x="987.896"/><use href="#q" x="572.605"/><use href="#r" x="320.463"/><use href="#p" x="715.572"/><use href="#l" x="1201.318"/><use href="#l" x="1249.218"/><use href="#m" x="1249.215"/><use href="#r" x="541.333"/><path d="M168.079 645.467c-5.009-.181-9.727 2.314-12.34 6.525-2.133-4.275-6.094-6.525-11.502-6.525-4.255-.167-8.303 1.812-10.74 5.25h-.152v-4.35H123.29v38.1h10.664v-19.575c0-7.125 2.438-11.175 7.084-11.175 3.961 0 6.094 2.85 6.094 7.725v23.025h10.664v-19.575c0-7.2 2.514-11.175 7.084-11.175 3.732 0 6.094 2.625 6.094 8.4v22.35h10.664v-23.4c0-10.35-5.256-15.6-13.559-15.6z"/><use href="#s"/><use href="#t"/><use href="#u"/><path d="M367.324 645.467c-4.505-.051-8.747 2.08-11.35 5.7h-.152v-4.8h-9.979v38.1h10.664v-20.4c0-6.9 3.199-10.35 7.617-10.35 4.189 0 6.779 2.625 6.779 8.4v22.35h10.664v-23.4c0-10.35-5.561-15.6-14.244-15.6zm40.469 31.125c-3.656 0-5.027-1.65-5.027-5.85v-16.575h7.389v-7.8h-7.389v-9.9h-10.664v9.9h-6.246v7.8h6.246v18.45c0 8.85 3.885 12.375 12.797 12.375a21.8 21.8 0 0 0 5.637-.75v-8.025a9.66 9.66 0 0 1-2.742.375zm9.435-4.65h11.731v12.525h-11.731zm40.45-40.875h11.197v53.4h-11.197zm54.618 14.25c-9.75 0-15.996 7.5-15.996 19.35s6.17 19.35 15.844 19.35c4.385.156 8.516-2.022 10.817-5.7h.152v3.375c0 7.425-2.971 9.825-7.77 9.825-4.037 0-6.475-1.725-6.703-4.65h-10.664c.609 7.5 6.475 12.15 17.139 12.15 11.121 0 18.358-5.4 18.358-16.95v-35.7h-10.055v5.1h-.152c-2.971-4.35-6.246-6.15-10.969-6.15zm2.895 8.625c5.027 0 8.227 4.275 8.227 10.725s-3.199 10.725-8.227 10.725c-4.723 0-7.77-4.125-7.77-10.725s3.047-10.725 7.77-10.725zm41.832 31.425c4.505.051 8.747-2.08 11.35-5.7h.152v4.8h9.979v-38.1H567.84v20.4c0 6.9-3.199 10.35-7.617 10.35-4.189 0-6.779-2.625-6.779-8.4v-22.35H542.78v23.4c0 10.35 5.561 15.6 14.244 15.6z"/><use href="#u" x="285.321"/><use href="#v"/><use href="#v" x="39.244"/><path d="M751.91 646.367l-4.189 12.75c-1.752 5.25-3.199 10.65-4.494 15.975h-.152c-1.234-5.372-2.657-10.7-4.266-15.975l-3.961-12.75h-11.426l10.969 30.975c1.523 4.275 1.828 5.475 1.828 6.9 0 3.75-2.818 6.15-7.084 6.15-1.395.025-2.785-.178-4.113-.6v8.4c1.825.401 3.69.602 5.561.6 9.674 0 14.549-3.375 18.434-14.1l13.863-38.325H751.91z"/><use href="#s" x="575.459"/><path d="M824.537 685.367c4.505.051 8.747-2.08 11.35-5.7h.152v4.8h9.979v-38.1h-10.664v20.4c0 6.9-3.199 10.35-7.617 10.35-4.189 0-6.779-2.625-6.779-8.4v-22.35h-10.664v23.4c0 10.35 5.561 15.6 14.244 15.6z"/><use href="#w"/><use href="#u" x="602.672"/><use href="#t" x="713.303"/><use href="#u" x="713.303"/><use href="#t" x="823.933"/><path d="M1137.469 631.067h-10.664v53.4h10.359v-5.025h.152c2.361 3.9 6.627 6 11.121 6 9.75 0 16.072-7.875 16.072-20.025s-6.246-20.025-15.92-20.025c-4.374-.093-8.499 1.994-10.969 5.55h-.152v-19.875zm7.541 22.35c5.104 0 8.379 4.725 8.379 12s-3.275 12-8.379 12c-4.799 0-8.074-4.425-8.074-12s3.275-12 8.074-12z"/><use href="#u" x="869.565"/><use href="#w" x="338.15"/><path d="M1264.841 631.067h11.197v53.4h-11.197zm31.399 0h-9.979v10.65h3.352l-3.58 10.95h5.408l4.799-10.95v-10.65z"/><use href="#t" x="1068.76"/><use href="#t" x="1155.6"/><use href="#s" x="1267.52"/><use href="#w" x="625.48"/><path d="M1547.783 678.242c-4.57 0-8.455-2.775-8.76-10.65h27.803c.113-3.293-.298-6.583-1.219-9.75-2.279-7.788-9.677-13.026-17.901-12.675-12.111 0-19.195 8.7-19.195 19.95 0 12.15 7.084 20.55 19.272 20.55 10.283 0 16.986-5.775 18.51-12.75H1555.4c-.533 3.075-3.352 5.325-7.617 5.325zm-.076-25.65c4.266 0 7.77 2.625 8.455 8.4h-16.91c.838-5.775 4.113-8.4 8.455-8.4z"/><use href="#Z" x="-292.331" y="375"/><use href="#x"/><use href="#L" x="-265.383" y="450"/><use href="#f" x="-182.719" y="225"/><use href="#Z" x="-83.53" y="375"/><use href="#U" x="-704.333" y="450"/><path d="M416.91 753.242c-4.5 0-8.325-2.775-8.625-10.65h27.375c.111-3.293-.294-6.583-1.2-9.75a17.55 17.55 0 0 0-17.625-12.675c-11.925 0-18.9 8.7-18.9 19.95 0 12.15 6.975 20.55 18.975 20.55 10.125 0 16.725-5.775 18.225-12.75H424.41c-.525 3.075-3.3 5.325-7.5 5.325zm-.075-25.65c4.2 0 7.65 2.625 8.325 8.4h-16.65c.825-5.775 4.05-8.4 8.325-8.4z"/><use href="#V" x="-679.277" y="450"/><use href="#f" x="31.331" y="225"/><use href="#L" x="72.304" y="450"/><use href="#P" x="-154.169" y="450"/><use href="#X" x="-711.045" y="450"/><use href="#N" x="47.219" y="450"/><use href="#y"/><path d="M255.101 781.068h-37.638v53.4h38.327v-9.45h-27.081v-13.05h24.633v-9.375h-24.633v-12.075h26.393v-9.45zm43.664 15.3h-12.317l-6.656 11.175h-.153l-6.656-11.175h-12.317l12.47 18.525-13.311 19.575h12.47l7.344-12.9h.153l7.344 12.9h12.47l-13.311-19.575 12.47-18.525z"/><use href="#z"/><use href="#AA"/><use href="#AB"/><use href="#AC"/><use href="#AD"/><use href="#AE"/><use href="#AD" x="73.777"/><use href="#AC" x="151.651"/><use href="#AF"/><use href="#AG"/><use href="#AH"/><use href="#AI"/><use href="#AJ"/><use href="#AK"/><use href="#AA" x="588.816"/><use href="#z" x="701.427"/><use href="#AJ" x="227.708"/><use href="#AJ" x="274.265"/><use href="#AL"/><use href="#AA" x="834.044"/><use href="#AM"/><use href="#AK" x="431.319"/><use href="#AA" x="1020.134"/><use href="#AH" x="708.121"/><path d="M1455.537 781.068h10.71v53.4h-10.71z"/><use href="#AC" x="1066.131"/><use href="#AJ" x="710.265"/><use href="#b" x="-213.304" y="450.001"/><use href="#Z" x="-247.351" y="525.001"/><use href="#L" x="-261.936" y="600.001"/><use href="#AN"/><use href="#H" x="110.62" y="600.001"/><use href="#X" x="-1003.72" y="600.001"/><use href="#N" x="-245.439" y="600.001"/><path d="M181.907 952.668h10.02v-10.65h-3.366l3.595-10.95h-5.431l-4.819 10.95v10.65zm13.922 0h10.02v-10.65h-3.366l3.595-10.95h-5.431l-4.819 10.95v10.65zm51.222 31.8h11.78l-18.893-53.4h-15.145l-18.893 53.4h11.78l4.284-13.05h20.882l4.207 13.05zm-22.03-22.5l1.147-3.525a428.94 428.94 0 0 0 6.119-20.85h.153c1.836 6.9 3.978 13.95 6.196 20.85l1.147 3.525H225.02zm79.899-16.5c-4.523-.051-8.784 2.08-11.397 5.7h-.153v-4.8h-10.02v38.1h10.709v-20.4c0-6.9 3.213-10.35 7.649-10.35 4.207 0 6.808 2.625 6.808 8.4v22.35h10.709v-23.4c0-10.35-5.584-15.6-14.304-15.6zm34.536.9h-10.709v38.1h10.709v-38.1zm0-15.3h-10.709v9h10.709v-9z"/><use href="#AO"/><use href="#AP"/><path d="M465.93 931.068h-10.709v53.4h10.709v-20.4c0-6.975 3.213-10.35 7.649-10.35 4.207 0 6.808 2.625 6.808 8.4v22.35h10.709v-23.4c0-10.35-5.584-15.6-14.304-15.6-4.192-.059-8.165 1.833-10.709 5.1h-.153v-19.5z"/><use href="#AQ"/><use href="#AR"/><use href="#AP" x="221.067"/><use href="#AO" x="326.925"/><use href="#AQ" x="218.607"/><use href="#AQ" x="263.991"/><path d="M829.975 963.918l14.763-17.55h-12.086l-12.545 15.375h-.153v-30.675h-10.709v53.4h10.709v-17.85h.153l13.004 17.85h13.233l-16.369-20.55z"/><use href="#AP" x="456.03"/><use href="#AS"/><use href="#AR" x="411.994"/><use href="#AP" x="633.06"/><use href="#AT"/><path d="M1110.046 931.068h10.709v53.4h-10.709z"/><use href="#AU"/><use href="#AV"/><use href="#AP" x="831.772"/><use href="#AU" x="117.17"/><use href="#AT" x="243.959"/><use href="#AV" x="158.51"/><use href="#AP" x="990.282"/><use href="#AS" x="534.249"/><path d="M1502.205 931.068h-10.709v53.4h10.403v-5.025h.153c2.371 3.9 6.655 6 11.168 6 9.791 0 16.14-7.875 16.14-20.025s-6.272-20.025-15.987-20.025c-4.392-.093-8.535 1.994-11.015 5.55h-.153v-19.875zm7.573 22.35c5.125 0 8.414 4.725 8.414 12s-3.289 12-8.414 12c-4.819 0-8.108-4.425-8.108-12s3.289-12 8.108-12zm48.489-7.05l-4.207 12.75c-1.759 5.25-3.213 10.65-4.513 15.975h-.153a234.54 234.54 0 0 0-4.284-15.975l-3.978-12.75h-11.474l11.015 30.975c1.53 4.275 1.836 5.475 1.836 6.9 0 3.75-2.83 6.15-7.114 6.15a12.93 12.93 0 0 1-4.131-.6v8.4a25.96 25.96 0 0 0 5.584.6c9.714 0 14.61-3.375 18.511-14.1l13.922-38.325h-11.015z"/><use href="#AH" x="-581.594" y="225"/><path d="M184.748 1006.068h10.71v53.4h-10.71z"/><use href="#AJ" x="-616.585" y="225"/><path d="M284.205 1021.368h-11.169l-4.514 15c-1.607 5.4-3.06 10.95-4.284 16.5h-.153c-1.23-5.548-2.659-11.051-4.284-16.5l-4.514-15h-11.169l13.082 38.1h13.923l13.082-38.1z"/><use href="#AD" x="-206.87" y="225"/><use href="#AW"/><use href="#AX"/><use href="#AI" x="-355.882" y="225"/><use href="#AH" x="-239.701" y="225"/><use href="#AW" x="197.411"/><use href="#AM" x="-675.427" y="225"/><use href="#AW" x="308.303"/><use href="#AA" x="314.769" y="225"/><path d="M740.539 1021.368H729.37l-4.514 15c-1.607 5.4-3.06 10.95-4.284 16.5h-.153c-1.23-5.548-2.659-11.051-4.284-16.5l-4.514-15h-11.169l13.082 38.1h13.923l13.082-38.1z"/><use href="#AA" x="396.027" y="225"/><use href="#AY"/><use href="#AL" x="-304.69" y="225"/><use href="#AA" x="528.339" y="225"/><path d="M941.936 1020.393c-4.543-.076-8.79 2.205-11.169 6h-.153v-5.025H920.21v51.975h10.71v-18.45h.153c2.48 3.556 6.624 5.643 11.016 5.55 9.716 0 15.989-7.875 15.989-20.025s-6.35-20.025-16.142-20.025zm-3.443 8.025c5.126 0 8.415 4.725 8.415 12s-3.29 12-8.415 12c-4.82 0-8.109-4.425-8.109-12s3.29-12 8.109-12z"/><use href="#AC" x="526.306" y="225"/><use href="#AK" x="144.604" y="225"/><use href="#AA" x="732.406" y="225"/><use href="#AH" x="439.311" y="225"/><use href="#AZ"/><use href="#AH" x="540.781" y="225"/><path d="M1308.631 1021.368l-4.208 12.75c-1.76 5.25-3.213 10.65-4.514 15.975h-.153a234.52 234.52 0 0 0-4.284-15.975l-3.978-12.75h-11.475l11.016 30.975c1.53 4.275 1.836 5.475 1.836 6.9 0 3.75-2.831 6.15-7.115 6.15-1.401.025-2.797-.178-4.131-.6v8.4c1.833.401 3.706.602 5.585.6 9.716 0 14.612-3.375 18.513-14.1l13.923-38.325h-11.016z"/><use href="#AE" x="828.845" y="225"/><use href="#AY" x="583.868"/><use href="#AJ" x="578.405" y="225"/><use href="#AK" x="577.389" y="225"/><use href="#AH" x="828.601" y="225"/><use href="#Q" x="-661.581" y="825.001"/><use href="#T" x="-794.818" y="825.001"/><use href="#P" x="-553.584" y="825.001"/><use href="#P" x="-509.448" y="825.001"/><use href="#I" x="47.996" y="825.001"/><use href="#J" x="47.957" y="825.001"/><use href="#U" x="-719.851" y="825.001"/><use href="#L" x="-88.039" y="825.001"/><use href="#Aa"/><use href="#V" x="-652.161" y="825.001"/><path d="M506.2 1128.243c-4.5 0-8.325-2.775-8.625-10.65h27.375c.111-3.293-.294-6.583-1.2-9.75a17.55 17.55 0 0 0-17.625-12.675c-11.925 0-18.9 8.7-18.9 19.95 0 12.15 6.975 20.55 18.975 20.55 10.125 0 16.725-5.775 18.225-12.75H513.7c-.525 3.075-3.3 5.325-7.5 5.325zm-.075-25.65c4.2 0 7.65 2.625 8.325 8.4H497.8c.825-5.775 4.05-8.4 8.325-8.4z"/><use href="#M" x="-51.969" y="825.001"/><use href="#U" x="-512.972" y="825.001"/><use href="#H" x="409.46" y="825.001"/><use href="#L" x="162.975" y="825.001"/><use href="#U" x="-403.514" y="825.001"/><use href="#h" x="-650.461" y="600.001"/><use href="#S" x="-164.975" y="825.001"/><use href="#U" x="-307.594" y="825.001"/><use href="#J" x="528.514" y="825.001"/><use href="#c" x="446.307" y="675.001"/><use href="#I" x="643.337" y="825.001"/><use href="#X" x="-429.098" y="825.001"/><use href="#N" x="328.939" y="825.001"/><use href="#a" y="750.005"/><path d="M237.01 1154.872c-15.675 0-25.275 10.575-25.275 27.9s9.6 27.9 25.275 27.9 25.275-10.575 25.275-27.9-9.6-27.9-25.275-27.9zm0 9.75c8.625 0 13.875 6.9 13.875 18.15s-5.25 18.15-13.875 18.15-13.875-6.9-13.875-18.15 5.25-18.15 13.875-18.15z"/><use href="#P" x="-471.332" y="900.005"/><use href="#V" x="-808.616" y="900.005"/><use href="#R" x="-495.582" y="900.005"/><use href="#U" x="-691.451" y="900.005"/><use href="#H" x="230.969" y="900.005"/><use href="#T" x="-503.785" y="900.005"/><use href="#P" x="-262.563" y="900.005"/><use href="#W" x="-706.047" y="900.005"/><use href="#U" x="-495.982" y="900.005"/><use href="#H" x="426.439" y="900.005"/><use href="#L" x="179.942" y="900.005"/><use href="#U" x="-386.558" y="900.005"/><use href="#I" x="509.735" y="900.005"/><use href="#i" x="-592.142" y="675.005"/><use href="#I" x="588.309" y="900.005"/><use href="#J" x="588.259" y="900.005"/><use href="#Ab"/><use href="#I" x="714.879" y="900.005"/><use href="#b" x="647.775" y="750.005"/><use href="#U" x="-51.393" y="900.005"/><use href="#R" x="246.1" y="900.005"/><use href="#Z" x="695.854" y="825.005"/><use href="#c" x="774.562" y="750.005"/><use href="#L" x="743.179" y="900.005"/><use href="#K" x="900.478" y="900.005"/><use href="#L" x="841.559" y="900.005"/><use href="#R" x="525.219" y="900.005"/><use href="#x" x="1245.692" y="450.005"/><use href="#J" x="1167.756" y="900.005"/><use href="#Z" x="1049.294" y="825.005"/><use href="#f" x="1060.123" y="675.005"/><use href="#L" x="-350.546" y="975.005"/><use href="#Q" x="-603.77" y="975.005"/><use href="#T" x="-737.108" y="975.005"/><use href="#P" x="-495.977" y="975.005"/><use href="#P" x="-451.941" y="975.005"/><use href="#I" x="105.402" y="975.005"/><use href="#J" x="105.262" y="975.005"/><use href="#U" x="-658.749" y="975.005"/><use href="#L" x="-27.039" y="975.005"/><use href="#Aa" x="60.899" y="150.004"/><use href="#V" x="-591.363" y="975.005"/><use href="#I" x="323.088" y="975.005"/><use href="#K" x="254.451" y="975.005"/><use href="#L" x="195.437" y="975.005"/><use href="#S" x="-172.962" y="975.005"/><use href="#L" x="294.642" y="975.005"/><use href="#H" x="643.075" y="975.005"/><use href="#c" x="489.291" y="825.005"/><use href="#S" x="31.315" y="975.005"/><use href="#Aa" x="525.987" y="150.004"/><use href="#L" x="521.994" y="975.005"/><use href="#P" x="295.193" y="975.005"/><use href="#Q" x="295.054" y="975.005"/><use href="#S" x="259.27" y="975.005"/><use href="#T" x="217.8" y="975.005"/><use href="#U" x="119.899" y="975.005"/><use href="#U" x="145.709" y="975.005"/><use href="#T" x="289.16" y="975.005"/><use href="#P" x="530.288" y="975.005"/><use href="#W" x="86.72" y="975.005"/><use href="#L" x="905.129" y="975.005"/><use href="#U" x="338.539" y="975.005"/><use href="#U" x="382.099" y="975.005"/><use href="#H" x="1304.43" y="975.005"/><use href="#I" x="1304.286" y="975.005"/><use href="#H" x="-59.925" y="1050.005"/><path d="M183.81 1353.247c-4.5 0-8.325-2.775-8.625-10.65h27.375c.111-3.293-.294-6.583-1.2-9.75a17.55 17.55 0 0 0-17.625-12.675c-11.925 0-18.9 8.7-18.9 19.95 0 12.15 6.975 20.55 18.975 20.55 10.125 0 16.725-5.775 18.225-12.75H191.31c-.525 3.075-3.3 5.325-7.5 5.325zm-.075-25.65c4.2 0 7.65 2.625 8.325 8.4h-16.65c.825-5.775 4.05-8.4 8.325-8.4z"/><use href="#L" x="-264.372" y="1050.005"/><use href="#Q" x="-535.283" y="1050.005"/><use href="#Z" x="-105.735" y="975.005"/><use href="#x" x="186.332" y="600.005"/><use href="#T" x="-567.835" y="1050.005"/><use href="#U" x="-665.678" y="1050.005"/><use href="#M" x="-142.428" y="1050.005"/><use href="#N" x="-142.503" y="1050.005"/><use href="#Ac"/><use href="#I" x="333.338" y="1050.005"/><use href="#S" x="-279.194" y="1050.005"/><use href="#S" x="-240.794" y="1050.005"/><use href="#S" x="-186.045" y="1050.005"/><use href="#L" x="261.937" y="1050.005"/><use href="#T" x="-186.198" y="1050.005"/><use href="#Q" x="10.825" y="1050.005"/><use href="#X" x="-502.289" y="1050.005"/><use href="#O" x="-466.433" y="1125.005"/><use href="#L" x="-240.076" y="1125.005"/><use href="#P" x="-467.042" y="1125.005"/><use href="#Q" x="-467.347" y="1125.005"/><use href="#R" x="-467.652" y="1125.005"/><path d="M409.603 1396.372v7.8h6.3v30.3h10.35v-30.3h7.2v-7.8h-7.2v-2.175c0-4.35 1.875-5.925 5.55-5.925a6.75 6.75 0 0 1 1.875.225v-7.425a25.2 25.2 0 0 0-5.175-.6c-8.175 0-12.6 4.125-12.6 12.45v3.45h-6.3zm29.925 38.1h10.5v-38.1h-10.5v38.1zm0-53.4v9h10.5v-9h-10.5z"/><use href="#P" x="-281.519" y="1125.005"/><use href="#T" x="-459.048" y="1125.005"/><use href="#S" x="-359.678" y="1125.005"/><use href="#H" x="377.572" y="1125.005"/><use href="#I" x="377.267" y="1125.005"/><use href="#Q" x="-137.62" y="1125.005"/><use href="#H" x="523.875" y="1125.005"/><use href="#T" x="-211.135" y="1125.005"/><use href="#S" x="-111.765" y="1125.005"/><use href="#Aa" x="398.86" y="300.004"/><use href="#I" x="641.899" y="1125.005"/><use href="#I" x="684.494" y="1125.005"/><use href="#J" x="684.189" y="1125.005"/><use href="#L" x="521.651" y="1125.005"/><use href="#P" x="294.683" y="1125.005"/><use href="#Q" x="294.379" y="1125.005"/><use href="#V" x="16.99" y="1125.005"/><use href="#Z" x="743.034" y="1050.005"/><use href="#Z" x="786.904" y="1050.005"/><use href="#Ab" x="341.275" y="225"/><use href="#I" x="1055.906" y="1125.005"/><use href="#Q" x="541.014" y="1125.005"/><use href="#Q" x="600.854" y="1125.005"/><use href="#Z" x="1013.824" y="1050.005"/><use href="#K" x="1116.328" y="1125.005"/><use href="#P" x="791.038" y="1125.005"/><use href="#AH" x="-581.594" y="675.004"/><use href="#AC" x="-274.557" y="675.004"/><use href="#Ad"/><use href="#AA" x="-72.164" y="675.004"/><path d="M335.153 1470.172c-9.639 0-16.065 4.875-16.065 11.7 0 8.85 6.962 10.35 13.464 12 6.044 1.575 8.951 2.25 8.951 5.55 0 2.25-1.913 3.675-5.661 3.675-4.437 0-6.809-2.175-6.809-6H318.17c0 9.225 6.656 13.575 17.442 13.575 10.557 0 17.136-4.8 17.136-11.925 0-9.3-7.65-11.025-14.612-12.825-5.891-1.5-8.339-2.175-8.339-4.875 0-2.175 1.836-3.525 5.279-3.525 3.825 0 6.12 1.65 6.12 5.55h10.251c0-8.475-6.12-12.9-16.295-12.9z"/><use href="#AG" x="-274.918" y="675.004"/><use href="#AF" x="-217.389" y="675.004"/><use href="#AG" x="-217.718" y="675.004"/><use href="#AZ" x="-699.967" y="450.004"/><use href="#AH" x="-158.5" y="675.004"/><use href="#AY" x="-199.306" y="450.004"/><use href="#AB" x="226.034" y="675.004"/><use href="#AA" x="317.377" y="675.004"/><use href="#AM" x="-517.002" y="675.004"/><path d="M775.391 1471.372v7.8h6.426v30.3h10.557v-30.3h7.344v-7.8h-7.344v-2.175c0-4.35 1.913-5.925 5.661-5.925.645-.013 1.289.063 1.913.225v-7.425c-1.734-.378-3.503-.579-5.279-.6-8.339 0-12.852 4.125-12.852 12.45v3.45h-6.426zm30.524-15.3v53.4h10.71v-53.4h-10.71z"/><use href="#AJ" x="5.268" y="675.004"/><use href="#AJ" x="51.494" y="675.004"/><use href="#AY" x="131.173" y="450.004"/><path d="M960.112 1456.072h-10.71v53.4h10.404v-5.025h.153c2.372 3.9 6.656 6 11.169 6 9.792 0 16.142-7.875 16.142-20.025s-6.273-20.025-15.989-20.025c-4.393-.093-8.536 1.994-11.016 5.55h-.153v-19.875zm7.574 22.35c5.126 0 8.415 4.725 8.415 12s-3.29 12-8.415 12c-4.82 0-8.109-4.425-8.109-12s3.29-12 8.109-12z"/><use href="#AJ" x="174.138" y="675.004"/><use href="#AH" x="336.811" y="675.004"/><use href="#AY" x="296.003" y="450.004"/><use href="#AM" x="-114.35" y="675.004"/><use href="#AG" x="523.377" y="675.004"/><use href="#AC" x="786.641" y="675.004"/><use href="#AI" x="478.065" y="675.004"/><use href="#AH" x="594.941" y="675.004"/><use href="#AC" x="901.971" y="675.004"/><use href="#Ad" x="1176.535"/><use href="#AA" x="1104.364" y="675.004"/><use href="#AG" x="861.187" y="675.004"/><use href="#AG" x="901.607" y="675.004"/><use href="#Ae"/><use href="#Af"/><use href="#Ag"/><use href="#Ah"/><use href="#Af" x="147.944"/><use href="#Ai"/><use href="#Aj"/><use href="#Ak"/><use href="#Ag" x="231.143"/><use href="#Al"/><path d="M544.561 1545.172c-12.014 0-19.646 7.875-19.646 20.25s7.632 20.25 19.646 20.25 19.646-7.875 19.646-20.25-7.632-20.25-19.646-20.25zm0 8.1c5.214 0 8.538 4.725 8.538 12.15s-3.325 12.15-8.538 12.15-8.538-4.725-8.538-12.15 3.325-12.15 8.538-12.15zm40.702-7.95c-9.672 0-15.868 7.5-15.868 19.35s6.12 19.35 15.717 19.35c4.35.156 8.448-2.022 10.73-5.7h.151v3.375c0 7.425-2.947 9.825-7.707 9.825-4.005 0-6.423-1.725-6.649-4.65h-10.579c.604 7.5 6.423 12.15 17.001 12.15 11.032 0 18.21-5.4 18.21-16.95v-35.7h-9.974v5.1h-.151c-2.947-4.35-6.196-6.15-10.881-6.15zm2.871 8.625c4.987 0 8.161 4.275 8.161 10.725s-3.174 10.725-8.161 10.725c-4.685 0-7.707-4.125-7.707-10.725s3.022-10.725 7.707-10.725z"/><use href="#Ak" x="219.53"/><use href="#Al" x="155.5"/><use href="#Ae" x="560.71"/><use href="#Ak" x="332.282"/><use href="#Am"/><use href="#Ae" x="695.053"/><use href="#Ai" x="506.629"/><path d="M927.218 1545.472c-4.969-.181-9.649 2.314-12.241 6.525-2.116-4.275-6.045-6.525-11.41-6.525-4.221-.167-8.236 1.812-10.654 5.25h-.151v-4.35h-9.974v38.1h10.579v-19.575c0-7.125 2.418-11.175 7.027-11.175 3.929 0 6.045 2.85 6.045 7.725v23.025h10.579v-19.575c0-7.2 2.494-11.175 7.027-11.175 3.703 0 6.045 2.625 6.045 8.4v22.35h10.579v-23.4c0-10.35-5.214-15.6-13.45-15.6zm36.778-.3c-9.521 0-15.868 4.875-15.868 11.7 0 8.85 6.876 10.35 13.299 12 5.969 1.575 8.841 2.25 8.841 5.55 0 2.25-1.889 3.675-5.592 3.675-4.383 0-6.725-2.175-6.725-6h-10.73c0 9.225 6.574 13.575 17.228 13.575 10.427 0 16.926-4.8 16.926-11.925 0-9.3-7.556-11.025-14.432-12.825-5.818-1.5-8.236-2.175-8.236-4.875 0-2.175 1.813-3.525 5.214-3.525 3.778 0 6.045 1.65 6.045 5.55h10.125c0-8.475-6.045-12.9-16.095-12.9z"/><use href="#Ak" x="592.595"/><use href="#Aj" x="655.042"/><path d="M1069.187 1538.272a6.85 6.85 0 0 1 1.889.225v-7.425a25.57 25.57 0 0 0-5.214-.6c-8.236 0-12.694 4.125-12.694 12.45v3.45h-6.347v7.8h6.347v30.3h10.427v-30.3h7.254v-7.8h-7.254v-2.175c0-4.35 1.889-5.925 5.592-5.925z"/><use href="#Af" x="927.031"/><use href="#Ah" x="864.051"/><use href="#Ag" x="971.511"/><use href="#Al" x="740.368"/><use href="#Ae" x="1145.585"/><use href="#Af" x="1145.58"/><use href="#Al" x="850.708"/><path d="M1456.892 1546.372h-10.503l-2.871 14.7c-1.079 5.5-2.011 11.027-2.796 16.575h-.151c-.908-5.508-1.992-10.985-3.249-16.425l-3.4-14.85h-14.508l-3.4 14.85c-1.258 5.44-2.341 10.917-3.249 16.425h-.151c-.785-5.548-1.717-11.075-2.796-16.575l-2.871-14.7h-10.503l8.463 38.1h15.112l3.4-15c1.209-5.325 2.267-10.8 3.174-16.275h.151c.907 5.475 1.965 10.95 3.174 16.275l3.4 15h15.112l8.463-38.1z"/><use href="#Ak" x="1064.942"/><use href="#Am" x="732.665"/><use href="#Ak" x="1135.262"/><use href="#AW" x="-185.982" y="600.004"/><use href="#AJ" x="-653.307" y="825.004"/><use href="#AZ" x="-971.755" y="600.004"/><use href="#z" x="-9.609" y="825.004"/><use href="#AJ" x="-484.415" y="825.004"/><use href="#AK" x="-485.503" y="825.004"/><use href="#AD" x="-44.788" y="825.004"/><use href="#AW" x="162.011" y="600.004"/><use href="#AX" x="161.938" y="600.004"/><use href="#AH" x="-123.274" y="825.004"/><use href="#AB" x="230.174" y="825.004"/><use href="#AH" x="-36.516" y="825.004"/><use href="#AY" x="-78.081" y="600.004"/><use href="#AC" x="300.983" y="825.004"/><use href="#AJ" x="-34.869" y="825.004"/><use href="#AW" x="522.658" y="600.004"/><use href="#AI" x="121.952" y="825.004"/><use href="#AD" x="447.572" y="825.004"/><use href="#AK" x="95.757" y="825.004"/><path d="M1030.644 1646.947h11.781v12.525h-11.781z"/><use href="#y" x="888.872" y="825.004"/><path d="M1152.066 1606.072h-10.787v20.55c0 7.725.23 15.45.612 23.175h-.153c-3.098-7.442-6.414-14.795-9.945-22.05l-10.557-21.675h-15.989v53.4h10.787v-20.55c0-7.725-.23-15.45-.612-23.175h.153c3.06 7.425 6.503 14.925 9.945 22.05l10.557 21.675h15.989v-53.4z"/><use href="#AJ" x="341.015" y="825.004"/><use href="#AZ" x="22.57" y="600.004"/><use href="#AZ" x="104.17" y="600.004"/><use href="#AI" x="575.005" y="825.004"/><use href="#AH" x="691.111" y="825.004"/><use href="#AC" x="997.391" y="825.004"/><use href="#AM" x="258.45" y="825.004"/><use href="#AJ" x="709.365" y="825.004"/><path d="M145.77 1696.372l-4.145 12.75c-1.733 5.25-3.165 10.65-4.447 15.975h-.151a237.34 237.34 0 0 0-4.221-15.975l-3.919-12.75h-11.305l10.853 30.975c1.507 4.275 1.809 5.475 1.809 6.9 0 3.75-2.789 6.15-7.009 6.15-1.381.025-2.756-.178-4.07-.6v8.4c1.806.401 3.651.602 5.502.6 9.572 0 14.395-3.375 18.239-14.1l13.717-38.325H145.77z"/><use href="#An"/><path d="M217.189 1735.372c4.457.051 8.655-2.08 11.23-5.7h.151v4.8h9.873v-38.1h-10.551v20.4c0 6.9-3.165 10.35-7.537 10.35-4.145 0-6.708-2.625-6.708-8.4v-22.35h-10.551v23.4c0 10.35 5.502 15.6 14.094 15.6z"/><use href="#Ao"/><use href="#Ap"/><path d="M347.197 1696.372h-10.551v38.1h10.551v-38.1zm0-15.3h-10.551v9h10.551v-9z"/><use href="#Aq"/><use href="#Ar"/><use href="#Ao" x="193.134"/><use href="#Ap" x="193.134"/><path d="M546.361 1728.247c-4.522 0-8.366-2.775-8.667-10.65h27.509a31.43 31.43 0 0 0-1.206-9.75c-2.255-7.788-9.575-13.026-17.711-12.675-11.983 0-18.992 8.7-18.992 19.95 0 12.15 7.009 20.55 19.068 20.55 10.175 0 16.807-5.775 18.314-12.75h-10.777c-.528 3.075-3.316 5.325-7.537 5.325zm-.075-25.65c4.221 0 7.687 2.625 8.366 8.4H537.92c.829-5.775 4.07-8.4 8.366-8.4zm47.657-6.225l-4.145 12.75c-1.733 5.25-3.165 10.65-4.447 15.975h-.151a237.34 237.34 0 0 0-4.221-15.975l-3.919-12.75h-11.305l10.853 30.975c1.507 4.275 1.809 5.475 1.809 6.9 0 3.75-2.789 6.15-7.009 6.15-1.381.025-2.756-.178-4.07-.6v8.4c1.806.401 3.651.602 5.502.6 9.572 0 14.395-3.375 18.239-14.1l13.717-38.325h-10.853z"/><use href="#Ar" x="226.083"/><use href="#As"/><use href="#As" x="43.053"/><path d="M771.836 1695.397c-4.476-.076-8.659 2.205-11.004 6h-.151v-5.025h-10.25v51.975h10.551v-18.45h.151c2.443 3.556 6.525 5.643 10.853 5.55 9.572 0 15.752-7.875 15.752-20.025s-6.255-20.025-15.902-20.025zm-3.392 8.025c5.05 0 8.29 4.725 8.29 12s-3.241 12-8.29 12c-4.748 0-7.989-4.425-7.989-12s3.241-12 7.989-12z"/><use href="#Ao" x="546.809"/><use href="#Ap" x="546.809"/><use href="#As" x="218.379"/><use href="#At"/><use href="#An" x="831.553"/><path d="M1049.115 1695.322c-9.647 0-15.827 7.5-15.827 19.35s6.105 19.35 15.676 19.35c4.338.156 8.426-2.022 10.702-5.7h.151v3.375c0 7.425-2.939 9.825-7.687 9.825-3.994 0-6.406-1.725-6.632-4.65h-10.551c.603 7.5 6.406 12.15 16.958 12.15 11.004 0 18.163-5.4 18.163-16.95v-35.7h-9.948v5.1h-.151c-2.939-4.35-6.18-6.15-10.853-6.15zm2.864 8.625c4.974 0 8.14 4.275 8.14 10.725s-3.165 10.725-8.14 10.725c-4.673 0-7.687-4.125-7.687-10.725s3.015-10.725 7.687-10.725z"/><use href="#Au"/><path d="M1151.518 1695.172c-10.928 0-16.204 5.85-16.581 13.125h10.25c.151-3.6 2.412-5.775 6.331-5.775 3.693 0 6.255 1.95 6.255 6.75v1.35a124.03 124.03 0 0 0-9.572 1.05c-11.079 1.725-14.847 5.925-14.847 12.15 0 6.6 4.899 11.55 13.038 11.55 4.905.255 9.599-2.01 12.436-6h.151a21.65 21.65 0 0 0 .528 5.1h9.496a39.79 39.79 0 0 1-1.055-10.425v-13.8c0-9.975-5.577-15.075-16.43-15.075zm6.255 23.25c0 3.45-.377 5.475-2.186 7.275-1.652 1.472-3.813 2.252-6.029 2.175-3.693 0-5.653-1.95-5.653-4.8 0-3.075 1.809-4.5 6.18-5.25 2.261-.375 5.426-.675 7.687-.825v1.425z"/><use href="#Aq" x="820.295"/><use href="#At" x="273.946"/><use href="#Av"/><use href="#An" x="1151.732"/><use href="#An" x="1196.072"/><use href="#Au" x="320.405"/><use href="#Ao" x="1172.166"/><use href="#As" x="798.344"/><use href="#Av" x="221.87"/><use href="#Au" x="454.355"/><use href="#L" x="-350.546" y="1500.005"/><use href="#J" x="-105.716" y="1500.005"/><use href="#Z" x="-223.791" y="1425.005"/><use href="#c" x="-144.695" y="1350.005"/><use href="#P" x="-460.602" y="1500.005"/><use href="#Q" x="-460.268" y="1500.005"/><use href="#x" x="215.632" y="1050.005"/><use href="#Z" x="-9.128" y="1425.005"/><use href="#J" x="180.711" y="1500.005"/><use href="#M" x="-110.252" y="1500.005"/><use href="#g" x="-627.772" y="1275.005"/><use href="#L" x="90.694" y="1500.005"/><use href="#J" x="335.524" y="1500.005"/><use href="#R" x="-194.926" y="1500.005"/><use href="#d" x="210.368" y="1350.005"/><use href="#N" x="114.826" y="1500.005"/><use href="#Y" y="1500.005"/><use href="#I" x="10.08" y="1575.005"/><use href="#S" x="-602.648" y="1575.005"/><use href="#S" x="-564.445" y="1575.005"/><use href="#V" x="-749.899" y="1575.005"/><use href="#Z" x="-23.811" y="1500.005"/><use href="#Z" x="20.091" y="1500.005"/><use href="#Ab" x="-425.505" y="675"/><use href="#I" x="289.155" y="1575.005"/><use href="#Q" x="-225.699" y="1575.005"/><use href="#O" x="-32.363" y="1575.005"/><use href="#L" x="194.028" y="1575.005"/><use href="#P" x="-32.905" y="1575.005"/><use href="#Q" x="-33.176" y="1575.005"/><use href="#R" x="-33.448" y="1575.005"/><use href="#T" x="-113.791" y="1575.005"/><use href="#P" x="127.21" y="1575.005"/><use href="#U" x="-151.772" y="1575.005"/><use href="#H" x="770.428" y="1575.005"/><use href="#I" x="770.157" y="1575.005"/><use href="#I" x="825.751" y="1575.005"/><use href="#R" x="265.449" y="1575.005"/><use href="#I" x="903.206" y="1575.005"/><use href="#X" x="-169.46" y="1575.005"/><use href="#Ac" x="701.507" y="525"/><use href="#I" x="1034.646" y="1575.005"/><use href="#S" x="437.77" y="1575.005"/><use href="#U" x="278.529" y="1575.005"/><use href="#c" x="1003.662" y="1425.005"/><use href="#Q" x="642.984" y="1575.005"/><use href="#T" x="509.51" y="1575.005"/><use href="#I" x="1263.816" y="1575.005"/><use href="#Q" x="748.964" y="1575.005"/><path d="M145.335 1904.872c-15.15 0-24.45 10.65-24.45 27.9 0 17.325 9.225 27.9 24.225 27.9 13.05 0 21.525-7.275 22.575-19.95H156.36c-.825 6.525-4.95 10.2-11.25 10.2-7.95 0-12.825-6.825-12.825-18.15 0-11.25 4.95-18.15 13.05-18.15 6.225 0 10.35 3.75 11.025 9.975h11.1c-.525-11.625-8.925-19.725-22.125-19.725z"/><use href="#L" x="-298.959" y="1650.005"/><use href="#P" x="-525.782" y="1650.005"/><use href="#Q" x="-525.944" y="1650.005"/><use href="#R" x="-526.107" y="1650.005"/><use href="#h" x="-1011.194" y="1425.005"/><use href="#S" x="-525.832" y="1650.005"/><use href="#x" x="244.134" y="1200.005"/><use href="#L" x="-39.262" y="1650.005"/><use href="#AN" x="222.306" y="1050.004"/><use href="#I" x="288.834" y="1650.005"/><use href="#X" x="-783.725" y="1650.005"/><path d="M203.846 1979.872c-14.847 0-23.961 10.65-23.961 27.9 0 17.325 9.041 27.9 23.741 27.9 12.789 0 21.095-7.275 22.124-19.95H214.65c-.809 6.525-4.851 10.2-11.025 10.2-7.791 0-12.569-6.825-12.569-18.15 0-11.25 4.851-18.15 12.789-18.15 6.101 0 10.143 3.75 10.805 9.975h10.878c-.515-11.625-8.747-19.725-21.683-19.725z"/><use href="#Aw"/><use href="#Ax"/><use href="#Ay"/><path d="M378.296 1996.372l-4.043 12.75c-1.691 5.25-3.087 10.65-4.337 15.975h-.147a242.2 242.2 0 0 0-4.116-15.975l-3.822-12.75h-11.025l10.584 30.975c1.47 4.275 1.764 5.475 1.764 6.9 0 3.75-2.72 6.15-6.836 6.15-1.346.025-2.688-.178-3.969-.6v8.4c1.761.401 3.561.602 5.366.6 9.335 0 14.039-3.375 17.787-14.1l13.377-38.325h-10.584z"/><use href="#Az"/><use href="#Aw" x="210.527"/><use href="#BA"/><use href="#Ay" x="186.713"/><path d="M553.174 2021.947h-11.319v12.525h3.749l-4.043 12.9h6.174l5.439-12.9v-12.525zm18.584-19.275h9.629v-10.65h-3.234l3.455-10.95h-5.219l-4.631 10.95v10.65zm13.377 0h9.629v-10.65h-3.234l3.455-10.95h-5.219l-4.631 10.95v10.65zm82.311-21.6h-10.584l-3.749 19.425c-1.47 7.65-2.793 15.525-3.822 23.1h-.147a391.68 391.68 0 0 0-4.778-23.1l-4.557-19.425h-13.671l-4.557 19.425a391.68 391.68 0 0 0-4.778 23.1h-.147a432.22 432.22 0 0 0-3.822-23.1l-3.749-19.425h-10.584l10.952 53.4h14.039l4.851-21.15c1.764-7.575 3.308-15.225 4.557-22.875h.147c1.25 7.65 2.793 15.3 4.557 22.875l4.851 21.15h14.039l10.952-53.4z"/><use href="#BB"/><path d="M779.826 1996.372h-10.217l-2.793 14.7a324.19 324.19 0 0 0-2.72 16.575h-.147a269.02 269.02 0 0 0-3.161-16.425l-3.308-14.85H743.37l-3.308 14.85a269.02 269.02 0 0 0-3.161 16.425h-.147a324.19 324.19 0 0 0-2.72-16.575l-2.793-14.7h-10.217l8.232 38.1h14.7l3.308-15c1.176-5.325 2.205-10.8 3.087-16.275h.147c.882 5.475 1.911 10.95 3.087 16.275l3.308 15h14.7l8.232-38.1z"/><use href="#BB" x="113.886"/><use href="#BC"/><use href="#BB" x="181.101"/><path d="M906.903 1996.372v37.35c0 5.475-1.911 7.05-5.513 7.05-.668.007-1.334-.068-1.985-.225v7.575c1.47.375 3.161.6 5.072.6 7.424 0 12.716-3.825 12.716-13.425v-38.925h-10.29zm10.29-15.3h-10.29v9h10.29v-9z"/><use href="#BD"/><use href="#Az" x="563.903"/><use href="#BE"/><path d="M1061.91 1995.397c-4.365-.076-8.445 2.205-10.731 6h-.147v-5.025h-9.996v51.975h10.29v-18.45h.147c2.383 3.556 6.364 5.643 10.584 5.55 9.335 0 15.362-7.875 15.362-20.025s-6.101-20.025-15.509-20.025zm-3.308 8.025c4.925 0 8.085 4.725 8.085 12s-3.161 12-8.085 12c-4.631 0-7.791-4.425-7.791-12s3.161-12 7.791-12z"/><use href="#Aw" x="851.302"/><use href="#Az" x="717.809"/><use href="#Az" x="754.919"/><use href="#BA" x="714.988"/><use href="#Ax" x="944.394"/><use href="#BF"/><use href="#BE" x="306.198"/><use href="#BG"/><use href="#BC" x="555.26"/><path d="M1422.498 1995.172c-11.687 0-19.11 7.875-19.11 20.25s7.424 20.25 19.11 20.25 19.11-7.875 19.11-20.25-7.424-20.25-19.11-20.25zm0 8.1c5.072 0 8.306 4.725 8.306 12.15s-3.234 12.15-8.306 12.15-8.306-4.725-8.306-12.15 3.234-12.15 8.306-12.15z"/><use href="#BD" x="521.99"/><use href="#BF" x="232.29"/><use href="#BG" x="195.88"/><use href="#L" x="-350.546" y="1800.006"/><use href="#P" x="-577.671" y="1800.006"/><use href="#Q" x="-578.134" y="1800.006"/><use href="#BH"/><use href="#U" x="-773.258" y="1800.006"/><use href="#H" x="148.749" y="1800.006"/><use href="#Z" x="-39.947" y="1725.006"/><use href="#c" x="38.352" y="1650.006"/><use href="#W" x="-765.96" y="1800.006"/><use href="#H" x="322.166" y="1800.006"/><use href="#U" x="-531.094" y="1800.006"/><path d="M570.447 2083.448h72v8.25h-72z"/><use href="#N" x="50.854" y="1800.006"/><use href="#a" y="1725.006"/><use href="#BH" x="-52.264" y="75"/><use href="#h" x="-1116.298" y="1650.006"/><use href="#f" x="-195.346" y="1650.006"/><use href="#P" x="-405.389" y="1875.006"/><use href="#Z" x="-36.335" y="1800.006"/><use href="#U" x="-657.522" y="1875.006"/><use href="#c" x="83.913" y="1725.006"/><use href="#P" x="-232.522" y="1875.006"/><use href="#H" x="368.938" y="1875.006"/><use href="#L" x="122.295" y="1875.006"/><use href="#b" x="299.541" y="1725.006"/><use href="#b" x="343.369" y="1725.006"/><use href="#R" x="-106.454" y="1875.006"/><use href="#R" x="-53.448" y="1875.006"/><use href="#Z" x="396.156" y="1800.006"/><use href="#c" x="474.722" y="1725.006"/><use href="#Q" x="130.341" y="1875.006"/><use href="#T" x="-3.055" y="1875.006"/><use href="#Q" x="193.849" y="1875.006"/><use href="#X" x="-319.387" y="1875.006"/><use href="#BH" x="790.847" y="75"/><use href="#U" x="-0.327" y="1875.006"/><use href="#h" x="-247.43" y="1650.006"/><use href="#S" x="237.9" y="1875.006"/><use href="#Aa" x="748.737" y="1050.005"/><use href="#I" x="991.886" y="1875.006"/><use href="#I" x="1034.586" y="1875.006"/><use href="#P" x="563.238" y="1875.006"/><use href="#K" x="1008.348" y="1875.006"/><use href="#H" x="1240.65" y="1875.006"/><use href="#L" x="994.009" y="1875.006"/><use href="#U" x="427.359" y="1875.006"/><use href="#d" x="1071.945" y="1725.006"/><path d="M163.485 2206.073H118.86v9.45h16.8v43.95h11.025v-43.95h16.8v-9.45z"/><use href="#H" x="-14.82" y="1950.006"/><use href="#J" x="-57.164" y="1950.006"/><use href="#I" x="12.466" y="1950.006"/><path d="M298.98 2253.248c-4.5 0-8.325-2.775-8.625-10.65h27.375c.111-3.293-.294-6.583-1.2-9.75a17.55 17.55 0 0 0-17.625-12.675c-11.925 0-18.9 8.7-18.9 19.95 0 12.15 6.975 20.55 18.975 20.55 10.125 0 16.725-5.775 18.225-12.75H306.48c-.525 3.075-3.3 5.325-7.5 5.325zm-.075-25.65c4.2 0 7.65 2.625 8.325 8.4h-16.65c.825-5.775 4.05-8.4 8.325-8.4z"/><use href="#M" x="-259.345" y="1950.006"/><use href="#x" x="192.172" y="1500.006"/><use href="#Z" x="-33.116" y="1875.006"/><use href="#c" x="45.452" y="1800.006"/><use href="#J" x="200.177" y="1950.006"/><use href="#R" x="-314.57" y="1950.006"/><use href="#I" x="323.267" y="1950.006"/><use href="#L" x="118.774" y="1950.006"/><use href="#J" x="363.077" y="1950.006"/><use href="#S" x="-221.899" y="1950.006"/><use href="#S" x="-164.652" y="1950.006"/><use href="#T" x="-206.172" y="1950.006"/><use href="#P" x="34.906" y="1950.006"/><use href="#AN" x="567.278" y="1350.005"/><use href="#I" x="633.774" y="1950.006"/><use href="#O" x="270.6" y="1950.006"/><use href="#Z" x="555.283" y="1875.006"/><use href="#J" x="744.595" y="1950.006"/><use href="#b" x="705.92" y="1800.006"/><use href="#c" x="706.061" y="1800.006"/><use href="#S" x="248.03" y="1950.006"/><use href="#d" x="706.345" y="1800.006"/><use href="#N" x="610.271" y="1950.006"/></g><defs ><path id="B" d="M325.457 181.067h10.535v53.4h-10.535z"/><path id="C" d="M586.074 195.167c-11.965 0-19.565 7.875-19.565 20.25s7.6 20.25 19.565 20.25 19.565-7.875 19.565-20.25-7.6-20.25-19.565-20.25zm0 8.1c5.192 0 8.503 4.725 8.503 12.15s-3.311 12.15-8.503 12.15-8.503-4.725-8.503-12.15 3.311-12.15 8.503-12.15z"/><path id="D" d="M690.119 226.592c-3.612 0-4.967-1.65-4.967-5.85v-16.575h7.299v-7.8h-7.299v-9.9h-10.535v9.9h-6.171v7.8h6.171v18.45c0 8.85 3.838 12.375 12.642 12.375 1.881-.003 3.754-.255 5.569-.75v-8.025c-.88.256-1.792.382-2.709.375z"/><path id="E" d="M730.39 181.067h-10.535v53.4h10.535v-20.4c0-6.975 3.161-10.35 7.525-10.35 4.139 0 6.697 2.625 6.697 8.4v22.35h10.535v-23.4c0-10.35-5.493-15.6-14.072-15.6-4.124-.059-8.032 1.833-10.535 5.1h-.151v-19.5z"/><path id="F" d="M1029.471 195.167c-9.482 0-15.803 4.875-15.803 11.7 0 8.85 6.848 10.35 13.244 12 5.945 1.575 8.804 2.25 8.804 5.55 0 2.25-1.881 3.675-5.569 3.675-4.365 0-6.697-2.175-6.697-6h-10.686c0 9.225 6.547 13.575 17.157 13.575 10.385 0 16.856-4.8 16.856-11.925 0-9.3-7.525-11.025-14.373-12.825-5.794-1.5-8.202-2.175-8.202-4.875 0-2.175 1.806-3.525 5.192-3.525 3.763 0 6.02 1.65 6.02 5.55h10.084c0-8.475-6.02-12.9-16.028-12.9z"/><path id="G" d="M1070.721 228.242c-4.515 0-8.353-2.775-8.654-10.65h27.466c.111-3.293-.295-6.583-1.204-9.75-2.251-7.788-9.56-13.026-17.684-12.675-11.965 0-18.963 8.7-18.963 19.95 0 12.15 6.998 20.55 19.038 20.55 10.159 0 16.781-5.775 18.286-12.75h-10.761c-.527 3.075-3.311 5.325-7.525 5.325zm-.075-25.65c4.214 0 7.676 2.625 8.353 8.4h-16.706c.828-5.775 4.064-8.4 8.353-8.4z"/><path id="H" d="M193.635 256.067h-10.5v53.4h10.5v-20.4c0-6.975 3.15-10.35 7.5-10.35 4.125 0 6.675 2.625 6.675 8.4v22.35h10.5v-23.4c0-10.35-5.475-15.6-14.025-15.6-4.11-.059-8.005 1.833-10.5 5.1h-.15v-19.5z"/><path id="I" d="M243.809 303.242c-4.5 0-8.325-2.775-8.625-10.65h27.375c.111-3.293-.294-6.583-1.2-9.75a17.55 17.55 0 0 0-17.625-12.675c-11.925 0-18.9 8.7-18.9 19.95 0 12.15 6.975 20.55 18.975 20.55 10.125 0 16.725-5.775 18.225-12.75h-10.725c-.525 3.075-3.3 5.325-7.5 5.325zm-.075-25.65c4.2 0 7.65 2.625 8.325 8.4h-16.65c.825-5.775 4.05-8.4 8.325-8.4z"/><path id="J" d="M289.709 270.767c-4.329-.127-8.361 2.193-10.425 6h-.15v-5.4h-9.675v38.1h10.5v-18c0-7.5 3.45-11.55 9.9-11.55 1.05 0 2.1.15 3.3.375v-9.075a13.65 13.65 0 0 0-3.45-.45z"/><path id="K" d="M410.982 271.367h-10.425l-2.85 14.7c-1.071 5.5-1.996 11.027-2.775 16.575h-.15c-.901-5.508-1.977-10.985-3.225-16.425l-3.375-14.85h-14.4l-3.375 14.85c-1.248 5.44-2.324 10.917-3.225 16.425h-.15c-.779-5.548-1.704-11.075-2.775-16.575l-2.85-14.7h-10.425l8.4 38.1h15l3.375-15c1.2-5.325 2.25-10.8 3.15-16.275h.15c.9 5.475 1.95 10.95 3.15 16.275l3.375 15h15l8.4-38.1z"/><path id="L" d="M488.681 270.167c-10.875 0-16.125 5.85-16.5 13.125h10.2c.15-3.6 2.4-5.775 6.3-5.775 3.675 0 6.225 1.95 6.225 6.75v1.35a122.85 122.85 0 0 0-9.525 1.05c-11.025 1.725-14.775 5.925-14.775 12.15 0 6.6 4.875 11.55 12.975 11.55a14.25 14.25 0 0 0 12.375-6h.15a21.75 21.75 0 0 0 .525 5.1h9.45c-.806-3.414-1.159-6.919-1.05-10.425v-13.8c0-9.975-5.55-15.075-16.35-15.075zm6.225 23.25c0 3.45-.375 5.475-2.175 7.275a8.55 8.55 0 0 1-6 2.175c-3.675 0-5.625-1.95-5.625-4.8 0-3.075 1.8-4.5 6.15-5.25 2.25-.375 5.4-.675 7.65-.825v1.425z"/><path id="M" d="M594.13 296.942h-11.55v12.525h3.825l-4.125 12.9h6.3l5.55-12.9v-12.525z"/><path id="N" d="M606.204 256.067h-9.825v10.65h3.3l-3.525 10.95h5.325l4.725-10.95v-10.65zm13.65 0h-9.825v10.65h3.3l-3.525 10.95h5.325l4.725-10.95v-10.65z"/><path id="O" d="M670.793 254.867c-15.15 0-24.45 10.65-24.45 27.9 0 17.325 9.225 27.9 24.225 27.9 13.05 0 21.525-7.275 22.575-19.95h-11.325c-.825 6.525-4.95 10.2-11.25 10.2-7.95 0-12.825-6.825-12.825-18.15 0-11.25 4.95-18.15 13.05-18.15 6.225 0 10.35 3.75 11.025 9.975h11.1c-.525-11.625-8.925-19.725-22.125-19.725z"/><path id="P" d="M761.767 270.467a13.5 13.5 0 0 0-11.175 5.7h-.15v-4.8h-9.825v38.1h10.5v-20.4c0-6.9 3.15-10.35 7.5-10.35 4.125 0 6.675 2.625 6.675 8.4v22.35h10.5v-23.4c0-10.35-5.475-15.6-14.025-15.6z"/><path id="Q" d="M819.441 256.067h-10.5v19.875h-.15a12.75 12.75 0 0 0-10.8-5.55c-9.525 0-15.675 7.875-15.675 20.025s6.225 20.025 15.825 20.025a12.6 12.6 0 0 0 10.95-6h.15v5.025h10.2v-53.4zm-17.925 22.35c4.725 0 7.95 4.425 7.95 12s-3.225 12-7.95 12c-5.025 0-8.25-4.725-8.25-12s3.225-12 8.25-12z"/><path id="R" d="M851.241 271.367l-4.125 12.75c-1.725 5.25-3.15 10.65-4.425 15.975h-.15c-1.215-5.372-2.616-10.7-4.2-15.975l-3.9-12.75h-11.25l10.8 30.975c1.5 4.275 1.8 5.475 1.8 6.9 0 3.75-2.775 6.15-6.975 6.15a12.45 12.45 0 0 1-4.05-.6v8.4c1.797.401 3.633.602 5.475.6 9.525 0 14.325-3.375 18.15-14.1l13.65-38.325h-10.8z"/><path id="S" d="M896.39 270.167c-9.45 0-15.75 4.875-15.75 11.7 0 8.85 6.825 10.35 13.2 12 5.925 1.575 8.775 2.25 8.775 5.55 0 2.25-1.875 3.675-5.55 3.675-4.35 0-6.675-2.175-6.675-6h-10.65c0 9.225 6.525 13.575 17.1 13.575 10.35 0 16.8-4.8 16.8-11.925 0-9.3-7.5-11.025-14.325-12.825-5.775-1.5-8.175-2.175-8.175-4.875 0-2.175 1.8-3.525 5.175-3.525 3.75 0 6 1.65 6 5.55h10.05c0-8.475-6-12.9-15.975-12.9z"/><path id="T" d="M972.515 271.367h-10.5v38.1h10.5v-38.1zm0-15.3h-10.5v9h10.5v-9z"/><path id="U" d="M1096.756 301.592c-3.6 0-4.95-1.65-4.95-5.85v-16.575h7.275v-7.8h-7.275v-9.9h-10.5v9.9h-6.15v7.8h6.15v18.45c0 8.85 3.825 12.375 12.6 12.375a21.15 21.15 0 0 0 5.55-.75v-8.025c-.877.256-1.787.382-2.7.375z"/><path id="V" d="M1122.025 256.067h10.5v53.4h-10.5z"/><path id="W" d="M1241.5 270.317c-9.6 0-15.75 7.5-15.75 19.35s6.075 19.35 15.6 19.35a12 12 0 0 0 10.65-5.7h.15v3.375c0 7.425-2.925 9.825-7.65 9.825-3.975 0-6.375-1.725-6.6-4.65h-10.5c.6 7.5 6.375 12.15 16.875 12.15 10.95 0 18.075-5.4 18.075-16.95v-35.7h-9.9v5.1h-.15c-2.925-4.35-6.15-6.15-10.8-6.15zm2.85 8.625c4.95 0 8.1 4.275 8.1 10.725s-3.15 10.725-8.1 10.725c-4.65 0-7.65-4.125-7.65-10.725s3-10.725 7.65-10.725z"/><path id="X" d="M1340.655 296.942h11.55v12.525h-11.55z"/><path id="Y" d="M227.235 331.067H216.21v20.925h-21.9v-20.925h-11.025v53.4h11.025v-23.025h21.9v23.025h11.025v-53.4z"/><path id="Z" d="M432.566 345.167c-11.925 0-19.5 7.875-19.5 20.25s7.575 20.25 19.5 20.25 19.5-7.875 19.5-20.25-7.575-20.25-19.5-20.25zm0 8.1c5.175 0 8.475 4.725 8.475 12.15s-3.3 12.15-8.475 12.15-8.475-4.725-8.475-12.15 3.3-12.15 8.475-12.15z"/><path id="a" d="M181.785 427.667h9.825v-10.65h-3.3l3.525-10.95h-5.325l-4.725 10.95v10.65zm13.65 0h9.825v-10.65h-3.3l3.525-10.95h-5.325l-4.725 10.95v10.65z"/><path id="b" d="M357.814 420.392a12.6 12.6 0 0 0-10.95 6h-.15v-5.025h-10.2v51.975h10.5v-18.45h.15a12.75 12.75 0 0 0 10.8 5.55c9.525 0 15.675-7.875 15.675-20.025s-6.225-20.025-15.825-20.025zm-3.375 8.025c5.025 0 8.25 4.725 8.25 12s-3.225 12-8.25 12c-4.725 0-7.95-4.425-7.95-12s3.225-12 7.95-12z"/><path id="c" d="M393.853 460.367a13.5 13.5 0 0 0 11.175-5.7h.15v4.8h9.825v-38.1h-10.5v20.4c0 6.9-3.15 10.35-7.5 10.35-4.125 0-6.675-2.625-6.675-8.4v-22.35h-10.5v23.4c0 10.35 5.475 15.6 14.025 15.6z"/><path id="d" d="M481.155 449.567h-11.55v9.9h11.55v-9.9zm-4.65-44.625c-11.55 0-18.225 5.625-18.525 16.65h10.95c.225-5.25 2.7-7.575 7.575-7.575 4.275 0 6.525 2.025 6.525 5.175 0 2.925-.6 4.425-4.95 8.4-5.85 5.4-7.125 8.175-7.125 15.525l.075 2.4h8.925c0-6.75 1.125-9 6.525-13.575 6-5.175 7.5-7.875 7.5-13.05 0-8.625-6.6-13.95-17.475-13.95z"/><path id="e" d="M280.129 481.067h-10.8l-3.825 19.425c-1.5 7.65-2.85 15.525-3.9 23.1h-.15c-1.388-7.748-3.014-15.452-4.875-23.1l-4.65-19.425h-13.95l-4.65 19.425c-1.861 7.648-3.487 15.352-4.875 23.1h-.15c-1.087-7.734-2.388-15.437-3.9-23.1l-3.825-19.425h-10.8l11.175 53.4h14.325l4.95-21.15c1.8-7.575 3.375-15.225 4.65-22.875h.15c1.275 7.65 2.85 15.3 4.65 22.875l4.95 21.15h14.325l11.175-53.4z"/><path id="f" d="M492.192 495.467a13.65 13.65 0 0 0-12.15 6.525c-2.1-4.275-6-6.525-11.325-6.525a12.3 12.3 0 0 0-10.575 5.25h-.15v-4.35h-9.9v38.1h10.5v-19.575c0-7.125 2.4-11.175 6.975-11.175 3.9 0 6 2.85 6 7.725v23.025h10.5v-19.575c0-7.2 2.475-11.175 6.975-11.175 3.675 0 6 2.625 6 8.4v22.35h10.5v-23.4c0-10.35-5.175-15.6-13.35-15.6z"/><path id="g" d="M1159.94 479.867c-15.6 0-25.35 10.65-25.35 28.125 0 17.1 8.7 27.525 22.35 27.525 7.125 0 12.6-2.625 15.6-6.825h.15v5.775h9.3v-29.325h-22.95v9h12.675c-.15 8.25-4.35 12.675-12 12.675-8.475 0-13.725-7.125-13.725-18.825 0-11.475 5.4-18.375 13.95-18.375 5.925 0 9.45 2.85 10.425 8.1h11.85c-1.125-10.95-9.15-17.85-22.275-17.85z"/><path id="h" d="M1361.815 481.067h-9.825v10.65h3.3l-3.525 10.95h5.325l4.725-10.95v-10.65z"/><path id="i" d="M1404.51 496.367h-10.95l-4.425 15a241.4 241.4 0 0 0-4.2 16.5h-.15c-1.206-5.548-2.606-11.051-4.2-16.5l-4.425-15h-10.95l12.825 38.1h13.65l12.825-38.1z"/><path id="j" d="M144.689 570.467c-4.491-.051-8.721 2.08-11.315 5.7h-.152v-4.8h-9.948v38.1h10.632v-20.4c0-6.9 3.189-10.35 7.594-10.35 4.177 0 6.759 2.625 6.759 8.4v22.35h10.632v-23.4c0-10.35-5.544-15.6-14.201-15.6z"/><path id="k" d="M185.34 570.167c-12.074 0-19.744 7.875-19.744 20.25s7.67 20.25 19.744 20.25 19.744-7.875 19.744-20.25-7.67-20.25-19.744-20.25zm0 8.1c5.24 0 8.581 4.725 8.581 12.15s-3.341 12.15-8.581 12.15-8.581-4.725-8.581-12.15 3.341-12.15 8.581-12.15z"/><path id="l" d="M229.185 601.592c-3.645 0-5.012-1.65-5.012-5.85v-16.575h7.366v-7.8h-7.366v-9.9h-10.632v9.9h-6.227v7.8h6.227v18.45c0 8.85 3.873 12.375 12.758 12.375 1.899-.003 3.788-.255 5.62-.75v-8.025c-.888.256-1.809.382-2.734.375z"/><path id="m" d="M248.876 556.067h-10.632v53.4h10.632v-20.4c0-6.975 3.189-10.35 7.594-10.35 4.177 0 6.759 2.625 6.759 8.4v22.35h10.632v-23.4c0-10.35-5.544-15.6-14.201-15.6-4.162-.059-8.106 1.833-10.632 5.1h-.152v-19.5z"/><path id="n" d="M293.705 571.367h-10.632v38.1h10.632v-38.1zm0-15.3h-10.632v9h10.632v-9z"/><path id="o" d="M632.55 570.167c-11.771 0-19.441 7.95-19.441 20.25s7.67 20.25 19.441 20.25c10.404 0 17.39-6.45 18.226-16.125h-11.163c-.304 4.95-3.038 8.025-7.138 8.025-5.164 0-8.277-4.65-8.277-12.15s3.114-12.15 8.277-12.15c4.101 0 6.835 2.775 7.214 7.275h11.087c-.835-8.925-7.822-15.375-18.226-15.375z"/><path id="p" d="M672.669 570.167c-11.011 0-16.327 5.85-16.707 13.125h10.328c.152-3.6 2.43-5.775 6.379-5.775 3.721 0 6.303 1.95 6.303 6.75v1.35a125.89 125.89 0 0 0-9.644 1.05c-11.163 1.725-14.96 5.925-14.96 12.15 0 6.6 4.936 11.55 13.138 11.55 4.942.255 9.672-2.01 12.53-6h.152a21.49 21.49 0 0 0 .532 5.1h9.568a39.5 39.5 0 0 1-1.063-10.425v-13.8c0-9.975-5.62-15.075-16.555-15.075zm6.303 23.25c0 3.45-.38 5.475-2.202 7.275-1.665 1.472-3.842 2.252-6.075 2.175-3.721 0-5.696-1.95-5.696-4.8 0-3.075 1.823-4.5 6.227-5.25 2.278-.375 5.468-.675 7.746-.825v1.425z"/><path id="q" d="M718.584 556.067h10.632v53.4h-10.632z"/><path id="r" d="M1007.663 603.242c-4.556 0-8.429-2.775-8.733-10.65h27.718c.113-3.293-.297-6.583-1.215-9.75-2.272-7.788-9.648-13.026-17.846-12.675-12.074 0-19.137 8.7-19.137 19.95 0 12.15 7.062 20.55 19.213 20.55 10.252 0 16.935-5.775 18.453-12.75h-10.859c-.532 3.075-3.341 5.325-7.594 5.325zm-.076-25.65c4.253 0 7.746 2.625 8.429 8.4h-16.859c.835-5.775 4.101-8.4 8.429-8.4z"/><path id="s" d="M208.236 645.167c-12.111 0-19.805 7.875-19.805 20.25s7.693 20.25 19.805 20.25 19.805-7.875 19.805-20.25-7.693-20.25-19.805-20.25zm0 8.1c5.256 0 8.607 4.725 8.607 12.15s-3.352 12.15-8.607 12.15-8.607-4.725-8.607-12.15 3.352-12.15 8.607-12.15z"/><path id="t" d="M280.004 645.467c-5.009-.181-9.727 2.314-12.34 6.525-2.133-4.275-6.094-6.525-11.502-6.525-4.255-.167-8.303 1.812-10.74 5.25h-.152v-4.35h-10.055v38.1h10.664v-19.575c0-7.125 2.438-11.175 7.084-11.175 3.961 0 6.094 2.85 6.094 7.725v23.025h10.664v-19.575c0-7.2 2.514-11.175 7.084-11.175 3.732 0 6.094 2.625 6.094 8.4v22.35h10.664v-23.4c0-10.35-5.256-15.6-13.559-15.6z"/><path id="u" d="M319.628 678.242c-4.57 0-8.455-2.775-8.76-10.65h27.803c.113-3.293-.298-6.583-1.219-9.75-2.279-7.788-9.677-13.026-17.901-12.675-12.111 0-19.195 8.7-19.195 19.95 0 12.15 7.084 20.55 19.272 20.55 10.283 0 16.986-5.775 18.51-12.75h-10.893c-.533 3.075-3.352 5.325-7.617 5.325zm-.076-25.65c4.266 0 7.77 2.625 8.455 8.4h-16.91c.838-5.775 4.113-8.4 8.455-8.4z"/><path id="v" d="M645.862 645.167c-9.598 0-15.996 4.875-15.996 11.7 0 8.85 6.932 10.35 13.406 12 6.018 1.575 8.912 2.25 8.912 5.55 0 2.25-1.904 3.675-5.637 3.675-4.418 0-6.779-2.175-6.779-6h-10.817c0 9.225 6.627 13.575 17.367 13.575 10.512 0 17.063-4.8 17.063-11.925 0-9.3-7.617-11.025-14.549-12.825-5.865-1.5-8.303-2.175-8.303-4.875 0-2.175 1.828-3.525 5.256-3.525 3.809 0 6.094 1.65 6.094 5.55h10.207c0-8.475-6.094-12.9-16.225-12.9z"/><path id="w" d="M897.821 645.767c-4.396-.127-8.491 2.193-10.588 6h-.152v-5.4h-9.826v38.1h10.664v-18c0-7.5 3.504-11.55 10.055-11.55 1.066 0 2.133.15 3.352.375v-9.075a14.07 14.07 0 0 0-3.504-.45z"/><path id="x" d="M184.673 713.267a6.75 6.75 0 0 1 1.875.225v-7.425a25.2 25.2 0 0 0-5.175-.6c-8.175 0-12.6 4.125-12.6 12.45v3.45h-6.3v7.8h6.3v30.3h10.35v-30.3h7.2v-7.8h-7.2v-2.175c0-4.35 1.875-5.925 5.55-5.925z"/><path id="y" d="M181.908 802.668h10.022v-10.65h-3.366l3.596-10.95h-5.432l-4.82 10.95v10.65zm13.923 0h10.022v-10.65h-3.366l3.596-10.95h-5.432l-4.82 10.95v10.65z"/><path id="z" d="M321.33 795.168c-11.858 0-19.584 7.95-19.584 20.25s7.727 20.25 19.584 20.25c10.481 0 17.519-6.45 18.36-16.125h-11.246c-.306 4.95-3.06 8.025-7.191 8.025-5.202 0-8.339-4.65-8.339-12.15s3.137-12.15 8.339-12.15c4.131 0 6.885 2.775 7.268 7.275h11.169c-.842-8.925-7.88-15.375-18.36-15.375z"/><path id="AA" d="M365.213 828.243c-4.59 0-8.492-2.775-8.798-10.65h27.923a30.99 30.99 0 0 0-1.224-9.75c-2.289-7.788-9.719-13.026-17.978-12.675-12.164 0-19.278 8.7-19.278 19.95 0 12.15 7.115 20.55 19.355 20.55 10.328 0 17.06-5.775 18.59-12.75h-10.94c-.536 3.075-3.366 5.325-7.65 5.325zm-.077-25.65c4.284 0 7.803 2.625 8.492 8.4h-16.983c.842-5.775 4.131-8.4 8.492-8.4z"/><path id="AB" d="M414.614 795.393c-4.543-.076-8.79 2.205-11.169 6h-.153v-5.025h-10.404v51.975h10.71v-18.45h.153c2.48 3.556 6.624 5.643 11.016 5.55 9.716 0 15.989-7.875 15.989-20.025s-6.35-20.025-16.142-20.025zm-3.443 8.025c5.126 0 8.415 4.725 8.415 12s-3.29 12-8.415 12c-4.82 0-8.109-4.425-8.109-12s3.29-12 8.109-12z"/><path id="AC" d="M456.748 826.593c-3.672 0-5.049-1.65-5.049-5.85v-16.575h7.421v-7.8h-7.421v-9.9h-10.71v9.9h-6.273v7.8h6.273v18.45c0 8.85 3.902 12.375 12.852 12.375a21.98 21.98 0 0 0 5.661-.75v-8.025a9.74 9.74 0 0 1-2.754.375z"/><path id="AD" d="M506.106 796.368h-10.71v38.1h10.71v-38.1zm0-15.3h-10.71v9h10.71v-9z"/><path id="AE" d="M535.389 788.268c.645-.013 1.289.063 1.913.225v-7.425c-1.734-.378-3.503-.579-5.279-.6-8.339 0-12.852 4.125-12.852 12.45v3.45h-6.426v7.8h6.426v30.3h10.557v-30.3h7.344v-7.8h-7.344v-2.175c0-4.35 1.913-5.925 5.661-5.925z"/><path id="AF" d="M628.424 781.068h-10.022v10.65h3.366l-3.596 10.95h5.432l4.82-10.95v-10.65z"/><path id="AG" d="M650.499 795.168c-9.639 0-16.065 4.875-16.065 11.7 0 8.85 6.962 10.35 13.464 12 6.044 1.575 8.951 2.25 8.951 5.55 0 2.25-1.913 3.675-5.661 3.675-4.437 0-6.809-2.175-6.809-6h-10.863c0 9.225 6.656 13.575 17.442 13.575 10.557 0 17.136-4.8 17.136-11.925 0-9.3-7.65-11.025-14.612-12.825-5.891-1.5-8.339-2.175-8.339-4.875 0-2.175 1.836-3.525 5.279-3.525 3.825 0 6.12 1.65 6.12 5.55h10.251c0-8.475-6.12-12.9-16.295-12.9z"/><path id="AH" d="M720.13 795.168c-11.093 0-16.448 5.85-16.83 13.125h10.404c.153-3.6 2.448-5.775 6.426-5.775 3.749 0 6.35 1.95 6.35 6.75v1.35a127.72 127.72 0 0 0-9.716 1.05c-11.246 1.725-15.071 5.925-15.071 12.15 0 6.6 4.973 11.55 13.235 11.55 4.979.255 9.743-2.01 12.623-6h.153a21.34 21.34 0 0 0 .536 5.1h9.639a39.22 39.22 0 0 1-1.071-10.425v-13.8c0-9.975-5.661-15.075-16.677-15.075zm6.35 23.25c0 3.45-.383 5.475-2.219 7.275-1.677 1.472-3.87 2.252-6.12 2.175-3.749 0-5.738-1.95-5.738-4.8 0-3.075 1.836-4.5 6.273-5.25 2.295-.375 5.508-.675 7.803-.825v1.425z"/><path id="AI" d="M786.242 781.068h-10.71v53.4h10.71v-20.4c0-6.975 3.213-10.35 7.65-10.35 4.208 0 6.809 2.625 6.809 8.4v22.35h10.71v-23.4c0-10.35-5.585-15.6-14.306-15.6-4.192-.059-8.166 1.833-10.71 5.1h-.153v-19.5z"/><path id="AJ" d="M839.468 795.168c-12.164 0-19.89 7.875-19.89 20.25s7.727 20.25 19.89 20.25 19.89-7.875 19.89-20.25-7.727-20.25-19.89-20.25zm0 8.1c5.279 0 8.645 4.725 8.645 12.15s-3.366 12.15-8.645 12.15-8.645-4.725-8.645-12.15 3.366-12.15 8.645-12.15z"/><path id="AK" d="M912.89 795.468c-5.03-.181-9.769 2.314-12.393 6.525-2.142-4.275-6.12-6.525-11.552-6.525-4.273-.167-8.339 1.812-10.787 5.25h-.153v-4.35h-10.098v38.1h10.71v-19.575c0-7.125 2.448-11.175 7.115-11.175 3.978 0 6.12 2.85 6.12 7.725v23.025h10.71v-19.575c0-7.2 2.525-11.175 7.115-11.175 3.749 0 6.12 2.625 6.12 8.4v22.35h10.71v-23.4c0-10.35-5.279-15.6-13.617-15.6z"/><path id="AL" d="M1162.899 813.918l14.765-17.55h-12.087l-12.546 15.375h-.153v-30.675h-10.71v53.4h10.71v-17.85h.153l13.005 17.85h13.235l-16.371-20.55z"/><path id="AM" d="M1263.03 781.068h-10.71v19.875h-.153c-2.48-3.556-6.624-5.643-11.016-5.55-9.716 0-15.989 7.875-15.989 20.025s6.35 20.025 16.142 20.025c4.543.076 8.79-2.205 11.169-6h.153v5.025h10.404v-53.4zm-18.284 22.35c4.82 0 8.109 4.425 8.109 12s-3.29 12-8.109 12c-5.126 0-8.415-4.725-8.415-12s3.29-12 8.415-12z"/><path id="AN" d="M268.95 870.168c-11.625 0-19.2 7.95-19.2 20.25s7.575 20.25 19.2 20.25c10.275 0 17.175-6.45 18-16.125h-11.025c-.3 4.95-3 8.025-7.05 8.025-5.1 0-8.175-4.65-8.175-12.15s3.075-12.15 8.175-12.15c4.05 0 6.75 2.775 7.125 7.275h10.95c-.825-8.925-7.725-15.375-18-15.375z"/><path id="AO" d="M366.42 945.168c-11.856 0-19.582 7.95-19.582 20.25s7.726 20.25 19.582 20.25c10.479 0 17.517-6.45 18.358-16.125h-11.244c-.306 4.95-3.06 8.025-7.19 8.025-5.201 0-8.338-4.65-8.338-12.15s3.136-12.15 8.338-12.15c4.131 0 6.884 2.775 7.267 7.275h11.168c-.841-8.925-7.879-15.375-18.358-15.375z"/><path id="AP" d="M409.133 978.243c-4.59 0-8.491-2.775-8.797-10.65h27.919c.113-3.293-.3-6.583-1.224-9.75-2.288-7.788-9.718-13.026-17.976-12.675-12.162 0-19.276 8.7-19.276 19.95 0 12.15 7.114 20.55 19.352 20.55 10.326 0 17.058-5.775 18.587-12.75h-10.938c-.535 3.075-3.366 5.325-7.649 5.325zm-.076-25.65c4.284 0 7.802 2.625 8.491 8.4h-16.981c.841-5.775 4.131-8.4 8.491-8.4z"/><path id="AQ" d="M517.985 945.168c-12.162 0-19.888 7.875-19.888 20.25s7.726 20.25 19.888 20.25 19.888-7.875 19.888-20.25-7.726-20.25-19.888-20.25zm0 8.1c5.278 0 8.644 4.725 8.644 12.15s-3.366 12.15-8.644 12.15-8.644-4.725-8.644-12.15 3.366-12.15 8.644-12.15z"/><path id="AR" d="M590.231 945.468c-5.03-.181-9.768 2.314-12.392 6.525-2.142-4.275-6.119-6.525-11.55-6.525-4.273-.167-8.338 1.812-10.785 5.25h-.153v-4.35h-10.097v38.1h10.709v-19.575c0-7.125 2.448-11.175 7.114-11.175 3.978 0 6.119 2.85 6.119 7.725v23.025h10.709v-19.575c0-7.2 2.524-11.175 7.114-11.175 3.748 0 6.119 2.625 6.119 8.4v22.35h10.709v-23.4c0-10.35-5.278-15.6-13.616-15.6z"/><path id="AS" d="M927.757 931.068h-10.709v19.875h-.153c-2.48-3.556-6.623-5.643-11.015-5.55-9.714 0-15.987 7.875-15.987 20.025s6.349 20.025 16.14 20.025c4.543.076 8.789-2.205 11.168-6h.153v5.025h10.403v-53.4zm-18.282 22.35c4.819 0 8.108 4.425 8.108 12s-3.289 12-8.108 12c-5.125 0-8.414-4.725-8.414-12s3.289-12 8.414-12z"/><path id="AT" d="M1083.919 945.168c-11.091 0-16.446 5.85-16.828 13.125h10.403c.153-3.6 2.448-5.775 6.425-5.775 3.748 0 6.349 1.95 6.349 6.75v1.35c-3.251.226-6.491.576-9.714 1.05-11.244 1.725-15.069 5.925-15.069 12.15 0 6.6 4.972 11.55 13.233 11.55 4.978.255 9.742-2.01 12.621-6h.153a21.34 21.34 0 0 0 .535 5.1h9.638c-.822-3.414-1.182-6.919-1.071-10.425v-13.8c0-9.975-5.66-15.075-16.675-15.075zm6.349 23.25c0 3.45-.382 5.475-2.218 7.275-1.677 1.472-3.87 2.252-6.119 2.175-3.748 0-5.737-1.95-5.737-4.8 0-3.075 1.836-4.5 6.272-5.25 2.295-.375 5.507-.675 7.802-.825v1.425z"/><path id="AU" d="M1171.96 945.393c-4.543-.076-8.789 2.205-11.168 6h-.153v-5.025h-10.403v51.975h10.709v-18.45h.153c2.48 3.556 6.623 5.643 11.015 5.55 9.714 0 15.987-7.875 15.987-20.025s-6.349-20.025-16.14-20.025zm-3.442 8.025c5.125 0 8.414 4.725 8.414 12s-3.289 12-8.414 12c-4.819 0-8.108-4.425-8.108-12s3.289-12 8.108-12z"/><path id="AV" d="M1216.139 945.768c-4.415-.127-8.527 2.193-10.632 6h-.153v-5.4h-9.867v38.1h10.709v-18c0-7.5 3.519-11.55 10.097-11.55 1.071 0 2.142.15 3.366.375v-9.075a14.18 14.18 0 0 0-3.519-.45z"/><path id="AW" d="M330.867 1020.468c-4.524-.051-8.785 2.08-11.399 5.7h-.153v-4.8h-10.022v38.1h10.71v-20.4c0-6.9 3.213-10.35 7.65-10.35 4.208 0 6.809 2.625 6.809 8.4v22.35h10.71v-23.4c0-10.35-5.585-15.6-14.306-15.6z"/><path id="AX" d="M368.39 1020.318c-9.792 0-16.065 7.5-16.065 19.35s6.197 19.35 15.912 19.35c4.404.156 8.552-2.022 10.863-5.7h.153v3.375c0 7.425-2.984 9.825-7.803 9.825-4.055 0-6.503-1.725-6.732-4.65h-10.71c.612 7.5 6.503 12.15 17.213 12.15 11.169 0 18.437-5.4 18.437-16.95v-35.7h-10.098v5.1h-.153c-2.984-4.35-6.273-6.15-11.016-6.15zm2.907 8.625c5.049 0 8.262 4.275 8.262 10.725s-3.213 10.725-8.262 10.725c-4.743 0-7.803-4.125-7.803-10.725s3.06-10.725 7.803-10.725z"/><path id="AY" d="M808.554 1020.768c-4.415-.127-8.528 2.193-10.634 6h-.153v-5.4h-9.869v38.1h10.71v-18c0-7.5 3.519-11.55 10.098-11.55 1.071 0 2.142.15 3.366.375v-9.075c-1.149-.297-2.331-.448-3.519-.45z"/><path id="AZ" d="M1241.198 1021.368h-10.634l-2.907 14.7c-1.092 5.5-2.036 11.027-2.831 16.575h-.153a259.63 259.63 0 0 0-3.29-16.425l-3.443-14.85h-14.688l-3.443 14.85a259.63 259.63 0 0 0-3.29 16.425h-.153c-.795-5.548-1.738-11.075-2.831-16.575l-2.907-14.7h-10.634l8.568 38.1h15.3l3.443-15c1.224-5.325 2.295-10.8 3.213-16.275h.153c.918 5.475 1.989 10.95 3.213 16.275l3.443 15h15.3l8.568-38.1z"/><path id="Aa" d="M436.378 1081.068h-10.5v53.4h10.2v-5.025h.15c2.325 3.9 6.525 6 10.95 6 9.6 0 15.825-7.875 15.825-20.025s-6.15-20.025-15.675-20.025a12.75 12.75 0 0 0-10.8 5.55h-.15v-19.875zm7.425 22.35c5.025 0 8.25 4.725 8.25 12s-3.225 12-8.25 12c-4.725 0-7.95-4.425-7.95-12s3.225-12 7.95-12z"/><path id="Ab" d="M924.615 1188.922l14.475-17.55h-11.85l-12.3 15.375h-.15v-30.675h-10.5v53.4h10.5v-17.85h.15l12.75 17.85h12.975l-16.05-20.55z"/><path id="Ac" d="M550.298 1306.072h-11.025v20.925h-21.9v-20.925h-11.025v53.4h11.025v-23.025h21.9v23.025h11.025v-53.4z"/><path id="Ad" d="M264.402 1456.072h-11.246v20.925h-22.338v-20.925h-11.246v53.4h11.246v-23.025h22.338v23.025h11.246v-53.4z"/><path id="Ae" d="M133.827 1531.072h-10.579v53.4h10.579v-20.4c0-6.975 3.174-10.35 7.556-10.35 4.156 0 6.725 2.625 6.725 8.4v22.35h10.579v-23.4c0-10.35-5.516-15.6-14.13-15.6-4.141-.059-8.065 1.833-10.579 5.1h-.151v-19.5z"/><path id="Af" d="M182.77 1545.172c-10.956 0-16.246 5.85-16.623 13.125h10.276c.151-3.6 2.418-5.775 6.347-5.775 3.703 0 6.272 1.95 6.272 6.75v1.35a124.66 124.66 0 0 0-9.596 1.05c-11.108 1.725-14.886 5.925-14.886 12.15 0 6.6 4.911 11.55 13.072 11.55 4.918.255 9.623-2.01 12.468-6h.151c-.027 1.715.151 3.427.529 5.1h9.521a39.69 39.69 0 0 1-1.058-10.425v-13.8c0-9.975-5.592-15.075-16.472-15.075zm6.272 23.25c0 3.45-.378 5.475-2.191 7.275-1.657 1.472-3.823 2.252-6.045 2.175-3.703 0-5.667-1.95-5.667-4.8 0-3.075 1.813-4.5 6.196-5.25 2.267-.375 5.44-.675 7.707-.825v1.425z"/><path id="Ag" d="M243.122 1531.072h-10.579v19.875h-.151c-2.45-3.556-6.542-5.643-10.881-5.55-9.596 0-15.792 7.875-15.792 20.025s6.272 20.025 15.943 20.025c4.487.076 8.682-2.205 11.032-6h.151v5.025h10.276v-53.4zm-18.059 22.35c4.76 0 8.01 4.425 8.01 12s-3.249 12-8.01 12c-5.063 0-8.312-4.725-8.312-12s3.249-12 8.312-12z"/><path id="Ah" d="M292.5 1545.472c-4.468-.051-8.677 2.08-11.259 5.7h-.151v-4.8h-9.899v38.1h10.579v-20.4c0-6.9 3.174-10.35 7.556-10.35 4.156 0 6.725 2.625 6.725 8.4v22.35h10.579v-23.4c0-10.35-5.516-15.6-14.13-15.6z"/><path id="Ai" d="M366.735 1546.372h-10.579v38.1h10.579v-38.1zm0-15.3h-10.579v9h10.579v-9z"/><path id="Aj" d="M376.159 1531.072h10.579v53.4h-10.579z"/><path id="Ak" d="M412.785 1578.247c-4.534 0-8.387-2.775-8.69-10.65h27.58c.112-3.293-.296-6.583-1.209-9.75-2.26-7.788-9.599-13.026-17.757-12.675-12.014 0-19.041 8.7-19.041 19.95 0 12.15 7.027 20.55 19.117 20.55 10.201 0 16.85-5.775 18.361-12.75h-10.805c-.529 3.075-3.325 5.325-7.556 5.325zm-.076-25.65c4.231 0 7.707 2.625 8.387 8.4h-16.775c.831-5.775 4.08-8.4 8.387-8.4z"/><path id="Al" d="M519.563 1576.597c-3.627 0-4.987-1.65-4.987-5.85v-16.575h7.329v-7.8h-7.329v-9.9h-10.579v9.9h-6.196v7.8h6.196v18.45c0 8.85 3.854 12.375 12.694 12.375a21.46 21.46 0 0 0 5.592-.75v-8.025a9.51 9.51 0 0 1-2.72.375z"/><path id="Am" d="M791.29 1545.772c-4.361-.127-8.423 2.193-10.503 6h-.151v-5.4h-9.747v38.1h10.579v-18c0-7.5 3.476-11.55 9.974-11.55 1.058 0 2.116.15 3.325.375v-9.075a13.85 13.85 0 0 0-3.476-.45z"/><path id="An" d="M176.996 1695.172c-11.983 0-19.595 7.875-19.595 20.25s7.612 20.25 19.595 20.25 19.595-7.875 19.595-20.25-7.612-20.25-19.595-20.25zm0 8.1c5.2 0 8.516 4.725 8.516 12.15s-3.316 12.15-8.516 12.15-8.516-4.725-8.516-12.15 3.316-12.15 8.516-12.15z"/><path id="Ao" d="M283.468 1726.597c-3.618 0-4.974-1.65-4.974-5.85v-16.575h7.311v-7.8h-7.311v-9.9h-10.551v9.9h-6.18v7.8h6.18v18.45c0 8.85 3.844 12.375 12.662 12.375a21.35 21.35 0 0 0 5.577-.75v-8.025c-.881.256-1.795.382-2.713.375z"/><path id="Ap" d="M302.859 1681.072h-10.551v53.4h10.551v-20.4c0-6.975 3.165-10.35 7.537-10.35 4.145 0 6.708 2.625 6.708 8.4v22.35h10.551v-23.4c0-10.35-5.502-15.6-14.094-15.6-4.13-.059-8.045 1.833-10.551 5.1h-.151v-19.5z"/><path id="Aq" d="M377.818 1695.472c-4.457-.051-8.655 2.08-11.23 5.7h-.151v-4.8h-9.873v38.1h10.551v-20.4c0-6.9 3.165-10.35 7.537-10.35 4.145 0 6.708 2.625 6.708 8.4v22.35h10.551v-23.4c0-10.35-5.502-15.6-14.094-15.6z"/><path id="Ar" d="M421.326 1713.922l14.546-17.55h-11.908l-12.36 15.375h-.151v-30.675h-10.551v53.4h10.551v-17.85h.151l12.812 17.85h13.038l-16.128-20.55z"/><path id="As" d="M681.657 1728.247c-4.522 0-8.366-2.775-8.667-10.65h27.509a31.43 31.43 0 0 0-1.206-9.75c-2.255-7.788-9.575-13.026-17.711-12.675-11.983 0-18.992 8.7-18.992 19.95 0 12.15 7.009 20.55 19.068 20.55 10.175 0 16.807-5.775 18.314-12.75h-10.777c-.528 3.075-3.316 5.325-7.537 5.325zm-.075-25.65c4.221 0 7.687 2.625 8.366 8.4h-16.731c.829-5.775 4.07-8.4 8.366-8.4z"/><path id="At" d="M982.073 1681.072h-10.551v19.875h-.151c-2.443-3.556-6.525-5.643-10.853-5.55-9.572 0-15.752 7.875-15.752 20.025s6.255 20.025 15.902 20.025c4.476.076 8.659-2.205 11.004-6h.151v5.025h10.25v-53.4zm-18.013 22.35c4.748 0 7.989 4.425 7.989 12s-3.241 12-7.989 12c-5.05 0-8.29-4.725-8.29-12s3.241-12 8.29-12z"/><path id="Au" d="M1093.679 1695.172c-9.496 0-15.827 4.875-15.827 11.7 0 8.85 6.858 10.35 13.265 12 5.954 1.575 8.818 2.25 8.818 5.55 0 2.25-1.884 3.675-5.577 3.675-4.371 0-6.708-2.175-6.708-6h-10.702c0 9.225 6.557 13.575 17.184 13.575 10.401 0 16.882-4.8 16.882-11.925 0-9.3-7.537-11.025-14.395-12.825-5.803-1.5-8.215-2.175-8.215-4.875 0-2.175 1.809-3.525 5.2-3.525 3.768 0 6.029 1.65 6.029 5.55h10.099c0-8.475-6.029-12.9-16.053-12.9z"/><path id="Av" d="M1304.209 1695.772c-4.35-.127-8.401 2.193-10.476 6h-.151v-5.4h-9.722v38.1h10.551v-18c0-7.5 3.467-11.55 9.948-11.55 1.055 0 2.11.15 3.316.375v-9.075a13.78 13.78 0 0 0-3.467-.45z"/><path id="Aw" d="M246.908 1995.172c-10.658 0-15.803 5.85-16.17 13.125h9.996c.147-3.6 2.352-5.775 6.174-5.775 3.602 0 6.101 1.95 6.101 6.75v1.35c-3.124.226-6.238.576-9.335 1.05-10.805 1.725-14.48 5.925-14.48 12.15 0 6.6 4.778 11.55 12.716 11.55 4.783.255 9.361-2.01 12.128-6h.147c-.026 1.715.147 3.427.515 5.1h9.261a40.76 40.76 0 0 1-1.029-10.425v-13.8c0-9.975-5.439-15.075-16.023-15.075zm6.101 23.25c0 3.45-.368 5.475-2.132 7.275a8.28 8.28 0 0 1-5.88 2.175c-3.602 0-5.513-1.95-5.513-4.8 0-3.075 1.764-4.5 6.027-5.25 2.205-.375 5.292-.675 7.497-.825v1.425z"/><path id="Ax" d="M291.806 1995.472c-4.346-.051-8.44 2.08-10.952 5.7h-.147v-4.8h-9.629v38.1h10.29v-20.4c0-6.9 3.087-10.35 7.35-10.35 4.043 0 6.542 2.625 6.542 8.4v22.35h10.29v-23.4c0-10.35-5.366-15.6-13.745-15.6z"/><path id="Ay" d="M347.729 1981.072h-10.29v19.875h-.147c-2.383-3.556-6.364-5.643-10.584-5.55-9.335 0-15.362 7.875-15.362 20.025s6.101 20.025 15.509 20.025c4.365.076 8.445-2.205 10.731-6h.147v5.025h9.996v-53.4zm-17.567 22.35c4.631 0 7.791 4.425 7.791 12s-3.161 12-7.791 12c-4.925 0-8.085-4.725-8.085-12s3.161-12 8.085-12z"/><path id="Az" d="M418.466 1995.172c-9.261 0-15.435 4.875-15.435 11.7 0 8.85 6.689 10.35 12.936 12 5.807 1.575 8.6 2.25 8.6 5.55 0 2.25-1.838 3.675-5.439 3.675-4.263 0-6.542-2.175-6.542-6h-10.437c0 9.225 6.395 13.575 16.758 13.575 10.143 0 16.464-4.8 16.464-11.925 0-9.3-7.35-11.025-14.039-12.825-5.66-1.5-8.012-2.175-8.012-4.875 0-2.175 1.764-3.525 5.072-3.525 3.675 0 5.88 1.65 5.88 5.55h9.849c0-8.475-5.88-12.9-15.656-12.9z"/><path id="BA" d="M491.895 1996.372h-10.29v38.1h10.29v-38.1zm0-15.3h-10.29v9h10.29v-9z"/><path id="BB" d="M685.618 2028.247c-4.41 0-8.159-2.775-8.453-10.65h26.828c.109-3.293-.288-6.583-1.176-9.75-2.199-7.788-9.338-13.026-17.273-12.675-11.687 0-18.522 8.7-18.522 19.95 0 12.15 6.836 20.55 18.596 20.55 9.923 0 16.391-5.775 17.861-12.75h-10.511c-.515 3.075-3.234 5.325-7.35 5.325zm-.074-25.65c4.116 0 7.497 2.625 8.159 8.4h-16.317c.809-5.775 3.969-8.4 8.159-8.4z"/><path id="BC" d="M843.888 1995.772c-4.242-.127-8.193 2.193-10.217 6h-.147v-5.4h-9.482v38.1h10.29v-18c0-7.5 3.381-11.55 9.702-11.55 1.029 0 2.058.15 3.234.375v-9.075c-1.104-.297-2.24-.448-3.381-.45z"/><path id="BD" d="M939.16 2035.372c4.346.051 8.44-2.08 10.952-5.7h.147v4.8h9.629v-38.1h-10.29v20.4c0 6.9-3.087 10.35-7.35 10.35-4.043 0-6.542-2.625-6.542-8.4v-22.35h-10.29v23.4c0 10.35 5.366 15.6 13.745 15.6z"/><path id="BE" d="M1022.343 2026.597c-3.528 0-4.851-1.65-4.851-5.85v-16.575h7.13v-7.8h-7.13v-9.9h-10.29v9.9h-6.027v7.8h6.027v18.45c0 8.85 3.749 12.375 12.348 12.375a20.34 20.34 0 0 0 5.439-.75v-8.025c-.859.256-1.751.382-2.646.375z"/><path id="BF" d="M1271.183 1995.322c-9.408 0-15.435 7.5-15.435 19.35s5.954 19.35 15.288 19.35c4.231.156 8.217-2.022 10.437-5.7h.147v3.375c0 7.425-2.867 9.825-7.497 9.825-3.896 0-6.248-1.725-6.468-4.65h-10.29c.588 7.5 6.248 12.15 16.538 12.15 10.731 0 17.714-5.4 17.714-16.95v-35.7h-9.702v5.1h-.147c-2.867-4.35-6.027-6.15-10.584-6.15zm2.793 8.625c4.851 0 7.938 4.275 7.938 10.725s-3.087 10.725-7.938 10.725c-4.557 0-7.497-4.125-7.497-10.725s2.94-10.725 7.497-10.725z"/><path id="BG" d="M1346.903 1981.072h-10.29v53.4h10.29v-20.4c0-6.975 3.087-10.35 7.35-10.35 4.043 0 6.542 2.625 6.542 8.4v22.35h10.29v-23.4c0-10.35-5.366-15.6-13.745-15.6-4.028-.059-7.845 1.833-10.29 5.1h-.147v-19.5z"/><path id="BH" d="M267.228 2056.073h11.025v53.4h-11.025z"/></defs></svg>