<svg id="finger" viewBox="0 0 20 40" version="1.1" xmlns="http://www.w3.org/2000/svg" xmlns:xlink="http://www.w3.org/1999/xlink" xml:space="preserve" style="fill-rule:evenodd;clip-rule:evenodd;stroke-linejoin:round;stroke-miterlimit:2;">
    <g transform="matrix(1.18016e-16,1.92735,-1.92735,1.18016e-16,100.22,-67.7337)">
        <path d="M49.464,41.967C51.612,41.967 53.222,42.13 54.292,42.454C55.362,42.778 55.897,43.264 55.897,43.913C55.897,44.413 55.518,44.79 54.761,45.044C54.003,45.298 52.862,45.424 51.339,45.424L51.128,45.424C50.909,45.424 50.702,45.423 50.507,45.419C50.311,45.415 50.104,45.409 49.886,45.401C50.034,45.557 50.149,45.712 50.231,45.864C50.313,46.016 50.354,46.167 50.354,46.315C50.354,46.401 50.339,46.493 50.308,46.591C50.276,46.688 50.229,46.796 50.167,46.913C50.456,47.069 50.669,47.245 50.806,47.44C50.942,47.635 51.011,47.866 51.011,48.132C51.011,48.272 50.989,48.403 50.946,48.524C50.903,48.645 50.843,48.764 50.765,48.882C50.968,49.069 51.114,49.251 51.204,49.426C51.294,49.602 51.339,49.788 51.339,49.983C51.339,50.522 51.009,50.993 50.349,51.395C49.688,51.798 48.89,51.999 47.952,51.999C47.608,51.999 47.317,51.942 47.079,51.829C46.841,51.716 46.62,51.534 46.417,51.284C45.464,51.284 44.679,51.237 44.061,51.143C43.444,51.049 42.933,50.901 42.526,50.698C42.393,50.635 42.194,50.53 41.929,50.382C41.108,49.921 40.444,49.69 39.936,49.69L39.819,49.69L39.819,50.803L38.026,50.921L37.663,51.612L35.143,51.284L35.143,42.788L39.819,42.635L39.819,43.503L40.042,43.503C40.55,43.503 41.237,43.221 42.104,42.659C42.167,42.62 42.214,42.589 42.245,42.565C42.854,42.174 43.323,41.917 43.651,41.792C43.979,41.667 44.304,41.604 44.624,41.604C44.843,41.604 45.071,41.639 45.31,41.71C45.548,41.78 45.8,41.882 46.065,42.014C46.268,42.007 46.55,41.999 46.909,41.991C47.753,41.975 48.319,41.967 48.608,41.967L49.464,41.967ZM51.339,44.78C52.604,44.78 53.554,44.702 54.186,44.546C54.819,44.389 55.136,44.155 55.136,43.842C55.136,43.421 54.634,43.102 53.63,42.887C52.626,42.673 51.159,42.565 49.229,42.565L48.89,42.565C48.561,42.565 48.241,42.571 47.929,42.583C47.616,42.594 47.315,42.612 47.026,42.635C47.362,42.971 47.685,43.313 47.993,43.661C48.302,44.008 48.601,44.362 48.89,44.721C48.999,44.729 49.151,44.737 49.347,44.745C49.651,44.768 49.851,44.78 49.944,44.78L51.339,44.78ZM45.784,46.385C45.433,46.448 45.151,46.583 44.94,46.79C44.729,46.997 44.624,47.229 44.624,47.487C44.624,47.745 44.708,47.95 44.876,48.102C45.044,48.255 45.272,48.331 45.561,48.331C45.882,48.331 46.329,48.233 46.903,48.038C47.477,47.842 48.046,47.585 48.608,47.264C48.936,47.077 49.186,46.901 49.358,46.737C49.53,46.573 49.616,46.424 49.616,46.292C49.616,46.159 49.571,46.032 49.481,45.911C49.392,45.79 49.253,45.667 49.065,45.542C48.854,45.94 48.602,46.227 48.31,46.403C48.017,46.579 47.643,46.667 47.19,46.667C47.011,46.667 46.8,46.643 46.558,46.596C46.315,46.549 46.058,46.479 45.784,46.385ZM46.089,48.882C46.089,49.202 46.163,49.438 46.311,49.591C46.46,49.743 46.698,49.819 47.026,49.819C47.784,49.819 48.513,49.635 49.212,49.268C49.911,48.901 50.261,48.522 50.261,48.132C50.261,47.96 50.21,47.817 50.108,47.704C50.007,47.591 49.851,47.503 49.64,47.44C48.913,47.745 48.261,48.014 47.683,48.249C47.104,48.483 46.573,48.694 46.089,48.882ZM50.19,49.385C49.511,49.745 48.784,50.018 48.011,50.206C47.237,50.393 46.851,50.585 46.851,50.78C46.851,50.967 46.964,51.126 47.19,51.255C47.417,51.383 47.714,51.448 48.081,51.448C48.722,51.448 49.306,51.294 49.833,50.985C50.36,50.676 50.624,50.358 50.624,50.03C50.624,49.874 50.581,49.733 50.495,49.608C50.409,49.483 50.308,49.409 50.19,49.385ZM44.214,44.241C44.948,44.952 45.54,45.446 45.989,45.723C46.438,46.001 46.847,46.139 47.214,46.139C47.503,46.139 47.759,46.071 47.981,45.934C48.204,45.798 48.315,45.651 48.315,45.495C48.315,45.393 48.243,45.206 48.099,44.932C47.954,44.659 47.772,44.389 47.554,44.124C47.054,43.522 46.548,43.065 46.036,42.753C45.524,42.44 45.03,42.284 44.554,42.284C43.976,42.284 43.261,42.573 42.409,43.151C42.339,43.198 42.28,43.237 42.233,43.268C41.327,43.901 40.546,44.217 39.89,44.217L39.819,44.217L39.819,48.987C40.601,49.065 41.425,49.37 42.292,49.901C42.495,50.026 42.64,50.108 42.726,50.147C43.124,50.335 43.577,50.473 44.085,50.563C44.593,50.653 45.179,50.698 45.843,50.698L46.323,50.698L46.323,50.276C46.089,50.237 45.907,50.112 45.778,49.901C45.649,49.69 45.558,49.366 45.503,48.928C45.034,48.897 44.681,48.766 44.442,48.536C44.204,48.305 44.054,47.948 43.991,47.464C43.804,47.503 43.636,47.532 43.487,47.551C43.339,47.571 43.198,47.581 43.065,47.581C42.745,47.581 42.429,47.526 42.116,47.417C41.804,47.307 41.479,47.139 41.143,46.913L41.331,46.643C41.651,46.745 41.938,46.819 42.192,46.866C42.446,46.913 42.679,46.936 42.89,46.936C43.241,46.936 43.591,46.852 43.938,46.684C44.286,46.516 44.632,46.264 44.976,45.928L43.991,44.534L44.214,44.241ZM39.151,49.913L39.151,43.339L37.616,43.385L37.851,49.96L39.151,49.913Z" style="fill:#111;fill-rule:nonzero;"/>
    </g>
</svg>