<svg id="skull-light" viewBox="0 0 43 43" version="1.1" xmlns="http://www.w3.org/2000/svg" xmlns:xlink="http://www.w3.org/1999/xlink" xml:space="preserve" style="fill-rule:evenodd;clip-rule:evenodd;stroke-linejoin:round;stroke-miterlimit:2;">
    <g transform="matrix(5.58079,0,0,5.58079,-4.80506,4.65707)">
        <path d="M7.406,4.963C7.59,4.896 7.744,4.863 7.869,4.863C8.01,4.863 8.146,4.927 8.276,5.054C8.407,5.181 8.473,5.313 8.473,5.449C8.473,5.602 8.398,5.732 8.25,5.842L7.816,6.123L7.547,6.539C7.457,6.652 7.328,6.709 7.16,6.709C6.984,6.709 6.82,6.635 6.668,6.486C6.516,6.338 6.439,6.178 6.439,6.006C6.439,5.893 6.465,5.75 6.516,5.578L6.229,5.35C6.17,5.846 6.021,6.201 5.783,6.416C5.545,6.631 5.18,6.738 4.688,6.738C4.207,6.738 3.84,6.623 3.586,6.393C3.406,6.229 3.283,5.891 3.217,5.379L2.924,5.602C2.951,5.754 2.965,5.881 2.965,5.982C2.965,6.186 2.896,6.36 2.76,6.507C2.623,6.653 2.461,6.727 2.273,6.727C2.102,6.727 1.967,6.666 1.869,6.545L1.588,6.123L1.143,5.83C1.045,5.748 0.996,5.631 0.996,5.479C0.996,5.326 1.057,5.198 1.178,5.095C1.299,4.991 1.447,4.939 1.623,4.939C1.729,4.939 1.867,4.957 2.039,4.992L2.648,4.289C2.332,3.547 2.174,2.807 2.174,2.068C2.174,1.943 2.182,1.752 2.197,1.494C1.963,1.432 1.785,1.387 1.664,1.359C1.129,1.246 0.861,1.045 0.861,0.756C0.861,0.564 0.945,0.416 1.113,0.311L1.611,0.047L1.846,-0.51C1.943,-0.693 2.096,-0.785 2.303,-0.785C2.725,-0.785 2.936,-0.404 2.936,0.357C3.568,0.049 4.195,-0.105 4.816,-0.105C5.387,-0.105 5.932,0.041 6.451,0.334L6.445,0.229C6.445,-0.475 6.678,-0.826 7.143,-0.826C7.346,-0.826 7.471,-0.77 7.518,-0.656L7.764,-0.023C7.768,-0.012 7.908,0.07 8.186,0.223C8.439,0.363 8.566,0.529 8.566,0.721C8.566,0.893 8.466,1.033 8.265,1.143C8.063,1.252 7.713,1.359 7.213,1.465C7.24,1.699 7.254,1.869 7.254,1.975C7.254,2.764 7.094,3.518 6.773,4.236L7.406,4.963ZM6.076,4.758L6.609,4.143C6.684,4.061 6.754,3.861 6.82,3.545L6.943,2.971C7.018,2.627 7.055,2.26 7.055,1.869C7.055,1.35 6.865,0.934 6.486,0.621C6.318,0.484 6.071,0.368 5.745,0.272C5.419,0.177 5.105,0.129 4.805,0.129C4.094,0.129 3.506,0.275 3.041,0.568C2.592,0.861 2.365,1.318 2.361,1.939C2.361,2.475 2.402,2.895 2.484,3.199L2.619,3.686C2.697,3.959 2.773,4.139 2.848,4.225L3.352,4.805C3.398,5.504 3.484,5.938 3.609,6.105C3.813,6.371 4.203,6.504 4.781,6.504C5.273,6.504 5.612,6.379 5.798,6.129C5.983,5.879 6.076,5.422 6.076,4.758ZM7.16,1.166C7.953,1.166 8.35,1.014 8.35,0.709C8.35,0.572 8.229,0.447 7.986,0.334C7.744,0.225 7.621,0.158 7.617,0.135L7.5,-0.264C7.441,-0.479 7.314,-0.592 7.119,-0.604C6.791,-0.619 6.627,-0.256 6.627,0.486C6.83,0.682 7.008,0.908 7.16,1.166ZM2.783,0.48C2.748,-0.219 2.578,-0.568 2.273,-0.568C2.086,-0.568 1.957,-0.43 1.887,-0.152C1.824,0.078 1.783,0.199 1.764,0.211L1.324,0.404C1.156,0.479 1.072,0.59 1.072,0.738C1.072,1.027 1.324,1.17 1.828,1.166L2.227,1.277C2.359,0.953 2.545,0.688 2.783,0.48ZM6.656,4.395L6.264,4.834L6.246,5.145L6.697,5.49C6.65,5.662 6.627,5.809 6.627,5.93C6.627,6.074 6.679,6.21 6.782,6.337C6.886,6.464 6.994,6.527 7.107,6.527C7.24,6.527 7.371,6.436 7.5,6.252C7.613,6.092 7.678,6.006 7.693,5.994L7.986,5.824C8.174,5.719 8.271,5.604 8.279,5.479C8.283,5.385 8.229,5.288 8.115,5.188C8.002,5.089 7.889,5.039 7.775,5.039C7.674,5.039 7.529,5.088 7.342,5.186L6.656,4.395ZM2.76,4.406L2.098,5.186C1.902,5.131 1.738,5.104 1.605,5.104C1.484,5.104 1.377,5.143 1.283,5.221C1.189,5.299 1.143,5.387 1.143,5.484C1.143,5.633 1.225,5.75 1.389,5.836L1.717,6L1.934,6.311C2.043,6.463 2.176,6.539 2.332,6.539C2.457,6.539 2.566,6.481 2.66,6.366C2.754,6.251 2.801,6.117 2.801,5.965C2.801,5.844 2.779,5.693 2.736,5.514L3.188,5.168L3.164,4.863L2.76,4.406ZM6.469,2.777L6.475,3.451C6.475,3.537 6.432,3.617 6.346,3.691C6.26,3.766 6.164,3.807 6.059,3.814L5.613,3.838C5.527,3.842 5.421,3.793 5.294,3.691C5.167,3.59 5.104,3.504 5.104,3.434L5.104,2.83C5.104,2.764 5.158,2.688 5.268,2.602C5.377,2.516 5.471,2.473 5.549,2.473L6.129,2.461C6.355,2.461 6.469,2.566 6.469,2.777ZM3.311,2.479L3.768,2.461C3.893,2.461 4.014,2.514 4.131,2.619C4.248,2.725 4.311,2.836 4.318,2.953L4.342,3.328C4.346,3.438 4.288,3.55 4.169,3.665C4.05,3.78 3.928,3.838 3.803,3.838L3.322,3.838C3.252,3.838 3.17,3.793 3.076,3.703C2.982,3.613 2.936,3.535 2.936,3.469L2.936,2.836C2.936,2.746 2.975,2.664 3.053,2.59C3.131,2.516 3.217,2.479 3.311,2.479ZM5.039,4.424L4.793,4.43L4.717,4.16L4.629,4.418L4.359,4.43L4.623,3.223L4.793,3.223L5.039,4.424ZM3.129,1.6L2.977,1.729L2.982,2.051L2.818,2.191L2.73,2.479L2.455,2.467L2.455,2.273L2.666,2.367L2.684,2.109L2.854,2.016L2.83,1.688L3,1.535L3.117,0.797L3.129,1.6ZM6.217,1.641L6.234,1.359L6.141,0.996L6.357,1.307L6.357,1.547L6.521,1.594L6.457,2.109L6.984,2.385L6.346,2.238L6.369,1.682L6.217,1.641ZM5.543,5.021L5.549,5.396L5.848,5.391L5.848,5.525L5.543,5.537L5.549,5.9L5.42,5.9L5.42,5.531L5.209,5.531L5.197,6.012L5.086,6.006L5.08,5.525L4.828,5.525L4.822,6.141L4.705,6.135L4.693,5.525L4.436,5.52L4.43,6.012L4.289,6.018L4.289,5.531L4.061,5.537L4.049,5.906L3.908,5.9L3.902,5.537L3.65,5.537L3.65,5.396L3.908,5.402L3.908,5.027L4.055,5.016L4.043,5.396L4.283,5.396L4.289,4.939L4.418,4.945L4.43,5.402L4.693,5.408L4.693,4.857L4.822,4.857L4.822,5.402L5.08,5.402L5.074,4.939L5.197,4.945L5.203,5.396L5.408,5.396L5.414,5.021L5.543,5.021Z" style="fill:whitesmoke;fill-rule:nonzero;"/>
    </g>
</svg>